<?xml version="1.0" encoding="UTF-8" standalone="no"?>
<svg
   xmlns:dc="http://purl.org/dc/elements/1.1/"
   xmlns:cc="http://creativecommons.org/ns#"
   xmlns:rdf="http://www.w3.org/1999/02/22-rdf-syntax-ns#"
   xmlns:svg="http://www.w3.org/2000/svg"
   xmlns="http://www.w3.org/2000/svg"
   xmlns:sodipodi="http://sodipodi.sourceforge.net/DTD/sodipodi-0.dtd"
   xmlns:inkscape="http://www.inkscape.org/namespaces/inkscape"
   id="Layer_1"
   data-name="Layer 1"
   viewBox="0 0 272.39031 76.964842"
   version="1.1"
   sodipodi:docname="logo-ru.svg"
   width="272.39032"
   height="76.964844"
   inkscape:version="0.92.2 5c3e80d, 2017-08-06">
  <metadata
     id="metadata4182">
    <rdf:RDF>
      <cc:Work
         rdf:about="">
        <dc:format>image/svg+xml</dc:format>
        <dc:type
           rdf:resource="http://purl.org/dc/dcmitype/StillImage" />
        <dc:title>Artboard 2</dc:title>
      </cc:Work>
    </rdf:RDF>
  </metadata>
  <sodipodi:namedview
     pagecolor="#ffffff"
     bordercolor="#666666"
     borderopacity="1"
     objecttolerance="10"
     gridtolerance="10"
     guidetolerance="10"
     inkscape:pageopacity="0"
     inkscape:pageshadow="2"
     inkscape:window-width="1918"
     inkscape:window-height="979"
     id="namedview4180"
     showgrid="false"
     inkscape:zoom="3.4421966"
     inkscape:cx="185.05198"
     inkscape:cy="16.38144"
     inkscape:window-x="-2"
     inkscape:window-y="0"
     inkscape:window-maximized="0"
     inkscape:current-layer="Layer_1"
     fit-margin-top="0"
     fit-margin-left="0"
     fit-margin-right="0"
     fit-margin-bottom="0" />
  <defs
     id="defs4011">
    @font-face {
      font-family: AlternateGotNo3DOT;
      src: url('alternategotno3dot-webfont.eot?#iefix') format('embedded-opentype'), /* IE6-IE8 */
         url('alternategotno3dot-webfont.woff2') format('woff2'), /* Modern Browsers */
         url('alternategotno3dot-webfont.woff') format('woff'), /* Modern Browsers */
         url('alternategotno3dot-webfont.ttf') format('truetype');
    }
    <style
   id="style4009">.cls-1{font-size:20px;}.cls-1,.cls-2,.cls-5{fill:#039749;}.cls-1,.cls-2{font-family:AlternateGotNo3DOT, AlternateGotNo3DOT;}.cls-2{font-size:14px;}.cls-3{fill:#c00;}.cls-3,.cls-4,.cls-5{fill-rule:evenodd;}.cls-4{fill:#0071b8;}</style>
</defs>
  <title
     id="title4013">Artboard 2</title>
  <g
     aria-label="Механизм посредничества"
     transform="translate(52.82,45.22)"
     style="font-size:20px;font-family:AlternateGotNo3DOT, AlternateGotNo3DOT;fill:#039749"
     id="text4015">
    <path
       d="M 11.921875,0 H 10.375 V -10.023438 L 7.140625,-3.203125 H 6.21875 L 3.0078125,-10.023438 V 0 H 1.5625 v -11.632813 h 2.109375 l 3.1015625,6.476563 3,-6.476563 h 2.1484375 z"
       style="font-style:normal;font-variant:normal;font-weight:normal;font-stretch:normal;font-size:16px;font-family:AlternateGotNo3DOT, AlternateGotNo3DOT;-inkscape-font-specification:'AlternateGotNo3DOT, AlternateGotNo3DOT, Normal';font-variant-ligatures:normal;font-variant-caps:normal;font-variant-numeric:normal;font-feature-settings:normal;text-align:start;writing-mode:lr-tb;text-anchor:start"
       id="path4984"
       inkscape:connector-curvature="0" />
    <path
       d="m 22.25,-4.2109375 h -6.429687 q 0,0.8046875 0.242187,1.40625 0.242187,0.59375 0.664062,0.9765625 0.40625,0.375 0.960938,0.5625 0.5625,0.1875 1.234375,0.1875 0.890625,0 1.789062,-0.3515625 0.90625,-0.359375 1.289063,-0.703125 h 0.07813 V -0.53125 q -0.742188,0.3125 -1.515625,0.5234375 -0.773438,0.2109375 -1.625,0.2109375 -2.171875,0 -3.390625,-1.171875 -1.21875,-1.1796875 -1.21875,-3.34375 0,-2.140625 1.164063,-3.3984375 1.171874,-1.2578125 3.078124,-1.2578125 1.765625,0 2.71875,1.03125 Q 22.25,-6.90625 22.25,-5.0078125 Z m -1.429688,-1.125 q -0.0078,-1.15625 -0.585937,-1.7890625 -0.570313,-0.6328125 -1.742188,-0.6328125 -1.179687,0 -1.882812,0.6953125 -0.695312,0.6953125 -0.789062,1.7265625 z"
       style="font-style:normal;font-variant:normal;font-weight:normal;font-stretch:normal;font-size:16px;font-family:AlternateGotNo3DOT, AlternateGotNo3DOT;-inkscape-font-specification:'AlternateGotNo3DOT, AlternateGotNo3DOT, Normal';font-variant-ligatures:normal;font-variant-caps:normal;font-variant-numeric:normal;font-feature-settings:normal;text-align:start;writing-mode:lr-tb;text-anchor:start"
       id="path4986"
       inkscape:connector-curvature="0" />
    <path
       d="M 32.03125,0 H 30.179687 L 27.703125,-3.3515625 25.210937,0 H 23.5 l 3.40625,-4.3515625 -3.375,-4.375 h 1.851562 l 2.460938,3.296875 2.46875,-3.296875 h 1.71875 l -3.429688,4.296875 z"
       style="font-style:normal;font-variant:normal;font-weight:normal;font-stretch:normal;font-size:16px;font-family:AlternateGotNo3DOT, AlternateGotNo3DOT;-inkscape-font-specification:'AlternateGotNo3DOT, AlternateGotNo3DOT, Normal';font-variant-ligatures:normal;font-variant-caps:normal;font-variant-numeric:normal;font-feature-settings:normal;text-align:start;writing-mode:lr-tb;text-anchor:start"
       id="path4988"
       inkscape:connector-curvature="0" />
    <path
       d="m 40.726562,0 h -1.460937 v -0.9296875 q -0.195313,0.1328125 -0.53125,0.375 -0.328125,0.234375 -0.640625,0.375 Q 37.726562,0 37.25,0.1171875 q -0.476563,0.125 -1.117188,0.125 -1.179687,0 -2,-0.78125 -0.820312,-0.78125 -0.820312,-1.9921875 0,-0.9921875 0.421875,-1.6015625 0.429687,-0.6171875 1.21875,-0.96875 0.796875,-0.3515625 1.914062,-0.4765625 1.117188,-0.125 2.398438,-0.1875 v -0.2265625 q 0,-0.5 -0.179688,-0.828125 -0.171875,-0.328125 -0.5,-0.515625 -0.3125,-0.1796875 -0.75,-0.2421875 -0.4375,-0.0625 -0.914062,-0.0625 -0.578125,0 -1.289063,0.15625 -0.710937,0.1484375 -1.46875,0.4375 h -0.07813 V -8.5390625 Q 34.51562,-8.65625 35.32812,-8.796875 36.14062,-8.9375 36.929682,-8.9375 q 0.921875,0 1.601563,0.15625 0.6875,0.1484375 1.1875,0.515625 0.492187,0.359375 0.75,0.9296875 0.257812,0.5703125 0.257812,1.4140625 z M 39.265625,-2.1484375 V -4.578125 q -0.671875,0.039063 -1.585938,0.1171875 -0.90625,0.078125 -1.4375,0.2265625 -0.632812,0.1796875 -1.023437,0.5625 -0.390625,0.375 -0.390625,1.0390625 0,0.75 0.453125,1.1328125 0.453125,0.375 1.382812,0.375 0.773438,0 1.414063,-0.296875 0.640625,-0.3046875 1.1875,-0.7265625 z"
       style="font-style:normal;font-variant:normal;font-weight:normal;font-stretch:normal;font-size:16px;font-family:AlternateGotNo3DOT, AlternateGotNo3DOT;-inkscape-font-specification:'AlternateGotNo3DOT, AlternateGotNo3DOT, Normal';font-variant-ligatures:normal;font-variant-caps:normal;font-variant-numeric:normal;font-feature-settings:normal;text-align:start;writing-mode:lr-tb;text-anchor:start"
       id="path4990"
       inkscape:connector-curvature="0" />
    <path
       d="M 50.875,0 H 49.40625 V -3.9296875 H 45.039062 V 0 h -1.46875 v -8.7265625 h 1.46875 v 3.53125 h 4.367188 v -3.53125 H 50.875 Z"
       style="font-style:normal;font-variant:normal;font-weight:normal;font-stretch:normal;font-size:16px;font-family:AlternateGotNo3DOT, AlternateGotNo3DOT;-inkscape-font-specification:'AlternateGotNo3DOT, AlternateGotNo3DOT, Normal';font-variant-ligatures:normal;font-variant-caps:normal;font-variant-numeric:normal;font-feature-settings:normal;text-align:start;writing-mode:lr-tb;text-anchor:start"
       id="path4992"
       inkscape:connector-curvature="0" />
    <path
       d="M 61.109375,0 H 59.65625 V -6.5546875 L 55.085937,0 h -1.328125 v -8.7265625 h 1.453125 v 6.4609375 l 4.523438,-6.4609375 h 1.375 z"
       style="font-style:normal;font-variant:normal;font-weight:normal;font-stretch:normal;font-size:16px;font-family:AlternateGotNo3DOT, AlternateGotNo3DOT;-inkscape-font-specification:'AlternateGotNo3DOT, AlternateGotNo3DOT, Normal';font-variant-ligatures:normal;font-variant-caps:normal;font-variant-numeric:normal;font-feature-settings:normal;text-align:start;writing-mode:lr-tb;text-anchor:start"
       id="path4994"
       inkscape:connector-curvature="0" />
    <path
       d="m 70.078125,-2.4453125 q 0,0.734375 -0.34375,1.2421875 -0.335938,0.5078125 -0.867188,0.8203125 -0.53125,0.3046875 -1.171875,0.4453125 -0.640625,0.140625 -1.28125,0.140625 -0.90625,0 -1.726562,-0.171875 Q 63.867187,-0.140625 63.070312,-0.5 v -1.609375 h 0.101563 q 0.570312,0.5 1.453125,0.7734375 0.882812,0.2734375 1.710937,0.2734375 0.390625,0 0.804688,-0.070312 0.414062,-0.078125 0.71875,-0.2421875 0.328125,-0.1875 0.523437,-0.4453125 0.195313,-0.265625 0.195313,-0.71875 0,-0.46875 -0.195313,-0.75 -0.1875,-0.28125 -0.515625,-0.421875 -0.320312,-0.140625 -0.773437,-0.171875 -0.453125,-0.03125 -0.828125,-0.03125 H 64.992187 V -5.179687 H 65.875 q 0.3125,0 0.8125,-0.023437 0.507812,-0.023437 0.820312,-0.125 0.40625,-0.1328125 0.640625,-0.375 0.242188,-0.2421875 0.242188,-0.7734375 0,-0.3671875 -0.1875,-0.6015625 -0.1875,-0.2421875 -0.46875,-0.375 -0.289063,-0.1328125 -0.648438,-0.1796875 -0.351562,-0.046875 -0.625,-0.046875 -0.796875,0 -1.570312,0.21875 Q 64.125,-7.25 63.601562,-6.84375 H 63.5 v -1.6171875 q 0.648437,-0.2109375 1.390625,-0.34375 Q 65.632812,-8.9375 66.375,-8.9375 q 0.609375,0 1.210937,0.109375 0.609375,0.109375 1.132813,0.375 0.515625,0.265625 0.84375,0.7265625 0.328125,0.453125 0.328125,1.125 0,0.6875 -0.429688,1.2109375 -0.421875,0.515625 -1.140625,0.7421875 v 0.054687 q 0.804688,0.1953125 1.28125,0.734375 0.476563,0.53125 0.476563,1.414063 z"
       style="font-style:normal;font-variant:normal;font-weight:normal;font-stretch:normal;font-size:16px;font-family:AlternateGotNo3DOT, AlternateGotNo3DOT;-inkscape-font-specification:'AlternateGotNo3DOT, AlternateGotNo3DOT, Normal';font-variant-ligatures:normal;font-variant-caps:normal;font-variant-numeric:normal;font-feature-settings:normal;text-align:start;writing-mode:lr-tb;text-anchor:start"
       id="path4996"
       inkscape:connector-curvature="0" />
    <path
       d="m 80.664062,0 h -1.453125 v -6.890625 l -2.171875,4.484375 h -1.09375 l -2.15625,-4.484375 V 0 h -1.375 V -8.7265625 H 74.1875 l 2.375,4.8828125 2.296875,-4.8828125 h 1.804687 z"
       style="font-style:normal;font-variant:normal;font-weight:normal;font-stretch:normal;font-size:16px;font-family:AlternateGotNo3DOT, AlternateGotNo3DOT;-inkscape-font-specification:'AlternateGotNo3DOT, AlternateGotNo3DOT, Normal';font-variant-ligatures:normal;font-variant-caps:normal;font-variant-numeric:normal;font-feature-settings:normal;text-align:start;writing-mode:lr-tb;text-anchor:start"
       id="path4998"
       inkscape:connector-curvature="0" />
    <path
       d="M 96.5,0 H 95.03125 V -7.4609375 H 90.664062 V 0 h -1.46875 V -8.7265625 H 96.5 Z"
       style="font-style:normal;font-variant:normal;font-weight:normal;font-stretch:normal;font-size:16px;font-family:AlternateGotNo3DOT, AlternateGotNo3DOT;-inkscape-font-specification:'AlternateGotNo3DOT, AlternateGotNo3DOT, Normal';font-variant-ligatures:normal;font-variant-caps:normal;font-variant-numeric:normal;font-feature-settings:normal;text-align:start;writing-mode:lr-tb;text-anchor:start"
       id="path5000"
       inkscape:connector-curvature="0" />
    <path
       d="m 106.82031,-4.359375 q 0,2.1328125 -1.09375,3.3671875 -1.09375,1.234375 -2.92968,1.234375 -1.85157,0 -2.945318,-1.234375 -1.085937,-1.234375 -1.085937,-3.3671875 0,-2.1328125 1.085937,-3.3671875 1.093748,-1.2421875 2.945318,-1.2421875 1.83593,0 2.92968,1.2421875 1.09375,1.234375 1.09375,3.3671875 z m -1.51562,0 q 0,-1.6953125 -0.66406,-2.515625 -0.66407,-0.828125 -1.84375,-0.828125 -1.19532,0 -1.85938,0.828125 -0.65625,0.8203125 -0.65625,2.515625 0,1.640625 0.66406,2.4921875 0.66407,0.84375 1.85157,0.84375 1.17187,0 1.83593,-0.8359375 0.67188,-0.84375 0.67188,-2.5 z"
       style="font-style:normal;font-variant:normal;font-weight:normal;font-stretch:normal;font-size:16px;font-family:AlternateGotNo3DOT, AlternateGotNo3DOT;-inkscape-font-specification:'AlternateGotNo3DOT, AlternateGotNo3DOT, Normal';font-variant-ligatures:normal;font-variant-caps:normal;font-variant-numeric:normal;font-feature-settings:normal;text-align:start;writing-mode:lr-tb;text-anchor:start"
       id="path5002"
       inkscape:connector-curvature="0" />
    <path
       d="m 115.63281,-0.546875 q -0.89843,0.421875 -1.54687,0.578125 -0.64063,0.1640625 -1.28125,0.1640625 -0.95313,0 -1.75,-0.2734375 -0.79688,-0.28125 -1.36719,-0.84375 -0.57031,-0.5625 -0.89062,-1.421875 -0.3125,-0.859375 -0.3125,-2.0078125 0,-2.0859375 1.15625,-3.328125 1.15625,-1.25 3.16406,-1.25 0.75781,0 1.48437,0.2109375 0.73438,0.2109375 1.34375,0.515625 v 1.6328125 h -0.0859 q -0.72657,-0.5546875 -1.4375,-0.8203125 -0.70313,-0.265625 -1.36719,-0.265625 -1.30469,0 -2.02344,0.875 -0.71094,0.875 -0.71094,2.4296875 0,1.5546875 0.71094,2.4140625 0.71094,0.859375 2.02344,0.859375 0.46094,0 0.91406,-0.1171875 Q 114.11719,-1.3125 114.49219,-1.5 q 0.29687,-0.1484375 0.60937,-0.3515625 0.32032,-0.2109375 0.44532,-0.3125 h 0.0859 z"
       style="font-style:normal;font-variant:normal;font-weight:normal;font-stretch:normal;font-size:16px;font-family:AlternateGotNo3DOT, AlternateGotNo3DOT;-inkscape-font-specification:'AlternateGotNo3DOT, AlternateGotNo3DOT, Normal';font-variant-ligatures:normal;font-variant-caps:normal;font-variant-numeric:normal;font-feature-settings:normal;text-align:start;writing-mode:lr-tb;text-anchor:start"
       id="path5004"
       inkscape:connector-curvature="0" />
    <path
       d="m 125.34375,-4.46875 q 0,1.0625 -0.30469,1.9453125 -0.30468,0.875 -0.85937,1.484375 -0.51563,0.578125 -1.21875,0.8984375 -0.69531,0.3125 -1.47656,0.3125 -0.67969,0 -1.23438,-0.1484375 Q 119.70313,-0.125 119.13281,-0.4375 v 3.65625 h -1.46875 V -8.7265625 h 1.46875 V -7.8125 q 0.58594,-0.4921875 1.3125,-0.8203125 0.73438,-0.3359375 1.5625,-0.3359375 1.57813,0 2.45313,1.1953125 0.88281,1.1875 0.88281,3.3046875 z m -1.51562,0.039063 q 0,-1.578125 -0.53907,-2.359375 -0.53906,-0.78125 -1.65625,-0.78125 -0.63281,0 -1.27343,0.2734375 -0.64063,0.2734375 -1.22657,0.71875 v 4.9453125 q 0.625,0.28125 1.07032,0.3828125 0.45312,0.1015625 1.02343,0.1015625 1.22657,0 1.91407,-0.828125 0.6875,-0.828125 0.6875,-2.453125 z"
       style="font-style:normal;font-variant:normal;font-weight:normal;font-stretch:normal;font-size:16px;font-family:AlternateGotNo3DOT, AlternateGotNo3DOT;-inkscape-font-specification:'AlternateGotNo3DOT, AlternateGotNo3DOT, Normal';font-variant-ligatures:normal;font-variant-caps:normal;font-variant-numeric:normal;font-feature-settings:normal;text-align:start;writing-mode:lr-tb;text-anchor:start"
       id="path5006"
       inkscape:connector-curvature="0" />
    <path
       d="m 134.9375,-4.2109375 h -6.42969 q 0,0.8046875 0.24219,1.40625 0.24219,0.59375 0.66406,0.9765625 0.40625,0.375 0.96094,0.5625 0.5625,0.1875 1.23437,0.1875 0.89063,0 1.78907,-0.3515625 0.90625,-0.359375 1.28906,-0.703125 h 0.0781 V -0.53125 q -0.74218,0.3125 -1.51562,0.5234375 -0.77344,0.2109375 -1.625,0.2109375 -2.17188,0 -3.39063,-1.171875 -1.21874,-1.1796875 -1.21874,-3.34375 0,-2.140625 1.16406,-3.3984375 1.17187,-1.2578125 3.07812,-1.2578125 1.76563,0 2.71875,1.03125 0.96094,1.03125 0.96094,2.9296875 z m -1.42969,-1.125 q -0.008,-1.15625 -0.58594,-1.7890625 -0.57031,-0.6328125 -1.74218,-0.6328125 -1.17969,0 -1.88282,0.6953125 -0.69531,0.6953125 -0.78906,1.7265625 z"
       style="font-style:normal;font-variant:normal;font-weight:normal;font-stretch:normal;font-size:16px;font-family:AlternateGotNo3DOT, AlternateGotNo3DOT;-inkscape-font-specification:'AlternateGotNo3DOT, AlternateGotNo3DOT, Normal';font-variant-ligatures:normal;font-variant-caps:normal;font-variant-numeric:normal;font-feature-settings:normal;text-align:start;writing-mode:lr-tb;text-anchor:start"
       id="path5008"
       inkscape:connector-curvature="0" />
    <path
       d="m 145.08594,2.09375 h -1.36719 v -2.1171875 h -6.5625 V 2.09375 h -1.36719 V -1.25 h 0.94531 q 0.91407,-1.5078125 1.35938,-3.4765625 0.45312,-1.9765625 0.45312,-4 h 5.48438 V -1.25 h 1.05469 z M 142.5625,-1.25 v -6.2421875 h -2.63281 q -0.10157,1.9609375 -0.60157,3.578125 -0.5,1.6171875 -1.14843,2.6640625 z"
       style="font-style:normal;font-variant:normal;font-weight:normal;font-stretch:normal;font-size:16px;font-family:AlternateGotNo3DOT, AlternateGotNo3DOT;-inkscape-font-specification:'AlternateGotNo3DOT, AlternateGotNo3DOT, Normal';font-variant-ligatures:normal;font-variant-caps:normal;font-variant-numeric:normal;font-feature-settings:normal;text-align:start;writing-mode:lr-tb;text-anchor:start"
       id="path5010"
       inkscape:connector-curvature="0" />
    <path
       d="m 154.40625,0 h -1.46875 v -3.9296875 h -4.36719 V 0 h -1.46875 v -8.7265625 h 1.46875 v 3.53125 h 4.36719 v -3.53125 h 1.46875 z"
       style="font-style:normal;font-variant:normal;font-weight:normal;font-stretch:normal;font-size:16px;font-family:AlternateGotNo3DOT, AlternateGotNo3DOT;-inkscape-font-specification:'AlternateGotNo3DOT, AlternateGotNo3DOT, Normal';font-variant-ligatures:normal;font-variant-caps:normal;font-variant-numeric:normal;font-feature-settings:normal;text-align:start;writing-mode:lr-tb;text-anchor:start"
       id="path5012"
       inkscape:connector-curvature="0" />
    <path
       d="M 164.64062,0 H 163.1875 V -6.5546875 L 158.61719,0 h -1.32813 v -8.7265625 h 1.45313 v 6.4609375 l 4.52343,-6.4609375 h 1.375 z"
       style="font-style:normal;font-variant:normal;font-weight:normal;font-stretch:normal;font-size:16px;font-family:AlternateGotNo3DOT, AlternateGotNo3DOT;-inkscape-font-specification:'AlternateGotNo3DOT, AlternateGotNo3DOT, Normal';font-variant-ligatures:normal;font-variant-caps:normal;font-variant-numeric:normal;font-feature-settings:normal;text-align:start;writing-mode:lr-tb;text-anchor:start"
       id="path5014"
       inkscape:connector-curvature="0" />
    <path
       d="m 174.33594,0 h -1.46875 v -3.3515625 q -0.71094,0.21875 -1.35938,0.3515625 -0.64844,0.1328125 -1.41406,0.1328125 -1.40625,0 -2.14844,-0.6875 -0.74219,-0.6953125 -0.74219,-2 v -3.171875 h 1.46875 v 2.421875 q 0,0.5 0.0625,0.8984375 0.0625,0.390625 0.26563,0.6796875 0.20312,0.28125 0.57031,0.4296875 0.36719,0.1484375 1.02344,0.1484375 0.53906,0 1.17187,-0.1015625 0.63282,-0.109375 1.10157,-0.25 v -4.2265625 h 1.46875 z"
       style="font-style:normal;font-variant:normal;font-weight:normal;font-stretch:normal;font-size:16px;font-family:AlternateGotNo3DOT, AlternateGotNo3DOT;-inkscape-font-specification:'AlternateGotNo3DOT, AlternateGotNo3DOT, Normal';font-variant-ligatures:normal;font-variant-caps:normal;font-variant-numeric:normal;font-feature-settings:normal;text-align:start;writing-mode:lr-tb;text-anchor:start"
       id="path5016"
       inkscape:connector-curvature="0" />
    <path
       d="m 184.53125,-4.2109375 h -6.42969 q 0,0.8046875 0.24219,1.40625 0.24219,0.59375 0.66406,0.9765625 0.40625,0.375 0.96094,0.5625 0.5625,0.1875 1.23437,0.1875 0.89063,0 1.78907,-0.3515625 0.90625,-0.359375 1.28906,-0.703125 h 0.0781 V -0.53125 q -0.74218,0.3125 -1.51562,0.5234375 -0.77344,0.2109375 -1.625,0.2109375 -2.17188,0 -3.39063,-1.171875 -1.21875,-1.1796875 -1.21875,-3.34375 0,-2.140625 1.16407,-3.3984375 1.17187,-1.2578125 3.07812,-1.2578125 1.76563,0 2.71875,1.03125 0.96094,1.03125 0.96094,2.9296875 z m -1.42969,-1.125 q -0.008,-1.15625 -0.58594,-1.7890625 -0.57031,-0.6328125 -1.74218,-0.6328125 -1.17969,0 -1.88282,0.6953125 -0.69531,0.6953125 -0.78906,1.7265625 z"
       style="font-style:normal;font-variant:normal;font-weight:normal;font-stretch:normal;font-size:16px;font-family:AlternateGotNo3DOT, AlternateGotNo3DOT;-inkscape-font-specification:'AlternateGotNo3DOT, AlternateGotNo3DOT, Normal';font-variant-ligatures:normal;font-variant-caps:normal;font-variant-numeric:normal;font-feature-settings:normal;text-align:start;writing-mode:lr-tb;text-anchor:start"
       id="path5018"
       inkscape:connector-curvature="0" />
    <path
       d="m 193.28906,-0.546875 q -0.89844,0.421875 -1.54687,0.578125 -0.64063,0.1640625 -1.28125,0.1640625 -0.95313,0 -1.75,-0.2734375 -0.79688,-0.28125 -1.36719,-0.84375 -0.57031,-0.5625 -0.89063,-1.421875 -0.3125,-0.859375 -0.3125,-2.0078125 0,-2.0859375 1.15625,-3.328125 1.15625,-1.25 3.16407,-1.25 0.75781,0 1.48437,0.2109375 0.73438,0.2109375 1.34375,0.515625 v 1.6328125 h -0.0859 Q 192.47656,-7.125 191.76562,-7.390625 191.0625,-7.65625 190.39844,-7.65625 q -1.30469,0 -2.02344,0.875 -0.71094,0.875 -0.71094,2.4296875 0,1.5546875 0.71094,2.4140625 0.71094,0.859375 2.02344,0.859375 0.46093,0 0.91406,-0.1171875 Q 191.77344,-1.3125 192.14844,-1.5 q 0.29687,-0.1484375 0.60937,-0.3515625 0.32031,-0.2109375 0.44531,-0.3125 h 0.0859 z"
       style="font-style:normal;font-variant:normal;font-weight:normal;font-stretch:normal;font-size:16px;font-family:AlternateGotNo3DOT, AlternateGotNo3DOT;-inkscape-font-specification:'AlternateGotNo3DOT, AlternateGotNo3DOT, Normal';font-variant-ligatures:normal;font-variant-caps:normal;font-variant-numeric:normal;font-feature-settings:normal;text-align:start;writing-mode:lr-tb;text-anchor:start"
       id="path5020"
       inkscape:connector-curvature="0" />
    <path
       d="m 201.73437,-7.4375 h -3.15625 V 0 h -1.46875 v -7.4375 h -3.15625 v -1.2890625 h 7.78125 z"
       style="font-style:normal;font-variant:normal;font-weight:normal;font-stretch:normal;font-size:16px;font-family:AlternateGotNo3DOT, AlternateGotNo3DOT;-inkscape-font-specification:'AlternateGotNo3DOT, AlternateGotNo3DOT, Normal';font-variant-ligatures:normal;font-variant-caps:normal;font-variant-numeric:normal;font-feature-settings:normal;text-align:start;writing-mode:lr-tb;text-anchor:start"
       id="path5022"
       inkscape:connector-curvature="0" />
    <path
       d="m 210.46094,-2.640625 q 0,0.6328125 -0.25782,1.125 -0.25,0.4921875 -0.69531,0.8203125 -0.5,0.3671875 -1.09375,0.53125 Q 207.82812,0 206.86719,0 h -3.60938 v -8.7265625 h 3.375 q 0.97656,0 1.46875,0.070312 0.5,0.0625 0.9375,0.2890625 0.49219,0.2578125 0.71875,0.671875 0.23438,0.4140625 0.23438,0.9765625 0,0.6484375 -0.36719,1.125 -0.36719,0.4765625 -0.94531,0.7421875 v 0.078125 q 0.77343,0.1875 1.27343,0.7265625 0.50782,0.53125 0.50782,1.4062505 z m -1.97657,-3.8515625 q 0,-0.28125 -0.125,-0.5078125 -0.11718,-0.2265625 -0.36718,-0.3515625 -0.32813,-0.1640625 -0.74219,-0.1796875 -0.40625,-0.023437 -1.00781,-0.023437 h -1.53125 v 2.390625 h 1.83593 q 0.57813,0 0.85157,-0.039063 0.28125,-0.046875 0.5625,-0.21875 0.29687,-0.1875 0.40625,-0.4375 0.11718,-0.2578125 0.11718,-0.6328125 z m 0.46094,3.859375 q 0,-0.4296875 -0.14062,-0.6953125 -0.14063,-0.2734375 -0.61719,-0.5 -0.29688,-0.140625 -0.64063,-0.1640625 -0.34375,-0.03125 -0.95312,-0.03125 h -1.88281 v 2.8515625 h 1.39062 q 0.875,0 1.34375,-0.054687 0.47656,-0.0625 0.82031,-0.2578125 0.34375,-0.1953125 0.50782,-0.4765625 0.17187,-0.28125 0.17187,-0.6718755 z"
       style="font-style:normal;font-variant:normal;font-weight:normal;font-stretch:normal;font-size:16px;font-family:AlternateGotNo3DOT, AlternateGotNo3DOT;-inkscape-font-specification:'AlternateGotNo3DOT, AlternateGotNo3DOT, Normal';font-variant-ligatures:normal;font-variant-caps:normal;font-variant-numeric:normal;font-feature-settings:normal;text-align:start;writing-mode:lr-tb;text-anchor:start"
       id="path5024"
       inkscape:connector-curvature="0" />
    <path
       d="m 219.57031,0 h -1.46094 v -0.9296875 q -0.19531,0.1328125 -0.53125,0.375 -0.32812,0.234375 -0.64062,0.375 Q 216.57031,0 216.09375,0.1171875 q -0.47656,0.125 -1.11719,0.125 -1.17969,0 -2,-0.78125 -0.82031,-0.78125 -0.82031,-1.9921875 0,-0.9921875 0.42187,-1.6015625 0.42969,-0.6171875 1.21875,-0.96875 0.79688,-0.3515625 1.91407,-0.4765625 1.11718,-0.125 2.39843,-0.1875 v -0.2265625 q 0,-0.5 -0.17968,-0.828125 -0.17188,-0.328125 -0.5,-0.515625 -0.3125,-0.1796875 -0.75,-0.2421875 -0.4375,-0.0625 -0.91407,-0.0625 -0.57812,0 -1.28906,0.15625 -0.71094,0.1484375 -1.46875,0.4375 h -0.0781 v -1.4921875 q 0.42968,-0.1171875 1.24218,-0.2578125 0.8125,-0.140625 1.60157,-0.140625 0.92187,0 1.60156,0.15625 0.6875,0.1484375 1.1875,0.515625 0.49219,0.359375 0.75,0.9296875 0.25781,0.5703125 0.25781,1.4140625 z m -1.46094,-2.1484375 V -4.578125 q -0.67187,0.039063 -1.58593,0.1171875 -0.90625,0.078125 -1.4375,0.2265625 -0.63282,0.1796875 -1.02344,0.5625 -0.39063,0.375 -0.39063,1.0390625 0,0.75 0.45313,1.1328125 0.45312,0.375 1.38281,0.375 0.77344,0 1.41406,-0.296875 0.64063,-0.3046875 1.1875,-0.7265625 z"
       style="font-style:normal;font-variant:normal;font-weight:normal;font-stretch:normal;font-size:16px;font-family:AlternateGotNo3DOT, AlternateGotNo3DOT;-inkscape-font-specification:'AlternateGotNo3DOT, AlternateGotNo3DOT, Normal';font-variant-ligatures:normal;font-variant-caps:normal;font-variant-numeric:normal;font-feature-settings:normal;text-align:start;writing-mode:lr-tb;text-anchor:start"
       id="path5026"
       inkscape:connector-curvature="0" />
  </g>
  <g
     aria-label="Конвенция о биологическом разнообразии"
     transform="translate(53.82,65.22)"
     style="font-size:14px;font-family:AlternateGotNo3DOT, AlternateGotNo3DOT;fill:#039749"
     id="text4017">
    <path
       d="M 6.3665362,0 H 5.2089842 L 2.4518228,-3.0944009 H 1.8365885 V 0 H 0.93424476 V -6.7858071 H 1.8365885 v 3.0442708 q 0.2324218,-0.00456 0.4375,-0.045573 0.2050781,-0.041016 0.3873697,-0.154948 0.1822917,-0.1048177 0.3600261,-0.2962239 0.1777343,-0.1959635 0.3144531,-0.4785156 0.059245,-0.1230469 0.1367187,-0.3098958 0.082031,-0.186849 0.1640625,-0.3919271 0.3144531,-0.7565104 0.733724,-1.0618489 0.4238281,-0.3053386 1.2441405,-0.3053386 h 0.3600261 v 0.8066406 H 5.596354 q -0.3144531,0 -0.4921875,0.059245 -0.1777344,0.054687 -0.3190104,0.186849 -0.1321615,0.1184896 -0.2324219,0.3190104 -0.095703,0.2005208 -0.2005208,0.469401 -0.2369792,0.6015625 -0.4830729,0.8841146 -0.2415365,0.282552 -0.6516927,0.4921874 z"
       style="font-style:normal;font-variant:normal;font-weight:normal;font-stretch:normal;font-size:9.33333302px;font-family:AlternateGotNo3DOT, AlternateGotNo3DOT;-inkscape-font-specification:'AlternateGotNo3DOT, AlternateGotNo3DOT, Normal';font-variant-ligatures:normal;font-variant-caps:normal;font-variant-numeric:normal;font-feature-settings:normal;text-align:start;writing-mode:lr-tb;text-anchor:start"
       id="path5029"
       inkscape:connector-curvature="0" />
    <path
       d="m 11.652994,-2.5429687 q 0,1.2441406 -0.63802,1.96419268 -0.638021,0.72005206 -1.7089847,0.72005206 -1.0800781,0 -1.7180989,-0.72005206 -0.6334635,-0.72005208 -0.6334635,-1.96419268 0,-1.2441405 0.6334635,-1.9641926 0.6380208,-0.7246094 1.7180989,-0.7246094 1.0709637,0 1.7089847,0.7246094 0.63802,0.7200521 0.63802,1.9641926 z m -0.884114,0 q 0,-0.9889322 -0.38737,-1.4674478 -0.3873697,-0.4830729 -1.0755207,-0.4830729 -0.6972656,0 -1.0846354,0.4830729 -0.3828124,0.4785156 -0.3828124,1.4674478 0,0.9570313 0.3873697,1.453776 0.3873698,0.49218751 1.0800781,0.49218751 0.6835938,0 1.0709637,-0.48763021 0.391927,-0.4921875 0.391927,-1.4583333 z"
       style="font-style:normal;font-variant:normal;font-weight:normal;font-stretch:normal;font-size:9.33333302px;font-family:AlternateGotNo3DOT, AlternateGotNo3DOT;-inkscape-font-specification:'AlternateGotNo3DOT, AlternateGotNo3DOT, Normal';font-variant-ligatures:normal;font-variant-caps:normal;font-variant-numeric:normal;font-feature-settings:normal;text-align:start;writing-mode:lr-tb;text-anchor:start"
       id="path5031"
       inkscape:connector-curvature="0" />
    <path
       d="m 17.244791,0 h -0.85677 V -2.2923176 H 13.840495 V 0 h -0.856771 v -5.0904946 h 0.856771 v 2.0598957 h 2.547526 v -2.0598957 h 0.85677 z"
       style="font-style:normal;font-variant:normal;font-weight:normal;font-stretch:normal;font-size:9.33333302px;font-family:AlternateGotNo3DOT, AlternateGotNo3DOT;-inkscape-font-specification:'AlternateGotNo3DOT, AlternateGotNo3DOT, Normal';font-variant-ligatures:normal;font-variant-caps:normal;font-variant-numeric:normal;font-feature-settings:normal;text-align:start;writing-mode:lr-tb;text-anchor:start"
       id="path5033"
       inkscape:connector-curvature="0" />
    <path
       d="m 23.128254,-1.5403645 q 0,0.3691406 -0.150391,0.65624995 -0.145833,0.28710936 -0.405599,0.47851561 -0.291666,0.2141927 -0.638021,0.30989582 Q 21.592447,0 21.0319,0 h -2.105469 v -5.0904946 h 1.96875 q 0.569661,0 0.856771,0.041016 0.291666,0.036458 0.546875,0.1686198 0.287109,0.1503906 0.419271,0.3919271 0.136718,0.2415364 0.136718,0.5696614 0,0.3782552 -0.214192,0.65625 -0.214193,0.2779948 -0.551433,0.4329427 v 0.045573 q 0.451172,0.109375 0.742839,0.4238281 0.296224,0.3098958 0.296224,0.820312 z m -1.152995,-2.2467447 q 0,-0.1640625 -0.07292,-0.296224 -0.06836,-0.1321614 -0.214192,-0.2050781 -0.191407,-0.095703 -0.432943,-0.1048177 -0.236979,-0.013672 -0.587891,-0.013672 h -0.893229 v 1.3945312 h 1.070964 q 0.337239,0 0.496744,-0.022786 0.164063,-0.027344 0.328125,-0.1276042 0.173178,-0.109375 0.23698,-0.2552083 0.06836,-0.1503907 0.06836,-0.3691406 z m 0.26888,2.251302 q 0,-0.2506511 -0.08203,-0.405599 -0.08203,-0.1595052 -0.360026,-0.2916666 -0.173177,-0.082031 -0.373698,-0.095703 -0.200521,-0.018229 -0.55599,-0.018229 h -1.098307 v 1.66341137 h 0.811198 q 0.510417,0 0.783854,-0.031901 0.277995,-0.0364583 0.478516,-0.15039062 0.200521,-0.11393228 0.296224,-0.27799485 0.10026,-0.1640625 0.10026,-0.391927 z"
       style="font-style:normal;font-variant:normal;font-weight:normal;font-stretch:normal;font-size:9.33333302px;font-family:AlternateGotNo3DOT, AlternateGotNo3DOT;-inkscape-font-specification:'AlternateGotNo3DOT, AlternateGotNo3DOT, Normal';font-variant-ligatures:normal;font-variant-caps:normal;font-variant-numeric:normal;font-feature-settings:normal;text-align:start;writing-mode:lr-tb;text-anchor:start"
       id="path5035"
       inkscape:connector-curvature="0" />
    <path
       d="m 28.747395,-2.4563801 h -3.750651 q 0,0.469401 0.141276,0.8203124 0.141276,0.3463542 0.38737,0.5696615 0.236979,0.21874998 0.560547,0.32812498 0.328125,0.10937499 0.720052,0.10937499 0.519531,0 1.04362,-0.20507812 0.528645,-0.20963545 0.751953,-0.41015625 h 0.04557 v 0.93424478 q -0.432943,0.18229166 -0.884115,0.30533853 -0.451172,0.12304687 -0.947917,0.12304687 -1.266927,0 -1.977864,-0.68359373 -0.710938,-0.68815105 -0.710938,-1.95052075 0,-1.2486979 0.679037,-1.9824218 0.683594,-0.733724 1.795573,-0.733724 1.029948,0 1.585937,0.6015625 0.560547,0.6015625 0.560547,1.7089843 z m -0.833984,-0.65625 q -0.0046,-0.6744791 -0.341797,-1.0436198 -0.332682,-0.3691406 -1.016276,-0.3691406 -0.688151,0 -1.098307,0.405599 -0.405599,0.4055989 -0.460287,1.0071614 z"
       style="font-style:normal;font-variant:normal;font-weight:normal;font-stretch:normal;font-size:9.33333302px;font-family:AlternateGotNo3DOT, AlternateGotNo3DOT;-inkscape-font-specification:'AlternateGotNo3DOT, AlternateGotNo3DOT, Normal';font-variant-ligatures:normal;font-variant-caps:normal;font-variant-numeric:normal;font-feature-settings:normal;text-align:start;writing-mode:lr-tb;text-anchor:start"
       id="path5037"
       inkscape:connector-curvature="0" />
    <path
       d="M 34.30729,0 H 33.450519 V -2.2923176 H 30.902993 V 0 h -0.856771 v -5.0904946 h 0.856771 v 2.0598957 h 2.547526 v -2.0598957 h 0.856771 z"
       style="font-style:normal;font-variant:normal;font-weight:normal;font-stretch:normal;font-size:9.33333302px;font-family:AlternateGotNo3DOT, AlternateGotNo3DOT;-inkscape-font-specification:'AlternateGotNo3DOT, AlternateGotNo3DOT, Normal';font-variant-ligatures:normal;font-variant-caps:normal;font-variant-numeric:normal;font-feature-settings:normal;text-align:start;writing-mode:lr-tb;text-anchor:start"
       id="path5039"
       inkscape:connector-curvature="0" />
    <path
       d="m 40.026691,0 h -4.03776 v -5.0904946 h 0.856771 v 4.35221338 h 2.50651 V -5.0904946 h 0.856771 v 4.35221338 h 0.615234 V 1.2213541 h -0.797526 z"
       style="font-style:normal;font-variant:normal;font-weight:normal;font-stretch:normal;font-size:9.33333302px;font-family:AlternateGotNo3DOT, AlternateGotNo3DOT;-inkscape-font-specification:'AlternateGotNo3DOT, AlternateGotNo3DOT, Normal';font-variant-ligatures:normal;font-variant-caps:normal;font-variant-numeric:normal;font-feature-settings:normal;text-align:start;writing-mode:lr-tb;text-anchor:start"
       id="path5041"
       inkscape:connector-curvature="0" />
    <path
       d="M 46.292967,0 H 45.445311 V -3.8235676 L 42.779296,0 h -0.77474 v -5.0904946 h 0.847656 v 3.7688801 l 2.638672,-3.7688801 h 0.802083 z"
       style="font-style:normal;font-variant:normal;font-weight:normal;font-stretch:normal;font-size:9.33333302px;font-family:AlternateGotNo3DOT, AlternateGotNo3DOT;-inkscape-font-specification:'AlternateGotNo3DOT, AlternateGotNo3DOT, Normal';font-variant-ligatures:normal;font-variant-caps:normal;font-variant-numeric:normal;font-feature-settings:normal;text-align:start;writing-mode:lr-tb;text-anchor:start"
       id="path5043"
       inkscape:connector-curvature="0" />
    <path
       d="M 51.89388,0 H 51.037109 V -2.0188801 H 50.029948 L 48.453125,0 h -1.007161 l 1.713541,-2.1009114 q -0.660807,-0.1822916 -0.966146,-0.5559896 -0.305338,-0.3782551 -0.305338,-0.9889322 0,-0.405599 0.182291,-0.688151 0.182292,-0.2825521 0.460287,-0.4602865 0.273437,-0.173177 0.628906,-0.2324218 0.355469,-0.063802 0.77474,-0.063802 h 1.959635 z m -0.856771,-2.6933593 v -1.7135416 h -1.080078 q -0.350911,0 -0.505859,0.022787 -0.154948,0.022786 -0.33724,0.1230468 -0.177734,0.1002605 -0.264323,0.2734375 -0.08203,0.1686198 -0.08203,0.3691406 0,0.2506511 0.05013,0.405599 0.05469,0.1549479 0.21875,0.2916666 0.16862,0.1321615 0.410157,0.1822917 0.241536,0.045573 0.53776,0.045573 z"
       style="font-style:normal;font-variant:normal;font-weight:normal;font-stretch:normal;font-size:9.33333302px;font-family:AlternateGotNo3DOT, AlternateGotNo3DOT;-inkscape-font-specification:'AlternateGotNo3DOT, AlternateGotNo3DOT, Normal';font-variant-ligatures:normal;font-variant-caps:normal;font-variant-numeric:normal;font-feature-settings:normal;text-align:start;writing-mode:lr-tb;text-anchor:start"
       id="path5045"
       inkscape:connector-curvature="0" />
    <path
       d="m 61.199867,-2.5429687 q 0,1.2441406 -0.638021,1.96419268 -0.638021,0.72005206 -1.708984,0.72005206 -1.080078,0 -1.718099,-0.72005206 Q 56.5013,-1.2988281 56.5013,-2.5429687 q 0,-1.2441405 0.633463,-1.9641926 0.638021,-0.7246094 1.718099,-0.7246094 1.070963,0 1.708984,0.7246094 0.638021,0.7200521 0.638021,1.9641926 z m -0.884114,0 q 0,-0.9889322 -0.38737,-1.4674478 -0.38737,-0.4830729 -1.075521,-0.4830729 -0.697266,0 -1.084635,0.4830729 -0.382813,0.4785156 -0.382813,1.4674478 0,0.9570313 0.38737,1.453776 0.38737,0.49218751 1.080078,0.49218751 0.683594,0 1.070963,-0.48763021 0.391928,-0.4921875 0.391928,-1.4583333 z"
       style="font-style:normal;font-variant:normal;font-weight:normal;font-stretch:normal;font-size:9.33333302px;font-family:AlternateGotNo3DOT, AlternateGotNo3DOT;-inkscape-font-specification:'AlternateGotNo3DOT, AlternateGotNo3DOT, Normal';font-variant-ligatures:normal;font-variant-caps:normal;font-variant-numeric:normal;font-feature-settings:normal;text-align:start;writing-mode:lr-tb;text-anchor:start"
       id="path5047"
       inkscape:connector-curvature="0" />
    <path
       d="m 69.553385,-4.3385415 q 0.319011,0.3190104 0.483073,0.7747395 0.164063,0.4511719 0.164063,1.061849 0,1.1393228 -0.683594,1.89127594 -0.683594,0.7519531 -1.681641,0.7519531 -0.492187,0 -0.906901,-0.1640625 -0.414713,-0.16861978 -0.70638,-0.51497394 -0.364583,-0.43294269 -0.546875,-1.0891927 -0.177734,-0.6608072 -0.177734,-1.6087239 0,-0.3417968 0.0319,-0.6927083 0.0319,-0.3554687 0.145833,-0.8476562 0.09115,-0.4238281 0.264323,-0.8157552 0.177734,-0.3919271 0.419271,-0.6334635 0.328125,-0.3326823 0.861328,-0.5332031 0.53776,-0.2050781 1.421875,-0.2825521 0.360026,-0.031901 0.669922,-0.05013 0.309896,-0.022786 0.555989,-0.041016 V -6.34375 q -0.300781,0.018229 -0.597005,0.036458 -0.291666,0.018229 -0.583333,0.045573 -0.583333,0.05013 -1.057292,0.1914062 -0.469401,0.141276 -0.688151,0.3645833 -0.241536,0.2415365 -0.364583,0.6334635 -0.11849,0.3873698 -0.154948,0.7382813 0.341797,-0.2460938 0.747396,-0.4101563 0.410156,-0.1686197 0.870442,-0.1686197 0.428386,0 0.82487,0.141276 0.396485,0.141276 0.688151,0.4329427 z m -0.223307,1.8867187 q 0,-0.843099 -0.405599,-1.2578125 -0.405599,-0.4192708 -1.070963,-0.4192708 -0.396485,0 -0.761068,0.1276042 -0.364583,0.1230468 -0.692708,0.3326822 -0.0091,0.1139323 -0.01823,0.2688802 -0.0046,0.1503907 -0.0046,0.2779948 0,0.7929687 0.132162,1.2851562 0.132161,0.4921875 0.373697,0.7838542 0.209636,0.2460937 0.45573,0.35091141 0.246093,0.10026041 0.528645,0.10026041 0.688151,0 1.075521,-0.49674482 0.38737,-0.4967447 0.38737,-1.3535155 z"
       style="font-style:normal;font-variant:normal;font-weight:normal;font-stretch:normal;font-size:9.33333302px;font-family:AlternateGotNo3DOT, AlternateGotNo3DOT;-inkscape-font-specification:'AlternateGotNo3DOT, AlternateGotNo3DOT, Normal';font-variant-ligatures:normal;font-variant-caps:normal;font-variant-numeric:normal;font-feature-settings:normal;text-align:start;writing-mode:lr-tb;text-anchor:start"
       id="path5049"
       inkscape:connector-curvature="0" />
    <path
       d="M 75.842448,0 H 74.994792 V -3.8235676 L 72.328776,0 h -0.77474 v -5.0904946 h 0.847657 v 3.7688801 l 2.638671,-3.7688801 h 0.802084 z"
       style="font-style:normal;font-variant:normal;font-weight:normal;font-stretch:normal;font-size:9.33333302px;font-family:AlternateGotNo3DOT, AlternateGotNo3DOT;-inkscape-font-specification:'AlternateGotNo3DOT, AlternateGotNo3DOT, Normal';font-variant-ligatures:normal;font-variant-caps:normal;font-variant-numeric:normal;font-feature-settings:normal;text-align:start;writing-mode:lr-tb;text-anchor:start"
       id="path5051"
       inkscape:connector-curvature="0" />
    <path
       d="m 81.871742,-2.5429687 q 0,1.2441406 -0.638021,1.96419268 -0.638021,0.72005206 -1.708984,0.72005206 -1.080078,0 -1.718099,-0.72005206 -0.633463,-0.72005208 -0.633463,-1.96419268 0,-1.2441405 0.633463,-1.9641926 0.638021,-0.7246094 1.718099,-0.7246094 1.070963,0 1.708984,0.7246094 0.638021,0.7200521 0.638021,1.9641926 z m -0.884114,0 q 0,-0.9889322 -0.38737,-1.4674478 -0.38737,-0.4830729 -1.075521,-0.4830729 -0.697266,0 -1.084635,0.4830729 -0.382813,0.4785156 -0.382813,1.4674478 0,0.9570313 0.38737,1.453776 0.38737,0.49218751 1.080078,0.49218751 0.683594,0 1.070963,-0.48763021 0.391928,-0.4921875 0.391928,-1.4583333 z"
       style="font-style:normal;font-variant:normal;font-weight:normal;font-stretch:normal;font-size:9.33333302px;font-family:AlternateGotNo3DOT, AlternateGotNo3DOT;-inkscape-font-specification:'AlternateGotNo3DOT, AlternateGotNo3DOT, Normal';font-variant-ligatures:normal;font-variant-caps:normal;font-variant-numeric:normal;font-feature-settings:normal;text-align:start;writing-mode:lr-tb;text-anchor:start"
       id="path5053"
       inkscape:connector-curvature="0" />
    <path
       d="m 87.308594,0 h -0.856771 v -4.3704426 h -1.900391 q -0.01367,0.3782552 -0.02734,0.7291667 -0.01367,0.3509114 -0.02734,0.6334635 -0.0319,0.7610677 -0.104818,1.2167968 -0.07292,0.4511719 -0.191406,0.7519531 -0.109375,0.28255211 -0.246094,0.46028648 -0.132161,0.17317708 -0.287109,0.31445311 -0.154948,0.13671875 -0.346354,0.20507812 -0.186849,0.06835937 -0.410157,0.06835937 -0.07747,0 -0.227864,-0.00455729 Q 82.537109,0 82.491536,0 v -0.74739581 h 0.04557 q 0.03646,0 0.104818,0.004557 0.06836,0.004557 0.113932,0.004557 0.109375,0 0.223308,-0.031901 0.118489,-0.031901 0.20052,-0.11848957 0.232422,-0.22786452 0.373698,-0.77018222 0.141276,-0.5423177 0.186849,-1.5677083 0.01823,-0.3736979 0.0319,-0.8841145 0.01823,-0.514974 0.0319,-0.9798177 h 3.504558 z"
       style="font-style:normal;font-variant:normal;font-weight:normal;font-stretch:normal;font-size:9.33333302px;font-family:AlternateGotNo3DOT, AlternateGotNo3DOT;-inkscape-font-specification:'AlternateGotNo3DOT, AlternateGotNo3DOT, Normal';font-variant-ligatures:normal;font-variant-caps:normal;font-variant-numeric:normal;font-feature-settings:normal;text-align:start;writing-mode:lr-tb;text-anchor:start"
       id="path5055"
       inkscape:connector-curvature="0" />
    <path
       d="m 93.33789,-2.5429687 q 0,1.2441406 -0.63802,1.96419268 -0.638021,0.72005206 -1.708985,0.72005206 -1.080078,0 -1.718099,-0.72005206 -0.633463,-0.72005208 -0.633463,-1.96419268 0,-1.2441405 0.633463,-1.9641926 0.638021,-0.7246094 1.718099,-0.7246094 1.070964,0 1.708985,0.7246094 0.63802,0.7200521 0.63802,1.9641926 z m -0.884114,0 q 0,-0.9889322 -0.38737,-1.4674478 -0.38737,-0.4830729 -1.075521,-0.4830729 -0.697265,0 -1.084635,0.4830729 -0.382813,0.4785156 -0.382813,1.4674478 0,0.9570313 0.38737,1.453776 0.38737,0.49218751 1.080078,0.49218751 0.683594,0 1.070964,-0.48763021 0.391927,-0.4921875 0.391927,-1.4583333 z"
       style="font-style:normal;font-variant:normal;font-weight:normal;font-stretch:normal;font-size:9.33333302px;font-family:AlternateGotNo3DOT, AlternateGotNo3DOT;-inkscape-font-specification:'AlternateGotNo3DOT, AlternateGotNo3DOT, Normal';font-variant-ligatures:normal;font-variant-caps:normal;font-variant-numeric:normal;font-feature-settings:normal;text-align:start;writing-mode:lr-tb;text-anchor:start"
       id="path5057"
       inkscape:connector-curvature="0" />
    <path
       d="M 98.177729,-4.3385415 H 95.525385 V 0 h -0.85677 v -5.0904946 h 3.509114 z"
       style="font-style:normal;font-variant:normal;font-weight:normal;font-stretch:normal;font-size:9.33333302px;font-family:AlternateGotNo3DOT, AlternateGotNo3DOT;-inkscape-font-specification:'AlternateGotNo3DOT, AlternateGotNo3DOT, Normal';font-variant-ligatures:normal;font-variant-caps:normal;font-variant-numeric:normal;font-feature-settings:normal;text-align:start;writing-mode:lr-tb;text-anchor:start"
       id="path5059"
       inkscape:connector-curvature="0" />
    <path
       d="M 103.35026,0 H 102.5026 V -3.8235676 L 99.836588,0 h -0.774739 v -5.0904946 h 0.847656 v 3.7688801 l 2.638675,-3.7688801 h 0.80208 z"
       style="font-style:normal;font-variant:normal;font-weight:normal;font-stretch:normal;font-size:9.33333302px;font-family:AlternateGotNo3DOT, AlternateGotNo3DOT;-inkscape-font-specification:'AlternateGotNo3DOT, AlternateGotNo3DOT, Normal';font-variant-ligatures:normal;font-variant-caps:normal;font-variant-numeric:normal;font-feature-settings:normal;text-align:start;writing-mode:lr-tb;text-anchor:start"
       id="path5061"
       inkscape:connector-curvature="0" />
    <path
       d="m 109.00586,0 h -0.85677 v -1.9550781 q -0.41472,0.1276042 -0.79297,0.2050782 -0.37826,0.077474 -0.82487,0.077474 -0.82032,0 -1.25326,-0.4010416 -0.43294,-0.405599 -0.43294,-1.1666667 v -1.8502603 h 0.85677 v 1.4127604 q 0,0.2916666 0.0365,0.5240885 0.0365,0.2278645 0.15495,0.3964843 0.11849,0.1640625 0.33268,0.2506511 0.21419,0.086588 0.597,0.086588 0.31446,0 0.6836,-0.059245 0.36914,-0.063802 0.64258,-0.1458333 v -2.4654947 h 0.85677 z"
       style="font-style:normal;font-variant:normal;font-weight:normal;font-stretch:normal;font-size:9.33333302px;font-family:AlternateGotNo3DOT, AlternateGotNo3DOT;-inkscape-font-specification:'AlternateGotNo3DOT, AlternateGotNo3DOT, Normal';font-variant-ligatures:normal;font-variant-caps:normal;font-variant-numeric:normal;font-feature-settings:normal;text-align:start;writing-mode:lr-tb;text-anchor:start"
       id="path5063"
       inkscape:connector-curvature="0" />
    <path
       d="m 114.95312,-2.4563801 h -3.75065 q 0,0.469401 0.14127,0.8203124 0.14128,0.3463542 0.38737,0.5696615 0.23698,0.21874998 0.56055,0.32812498 0.32813,0.10937499 0.72005,0.10937499 0.51953,0 1.04362,-0.20507812 0.52865,-0.20963545 0.75196,-0.41015625 h 0.0456 v 0.93424478 q -0.43294,0.18229166 -0.88412,0.30533853 -0.45117,0.12304687 -0.94791,0.12304687 -1.26693,0 -1.97787,-0.68359373 -0.71093,-0.68815105 -0.71093,-1.95052075 0,-1.2486979 0.67903,-1.9824218 0.6836,-0.733724 1.79558,-0.733724 1.02994,0 1.58593,0.6015625 0.56055,0.6015625 0.56055,1.7089843 z m -0.83398,-0.65625 q -0.005,-0.6744791 -0.3418,-1.0436198 -0.33268,-0.3691406 -1.01628,-0.3691406 -0.68815,0 -1.0983,0.405599 -0.4056,0.4055989 -0.46029,1.0071614 z"
       style="font-style:normal;font-variant:normal;font-weight:normal;font-stretch:normal;font-size:9.33333302px;font-family:AlternateGotNo3DOT, AlternateGotNo3DOT;-inkscape-font-specification:'AlternateGotNo3DOT, AlternateGotNo3DOT, Normal';font-variant-ligatures:normal;font-variant-caps:normal;font-variant-numeric:normal;font-feature-settings:normal;text-align:start;writing-mode:lr-tb;text-anchor:start"
       id="path5065"
       inkscape:connector-curvature="0" />
    <path
       d="m 120.06185,-0.31901041 q -0.52409,0.24609375 -0.90235,0.33723958 -0.3737,0.09570312 -0.74739,0.09570312 -0.55599,0 -1.02084,-0.15950521 -0.46484,-0.16406249 -0.79752,-0.49218748 -0.33268,-0.32812499 -0.51953,-0.8294271 -0.1823,-0.501302 -0.1823,-1.1712239 0,-1.2167968 0.67448,-1.9414062 0.67448,-0.7291666 1.84571,-0.7291666 0.44205,0 0.86588,0.1230469 0.42839,0.1230468 0.78386,0.3007812 v 0.9524739 h -0.0501 q -0.42383,-0.3235677 -0.83855,-0.4785156 -0.41015,-0.1549479 -0.79752,-0.1549479 -0.76107,0 -1.18034,0.5104167 -0.41471,0.5104166 -0.41471,1.4173176 0,0.906901 0.41471,1.4082031 0.41471,0.50130207 1.18034,0.50130207 0.26888,0 0.5332,-0.0683594 0.26888,-0.0683594 0.48763,-0.17773437 0.17318,-0.0865885 0.35547,-0.2050781 0.18685,-0.1230469 0.25977,-0.1822916 h 0.0501 z"
       style="font-style:normal;font-variant:normal;font-weight:normal;font-stretch:normal;font-size:9.33333302px;font-family:AlternateGotNo3DOT, AlternateGotNo3DOT;-inkscape-font-specification:'AlternateGotNo3DOT, AlternateGotNo3DOT, Normal';font-variant-ligatures:normal;font-variant-caps:normal;font-variant-numeric:normal;font-feature-settings:normal;text-align:start;writing-mode:lr-tb;text-anchor:start"
       id="path5067"
       inkscape:connector-curvature="0" />
    <path
       d="m 125.84049,0 h -1.12109 l -2.11459,-2.3333333 h -0.46484 V 0 h -0.85677 v -5.0904946 h 0.85677 v 2.1966145 q 0.42383,0 0.68359,-0.1503906 0.25977,-0.1549479 0.44206,-0.4921875 0.0638,-0.1230469 0.12305,-0.2597656 0.0638,-0.1412761 0.12304,-0.2688802 0.23698,-0.514974 0.59245,-0.7701823 0.35547,-0.2552083 1.02083,-0.2552083 h 0.39193 v 0.7382812 h -0.37825 q -0.36003,0 -0.56511,0.1549479 -0.20052,0.1503906 -0.36458,0.5332031 -0.18229,0.4283854 -0.38737,0.6425781 -0.20052,0.2096354 -0.42839,0.3190104 z"
       style="font-style:normal;font-variant:normal;font-weight:normal;font-stretch:normal;font-size:9.33333302px;font-family:AlternateGotNo3DOT, AlternateGotNo3DOT;-inkscape-font-specification:'AlternateGotNo3DOT, AlternateGotNo3DOT, Normal';font-variant-ligatures:normal;font-variant-caps:normal;font-variant-numeric:normal;font-feature-settings:normal;text-align:start;writing-mode:lr-tb;text-anchor:start"
       id="path5069"
       inkscape:connector-curvature="0" />
    <path
       d="m 131.10872,-2.5429687 q 0,1.2441406 -0.63802,1.96419268 -0.63802,0.72005206 -1.70899,0.72005206 -1.08007,0 -1.7181,-0.72005206 -0.63346,-0.72005208 -0.63346,-1.96419268 0,-1.2441405 0.63346,-1.9641926 0.63803,-0.7246094 1.7181,-0.7246094 1.07097,0 1.70899,0.7246094 0.63802,0.7200521 0.63802,1.9641926 z m -0.88412,0 q 0,-0.9889322 -0.38737,-1.4674478 -0.38737,-0.4830729 -1.07552,-0.4830729 -0.69726,0 -1.08463,0.4830729 -0.38281,0.4785156 -0.38281,1.4674478 0,0.9570313 0.38737,1.453776 0.38737,0.49218751 1.08007,0.49218751 0.6836,0 1.07097,-0.48763021 0.39192,-0.4921875 0.39192,-1.4583333 z"
       style="font-style:normal;font-variant:normal;font-weight:normal;font-stretch:normal;font-size:9.33333302px;font-family:AlternateGotNo3DOT, AlternateGotNo3DOT;-inkscape-font-specification:'AlternateGotNo3DOT, AlternateGotNo3DOT, Normal';font-variant-ligatures:normal;font-variant-caps:normal;font-variant-numeric:normal;font-feature-settings:normal;text-align:start;writing-mode:lr-tb;text-anchor:start"
       id="path5071"
       inkscape:connector-curvature="0" />
    <path
       d="m 137.25194,0 h -0.84765 v -4.0195311 l -1.26693,2.6158853 h -0.63802 l -1.25781,-2.6158853 V 0 h -0.80209 v -5.0904946 h 1.03451 l 1.38541,2.8483072 1.33985,-2.8483072 h 1.05273 z"
       style="font-style:normal;font-variant:normal;font-weight:normal;font-stretch:normal;font-size:9.33333302px;font-family:AlternateGotNo3DOT, AlternateGotNo3DOT;-inkscape-font-specification:'AlternateGotNo3DOT, AlternateGotNo3DOT, Normal';font-variant-ligatures:normal;font-variant-caps:normal;font-variant-numeric:normal;font-feature-settings:normal;text-align:start;writing-mode:lr-tb;text-anchor:start"
       id="path5073"
       inkscape:connector-curvature="0" />
    <path
       d="m 146.70832,-2.6067707 q 0,0.6197916 -0.17773,1.1347655 -0.17774,0.51041669 -0.5013,0.86588543 -0.30078,0.33723957 -0.71094,0.52408852 -0.4056,0.18229166 -0.86133,0.18229166 -0.39648,0 -0.72005,-0.08658854 -0.31901,-0.08658853 -0.65169,-0.26888019 V 1.8776041 h -0.85677 v -6.9680987 h 0.85677 v 0.5332031 q 0.34179,-0.2871094 0.76562,-0.4785156 0.42839,-0.1959636 0.91146,-0.1959636 0.92057,0 1.43099,0.6972656 0.51497,0.6927084 0.51497,1.9277344 z m -0.88411,0.022786 q 0,-0.9205729 -0.31445,-1.376302 -0.31446,-0.4557292 -0.96615,-0.4557292 -0.36914,0 -0.74284,0.1595052 -0.3737,0.1595052 -0.71549,0.4192708 v 2.88476557 q 0.36458,0.1640625 0.62435,0.22330729 0.26432,0.0592448 0.597,0.0592448 0.7155,0 1.11654,-0.48307296 0.40104,-0.4830729 0.40104,-1.4309895 z"
       style="font-style:normal;font-variant:normal;font-weight:normal;font-stretch:normal;font-size:9.33333302px;font-family:AlternateGotNo3DOT, AlternateGotNo3DOT;-inkscape-font-specification:'AlternateGotNo3DOT, AlternateGotNo3DOT, Normal';font-variant-ligatures:normal;font-variant-caps:normal;font-variant-numeric:normal;font-feature-settings:normal;text-align:start;writing-mode:lr-tb;text-anchor:start"
       id="path5075"
       inkscape:connector-curvature="0" />
    <path
       d="m 151.99934,0 h -0.85221 v -0.54231769 q -0.11393,0.077474 -0.3099,0.21874999 -0.1914,0.13671875 -0.37369,0.21875 Q 150.24934,0 149.97135,0.06835937 q -0.278,0.07291667 -0.65169,0.07291667 -0.68815,0 -1.16667,-0.45572915 -0.47852,-0.45572916 -0.47852,-1.16210929 0,-0.5787761 0.2461,-0.9342448 0.25065,-0.360026 0.71094,-0.5651042 0.46484,-0.2050781 1.11653,-0.2779947 0.65169,-0.072917 1.39909,-0.109375 v -0.1321615 q 0,-0.2916666 -0.10482,-0.4830729 -0.10026,-0.1914062 -0.29166,-0.3007812 -0.1823,-0.1048177 -0.4375,-0.1412761 -0.25521,-0.036458 -0.53321,-0.036458 -0.33724,0 -0.75195,0.091146 -0.41471,0.086589 -0.85677,0.2552084 h -0.0456 v -0.8704427 q 0.25065,-0.068359 0.72461,-0.1503906 0.47395,-0.082031 0.93424,-0.082031 0.53776,0 0.93424,0.091146 0.40105,0.086589 0.69271,0.3007813 0.28711,0.2096354 0.4375,0.5423177 0.15039,0.3326823 0.15039,0.8248697 z m -0.85221,-1.2532552 v -1.4173176 q -0.39193,0.022786 -0.92513,0.068359 -0.52865,0.045573 -0.83854,0.1321615 -0.36914,0.1048177 -0.59701,0.328125 -0.22786,0.21875 -0.22786,0.6061198 0,0.4374999 0.26432,0.66080723 0.26432,0.21874999 0.80664,0.21874999 0.45117,0 0.82487,-0.17317708 0.3737,-0.17773434 0.69271,-0.42382784 z"
       style="font-style:normal;font-variant:normal;font-weight:normal;font-stretch:normal;font-size:9.33333302px;font-family:AlternateGotNo3DOT, AlternateGotNo3DOT;-inkscape-font-specification:'AlternateGotNo3DOT, AlternateGotNo3DOT, Normal';font-variant-ligatures:normal;font-variant-caps:normal;font-variant-numeric:normal;font-feature-settings:normal;text-align:start;writing-mode:lr-tb;text-anchor:start"
       id="path5077"
       inkscape:connector-curvature="0" />
    <path
       d="m 157.19921,-1.4264322 q 0,0.42838536 -0.20052,0.72460931 -0.19597,0.29622395 -0.50586,0.47851561 -0.3099,0.17773436 -0.6836,0.25976561 -0.37369,0.08203125 -0.74739,0.08203125 -0.52865,0 -1.00716,-0.10026041 -0.47852,-0.10026042 -0.94336,-0.30989583 V -1.2304687 h 0.0592 q 0.33269,0.29166665 0.84766,0.45117185 0.51497,0.1595052 0.99805,0.1595052 0.22786,0 0.4694,-0.0410156 0.24153,-0.0455729 0.41927,-0.14127604 0.1914,-0.10937499 0.30534,-0.25976561 0.11393,-0.1549479 0.11393,-0.4192708 0,-0.2734375 -0.11393,-0.4375 -0.10938,-0.1640625 -0.30079,-0.2460938 -0.18684,-0.082031 -0.45117,-0.1002604 -0.26432,-0.018229 -0.48307,-0.018229 h -0.74284 v -0.7382813 h 0.51498 q 0.18229,0 0.47395,-0.013672 0.29623,-0.013672 0.47852,-0.072917 0.23698,-0.077474 0.3737,-0.21875 0.14127,-0.141276 0.14127,-0.4511719 0,-0.2141927 -0.10937,-0.3509114 -0.10938,-0.141276 -0.27344,-0.21875 -0.16862,-0.077474 -0.37825,-0.1048177 -0.20508,-0.027344 -0.36459,-0.027344 -0.46484,0 -0.91601,0.1276042 -0.44662,0.1230469 -0.75196,0.360026 h -0.0592 v -0.9433593 q 0.37825,-0.1230469 0.8112,-0.2005208 0.43294,-0.077474 0.86588,-0.077474 0.35547,0 0.70638,0.063802 0.35547,0.063802 0.66081,0.21875 0.30078,0.1549479 0.49219,0.4238281 0.1914,0.2643229 0.1914,0.65625 0,0.4010416 -0.25065,0.7063802 -0.24609,0.3007812 -0.66536,0.4329427 v 0.031901 q 0.4694,0.1139323 0.74739,0.4283854 0.278,0.3098958 0.278,0.8248705 z"
       style="font-style:normal;font-variant:normal;font-weight:normal;font-stretch:normal;font-size:9.33333302px;font-family:AlternateGotNo3DOT, AlternateGotNo3DOT;-inkscape-font-specification:'AlternateGotNo3DOT, AlternateGotNo3DOT, Normal';font-variant-ligatures:normal;font-variant-caps:normal;font-variant-numeric:normal;font-feature-settings:normal;text-align:start;writing-mode:lr-tb;text-anchor:start"
       id="path5079"
       inkscape:connector-curvature="0" />
    <path
       d="m 162.82292,0 h -0.85677 v -2.2923176 h -2.54753 V 0 h -0.85677 v -5.0904946 h 0.85677 v 2.0598957 h 2.54753 v -2.0598957 h 0.85677 z"
       style="font-style:normal;font-variant:normal;font-weight:normal;font-stretch:normal;font-size:9.33333302px;font-family:AlternateGotNo3DOT, AlternateGotNo3DOT;-inkscape-font-specification:'AlternateGotNo3DOT, AlternateGotNo3DOT, Normal';font-variant-ligatures:normal;font-variant-caps:normal;font-variant-numeric:normal;font-feature-settings:normal;text-align:start;writing-mode:lr-tb;text-anchor:start"
       id="path5081"
       inkscape:connector-curvature="0" />
    <path
       d="m 168.84309,-2.5429687 q 0,1.2441406 -0.63802,1.96419268 -0.63802,0.72005206 -1.70898,0.72005206 -1.08008,0 -1.7181,-0.72005206 -0.63346,-0.72005208 -0.63346,-1.96419268 0,-1.2441405 0.63346,-1.9641926 0.63802,-0.7246094 1.7181,-0.7246094 1.07096,0 1.70898,0.7246094 0.63802,0.7200521 0.63802,1.9641926 z m -0.88411,0 q 0,-0.9889322 -0.38737,-1.4674478 -0.38737,-0.4830729 -1.07552,-0.4830729 -0.69727,0 -1.08464,0.4830729 -0.38281,0.4785156 -0.38281,1.4674478 0,0.9570313 0.38737,1.453776 0.38737,0.49218751 1.08008,0.49218751 0.68359,0 1.07096,-0.48763021 0.39193,-0.4921875 0.39193,-1.4583333 z"
       style="font-style:normal;font-variant:normal;font-weight:normal;font-stretch:normal;font-size:9.33333302px;font-family:AlternateGotNo3DOT, AlternateGotNo3DOT;-inkscape-font-specification:'AlternateGotNo3DOT, AlternateGotNo3DOT, Normal';font-variant-ligatures:normal;font-variant-caps:normal;font-variant-numeric:normal;font-feature-settings:normal;text-align:start;writing-mode:lr-tb;text-anchor:start"
       id="path5083"
       inkscape:connector-curvature="0" />
    <path
       d="m 174.51236,-2.5429687 q 0,1.2441406 -0.63802,1.96419268 -0.63802,0.72005206 -1.70899,0.72005206 -1.08007,0 -1.71809,-0.72005206 -0.63347,-0.72005208 -0.63347,-1.96419268 0,-1.2441405 0.63347,-1.9641926 0.63802,-0.7246094 1.71809,-0.7246094 1.07097,0 1.70899,0.7246094 0.63802,0.7200521 0.63802,1.9641926 z m -0.88412,0 q 0,-0.9889322 -0.38736,-1.4674478 -0.38737,-0.4830729 -1.07553,-0.4830729 -0.69726,0 -1.08463,0.4830729 -0.38281,0.4785156 -0.38281,1.4674478 0,0.9570313 0.38737,1.453776 0.38737,0.49218751 1.08007,0.49218751 0.6836,0 1.07097,-0.48763021 0.39192,-0.4921875 0.39192,-1.4583333 z"
       style="font-style:normal;font-variant:normal;font-weight:normal;font-stretch:normal;font-size:9.33333302px;font-family:AlternateGotNo3DOT, AlternateGotNo3DOT;-inkscape-font-specification:'AlternateGotNo3DOT, AlternateGotNo3DOT, Normal';font-variant-ligatures:normal;font-variant-caps:normal;font-variant-numeric:normal;font-feature-settings:normal;text-align:start;writing-mode:lr-tb;text-anchor:start"
       id="path5085"
       inkscape:connector-curvature="0" />
    <path
       d="m 179.58464,-4.3385415 q 0.31901,0.3190104 0.48307,0.7747395 0.16406,0.4511719 0.16406,1.061849 0,1.1393228 -0.68359,1.89127594 -0.6836,0.7519531 -1.68164,0.7519531 -0.49219,0 -0.9069,-0.1640625 -0.41472,-0.16861978 -0.70638,-0.51497394 -0.36459,-0.43294269 -0.54688,-1.0891927 -0.17773,-0.6608072 -0.17773,-1.6087239 0,-0.3417968 0.0319,-0.6927083 0.0319,-0.3554687 0.14583,-0.8476562 0.0911,-0.4238281 0.26432,-0.8157552 0.17774,-0.3919271 0.41927,-0.6334635 0.32813,-0.3326823 0.86133,-0.5332031 0.53776,-0.2050781 1.42188,-0.2825521 0.36002,-0.031901 0.66992,-0.05013 0.30989,-0.022786 0.55599,-0.041016 V -6.34375 q -0.30078,0.018229 -0.59701,0.036458 -0.29166,0.018229 -0.58333,0.045573 -0.58333,0.05013 -1.05729,0.1914062 -0.4694,0.141276 -0.68815,0.3645833 -0.24154,0.2415365 -0.36459,0.6334635 -0.11849,0.3873698 -0.15494,0.7382813 0.34179,-0.2460938 0.74739,-0.4101563 0.41016,-0.1686197 0.87044,-0.1686197 0.42839,0 0.82487,0.141276 0.39649,0.141276 0.68816,0.4329432 z m -0.22331,1.8867187 q 0,-0.843099 -0.4056,-1.2578125 -0.4056,-0.4192708 -1.07096,-0.4192708 -0.39649,0 -0.76107,0.1276042 -0.36459,0.1230468 -0.69271,0.3326822 -0.009,0.1139323 -0.0182,0.2688802 -0.005,0.1503907 -0.005,0.2779948 0,0.7929687 0.13216,1.2851562 0.13217,0.4921875 0.3737,0.7838542 0.20964,0.2460937 0.45573,0.35091141 0.2461,0.10026041 0.52865,0.10026041 0.68815,0 1.07552,-0.49674482 0.38737,-0.4967447 0.38737,-1.3535155 z"
       style="font-style:normal;font-variant:normal;font-weight:normal;font-stretch:normal;font-size:9.33333302px;font-family:AlternateGotNo3DOT, AlternateGotNo3DOT;-inkscape-font-specification:'AlternateGotNo3DOT, AlternateGotNo3DOT, Normal';font-variant-ligatures:normal;font-variant-caps:normal;font-variant-numeric:normal;font-feature-settings:normal;text-align:start;writing-mode:lr-tb;text-anchor:start"
       id="path5087"
       inkscape:connector-curvature="0" />
    <path
       d="m 186.0651,-2.6067707 q 0,0.6197916 -0.17773,1.1347655 -0.17773,0.51041669 -0.5013,0.86588543 -0.30078,0.33723957 -0.71094,0.52408852 -0.4056,0.18229166 -0.86133,0.18229166 -0.39648,0 -0.72005,-0.08658854 -0.31901,-0.08658853 -0.65169,-0.26888019 V 1.8776041 h -0.85677 v -6.9680987 h 0.85677 v 0.5332031 q 0.34179,-0.2871094 0.76562,-0.4785156 0.42839,-0.1959636 0.91146,-0.1959636 0.92057,0 1.43099,0.6972656 0.51497,0.6927084 0.51497,1.9277344 z m -0.88411,0.022786 q 0,-0.9205729 -0.31445,-1.376302 -0.31446,-0.4557292 -0.96615,-0.4557292 -0.36914,0 -0.74284,0.1595052 -0.3737,0.1595052 -0.71549,0.4192708 v 2.88476557 q 0.36458,0.1640625 0.62435,0.22330729 0.26432,0.0592448 0.597,0.0592448 0.7155,0 1.11654,-0.48307296 0.40104,-0.4830729 0.40104,-1.4309895 z"
       style="font-style:normal;font-variant:normal;font-weight:normal;font-stretch:normal;font-size:9.33333302px;font-family:AlternateGotNo3DOT, AlternateGotNo3DOT;-inkscape-font-specification:'AlternateGotNo3DOT, AlternateGotNo3DOT, Normal';font-variant-ligatures:normal;font-variant-caps:normal;font-variant-numeric:normal;font-feature-settings:normal;text-align:start;writing-mode:lr-tb;text-anchor:start"
       id="path5089"
       inkscape:connector-curvature="0" />
    <path
       d="m 191.35611,0 h -0.85221 v -0.54231769 q -0.11394,0.077474 -0.3099,0.21874999 -0.19141,0.13671875 -0.3737,0.21875 Q 189.60611,0 189.32811,0.06835937 q -0.27799,0.07291667 -0.65169,0.07291667 -0.68815,0 -1.16666,-0.45572915 -0.47852,-0.45572916 -0.47852,-1.16210929 0,-0.5787761 0.24609,-0.9342448 0.25065,-0.360026 0.71094,-0.5651042 0.46484,-0.2050781 1.11654,-0.2779947 0.65169,-0.072917 1.39909,-0.109375 v -0.1321615 q 0,-0.2916666 -0.10482,-0.4830729 -0.10026,-0.1914062 -0.29167,-0.3007812 -0.18229,-0.1048177 -0.4375,-0.1412761 -0.25521,-0.036458 -0.5332,-0.036458 -0.33724,0 -0.75195,0.091146 -0.41472,0.086589 -0.85678,0.2552084 h -0.0456 v -0.8704427 q 0.25065,-0.068359 0.72461,-0.1503906 0.47396,-0.082031 0.93425,-0.082031 0.53776,0 0.93424,0.091146 0.40104,0.086589 0.69271,0.3007813 0.28711,0.2096354 0.4375,0.5423177 0.15039,0.3326823 0.15039,0.8248697 z m -0.85221,-1.2532552 v -1.4173176 q -0.39193,0.022786 -0.92513,0.068359 -0.52865,0.045573 -0.83855,0.1321615 -0.36914,0.1048177 -0.597,0.328125 -0.22787,0.21875 -0.22787,0.6061198 0,0.4374999 0.26433,0.66080723 0.26432,0.21874999 0.80664,0.21874999 0.45117,0 0.82487,-0.17317708 0.3737,-0.17773434 0.69271,-0.42382784 z"
       style="font-style:normal;font-variant:normal;font-weight:normal;font-stretch:normal;font-size:9.33333302px;font-family:AlternateGotNo3DOT, AlternateGotNo3DOT;-inkscape-font-specification:'AlternateGotNo3DOT, AlternateGotNo3DOT, Normal';font-variant-ligatures:normal;font-variant-caps:normal;font-variant-numeric:normal;font-feature-settings:normal;text-align:start;writing-mode:lr-tb;text-anchor:start"
       id="path5091"
       inkscape:connector-curvature="0" />
    <path
       d="m 196.55599,-1.4264322 q 0,0.42838536 -0.20052,0.72460931 -0.19596,0.29622395 -0.50586,0.47851561 -0.3099,0.17773436 -0.68359,0.25976561 -0.3737,0.08203125 -0.7474,0.08203125 -0.52865,0 -1.00716,-0.10026041 -0.47852,-0.10026042 -0.94336,-0.30989583 V -1.2304687 h 0.0592 q 0.33269,0.29166665 0.84766,0.45117185 0.51497,0.1595052 0.99805,0.1595052 0.22786,0 0.4694,-0.0410156 0.24153,-0.0455729 0.41927,-0.14127604 0.1914,-0.10937499 0.30534,-0.25976561 0.11393,-0.1549479 0.11393,-0.4192708 0,-0.2734375 -0.11393,-0.4375 -0.10938,-0.1640625 -0.30078,-0.2460938 -0.18685,-0.082031 -0.45118,-0.1002604 -0.26432,-0.018229 -0.48307,-0.018229 h -0.74284 v -0.7382813 h 0.51498 q 0.18229,0 0.47395,-0.013672 0.29623,-0.013672 0.47852,-0.072917 0.23698,-0.077474 0.3737,-0.21875 0.14127,-0.141276 0.14127,-0.4511719 0,-0.2141927 -0.10937,-0.3509114 -0.10938,-0.141276 -0.27344,-0.21875 -0.16862,-0.077474 -0.37825,-0.1048177 -0.20508,-0.027344 -0.36459,-0.027344 -0.46484,0 -0.91601,0.1276042 -0.44662,0.1230469 -0.75196,0.360026 h -0.0592 v -0.9433593 q 0.37826,-0.1230469 0.8112,-0.2005208 0.43294,-0.077474 0.86588,-0.077474 0.35547,0 0.70638,0.063802 0.35547,0.063802 0.66081,0.21875 0.30078,0.1549479 0.49219,0.4238281 0.1914,0.2643229 0.1914,0.65625 0,0.4010416 -0.25065,0.7063802 -0.24609,0.3007812 -0.66536,0.4329427 v 0.031901 q 0.4694,0.1139323 0.74739,0.4283854 0.278,0.3098958 0.278,0.8248705 z"
       style="font-style:normal;font-variant:normal;font-weight:normal;font-stretch:normal;font-size:9.33333302px;font-family:AlternateGotNo3DOT, AlternateGotNo3DOT;-inkscape-font-specification:'AlternateGotNo3DOT, AlternateGotNo3DOT, Normal';font-variant-ligatures:normal;font-variant-caps:normal;font-variant-numeric:normal;font-feature-settings:normal;text-align:start;writing-mode:lr-tb;text-anchor:start"
       id="path5093"
       inkscape:connector-curvature="0" />
    <path
       d="m 202.20703,0 h -0.84766 V -3.8235676 L 198.69335,0 h -0.77474 v -5.0904946 h 0.84766 v 3.7688801 l 2.63867,-3.7688801 h 0.80209 z"
       style="font-style:normal;font-variant:normal;font-weight:normal;font-stretch:normal;font-size:9.33333302px;font-family:AlternateGotNo3DOT, AlternateGotNo3DOT;-inkscape-font-specification:'AlternateGotNo3DOT, AlternateGotNo3DOT, Normal';font-variant-ligatures:normal;font-variant-caps:normal;font-variant-numeric:normal;font-feature-settings:normal;text-align:start;writing-mode:lr-tb;text-anchor:start"
       id="path5095"
       inkscape:connector-curvature="0" />
    <path
       d="m 208.1862,0 h -0.84766 V -3.8235676 L 204.67253,0 h -0.77474 v -5.0904946 h 0.84765 v 3.7688801 l 2.63867,-3.7688801 h 0.80209 z"
       style="font-style:normal;font-variant:normal;font-weight:normal;font-stretch:normal;font-size:9.33333302px;font-family:AlternateGotNo3DOT, AlternateGotNo3DOT;-inkscape-font-specification:'AlternateGotNo3DOT, AlternateGotNo3DOT, Normal';font-variant-ligatures:normal;font-variant-caps:normal;font-variant-numeric:normal;font-feature-settings:normal;text-align:start;writing-mode:lr-tb;text-anchor:start"
       id="path5097"
       inkscape:connector-curvature="0" />
  </g>
  <path
     class="cls-3"
     d="M 24.7,50.97 V 46.2 A 20.57,20.57 0 0 0 45.08,25.42 20.57,20.57 0 0 0 24.74,4.64 20.44,20.44 0 0 0 5.05,20.23 l -0.07,0.28 -3,2.65 L 0.54,19.6 0.66,19.07 A 25,25 0 0 1 24.74,0 c 13.74,0 24.88,11.39 24.88,25.42 0,14.03 -11.19,25.55 -24.92,25.55 z"
     id="path4019"
     inkscape:connector-curvature="0"
     style="fill:#cc0000;fill-rule:evenodd" />
  <polygon
     class="cls-4"
     points="37.67,14.18 37.67,12.58 39.25,12.66 40.67,12.88 41.11,14.38 39.57,14.24 "
     id="polygon4021"
     style="fill:#0071b8;fill-rule:evenodd"
     transform="translate(-12.68,-6.95)" />
  <path
     class="cls-4"
     d="m 33.1,7.97 -1.84,-0.28 -2,-0.18 -0.13,-0.52 -0.31,-0.94 1.55,0.39 c 0.6,0.19 1.2,0.41 1.78,0.65 l 0.77,0.37 z"
     id="path4023"
     inkscape:connector-curvature="0"
     style="fill:#0071b8;fill-rule:evenodd" />
  <polygon
     class="cls-4"
     points="37.67,16.79 37.67,14.98 38.94,15.02 41.35,15.24 41.78,17.06 39.99,16.87 "
     id="polygon4025"
     style="fill:#0071b8;fill-rule:evenodd"
     transform="translate(-12.68,-6.95)" />
  <polygon
     class="cls-4"
     points="44.34,17.33 42.58,17.14 42.13,15.31 43.34,15.42 46.08,15.83 46.5,17.17 46.65,17.74 "
     id="polygon4027"
     style="fill:#0071b8;fill-rule:evenodd"
     transform="translate(-12.68,-6.95)" />
  <polygon
     class="cls-4"
     points="50.37,18.49 48.76,18.1 47.43,17.87 46.82,15.94 47.83,16.1 48.66,16.26 49.63,16.99 50.11,17.43 "
     id="polygon4029"
     style="fill:#0071b8;fill-rule:evenodd"
     transform="translate(-12.68,-6.95)" />
  <polygon
     class="cls-4"
     points="40.28,20 37.67,19.91 37.67,17.51 39.08,17.57 41.98,17.87 42.27,19.13 42.46,20.21 "
     id="polygon4031"
     style="fill:#0071b8;fill-rule:evenodd"
     transform="translate(-12.68,-6.95)" />
  <polygon
     class="cls-4"
     points="47.41,20.86 44.61,20.42 43.23,20.29 42.88,18.32 42.79,17.96 43.47,18.03 46.89,18.63 47.04,19.17 "
     id="polygon4033"
     style="fill:#0071b8;fill-rule:evenodd"
     transform="translate(-12.68,-6.95)" />
  <polygon
     class="cls-4"
     points="49,21.12 48.19,20.99 47.67,18.76 47.95,18.81 50.6,19.44 50.84,20.47 51.01,21.56 "
     id="polygon4035"
     style="fill:#0071b8;fill-rule:evenodd"
     transform="translate(-12.68,-6.95)" />
  <polygon
     class="cls-4"
     points="53.61,22.15 53.45,22.1 51.66,21.7 51.6,21.33 51.19,19.58 52.47,19.89 53.38,21.11 53.49,21.29 "
     id="polygon4037"
     style="fill:#0071b8;fill-rule:evenodd"
     transform="translate(-12.68,-6.95)" />
  <polygon
     class="cls-4"
     points="39.98,20.9 40.25,20.92 42.61,21.14 42.97,23.26 43.14,24.93 42.98,24.92 41.88,24.87 41.63,24.86 41.35,24.85 37.73,24.79 37.67,24.79 37.67,20.82 "
     id="polygon4039"
     style="fill:#0071b8;fill-rule:evenodd"
     transform="translate(-12.68,-6.95)" />
  <polygon
     class="cls-4"
     points="44.26,21.3 44.67,21.36 47.58,21.81 47.83,23.22 48.08,25.25 47.23,25.18 46.14,25.09 45.65,25.06 45.08,25.02 43.9,24.96 43.66,22.72 43.39,21.22 "
     id="polygon4041"
     style="fill:#0071b8;fill-rule:evenodd"
     transform="translate(-12.68,-6.95)" />
  <polygon
     class="cls-4"
     points="49.09,22.06 51.16,22.5 51.32,23.54 51.5,25.59 51.34,25.57 50.41,25.46 49.68,25.4 48.89,25.31 48.87,25.03 48.39,21.93 48.6,21.97 "
     id="polygon4043"
     style="fill:#0071b8;fill-rule:evenodd"
     transform="translate(-12.68,-6.95)" />
  <polygon
     class="cls-4"
     points="53.75,23.09 53.93,24.41 54.04,25.9 53.75,25.87 52.54,25.7 52.2,25.67 52.02,23.91 51.82,22.65 53.03,22.91 53.54,23.03 "
     id="polygon4045"
     style="fill:#0071b8;fill-rule:evenodd"
     transform="translate(-12.68,-6.95)" />
  <polygon
     class="cls-4"
     points="55.4,26.09 54.73,25.99 54.67,25.19 54.4,23.27 54.65,23.33 55.36,24.84 55.78,26.14 "
     id="polygon4047"
     style="fill:#0071b8;fill-rule:evenodd"
     transform="translate(-12.68,-6.95)" />
  <path
     class="cls-4"
     d="m 42.13,24.73 v -0.17 c 0.06,-1.42 0.06,-2.83 0,-4.23 v -0.47 l 1.29,0.21 v 0.08 a 20.67,20.67 0 0 1 0.46,2.37 l 0.14,2.21 z"
     id="path4049"
     inkscape:connector-curvature="0"
     style="fill:#0071b8;fill-rule:evenodd" />
  <path
     class="cls-4"
     d="m 42.13,25.57 v 0.17 c 0.06,1.42 0.06,2.83 0,4.23 v 0.48 l 1.29,-0.22 v -0.08 a 20.26,20.26 0 0 0 0.46,-2.37 l 0.14,-2.21 z"
     id="path4051"
     inkscape:connector-curvature="0"
     style="fill:#0071b8;fill-rule:evenodd" />
  <path
     class="cls-4"
     d="M 39.7,24.73 V 22.2 l -0.12,-2.61 1.79,0.19 0.05,1.86 c 0,0.71 0,1.42 -0.05,2.13 l -0.06,1 z"
     id="path4053"
     inkscape:connector-curvature="0"
     style="fill:#0071b8;fill-rule:evenodd" />
  <path
     class="cls-4"
     d="m 36.46,24.73 v -3.21 l -0.14,-2.27 2.61,0.27 v 0.18 c 0,1.05 0.07,2.11 0,3.17 l -0.09,1.86 z"
     id="path4055"
     inkscape:connector-curvature="0"
     style="fill:#0071b8;fill-rule:evenodd" />
  <path
     class="cls-4"
     d="m 31.59,24.73 v -0.12 c 0,-1.48 0,-2.95 -0.15,-4.43 l -0.12,-1.29 2.15,0.08 2,0.2 0.1,1.21 c 0.07,1.38 0.09,2.78 0,4.17 v 0.18 z"
     id="path4057"
     inkscape:connector-curvature="0"
     style="fill:#0071b8;fill-rule:evenodd" />
  <path
     class="cls-4"
     d="m 39.7,25.56 v 2.53 l -0.12,2.61 1.79,-0.19 0.05,-1.86 c 0,-0.71 0,-1.42 -0.05,-2.13 l -0.06,-1 z"
     id="path4059"
     inkscape:connector-curvature="0"
     style="fill:#0071b8;fill-rule:evenodd" />
  <path
     class="cls-4"
     d="m 36.46,25.56 v 3.21 l -0.14,2.28 2.61,-0.27 V 30.6 c 0,-1.05 0.07,-2.11 0,-3.17 l -0.09,-1.86 z"
     id="path4061"
     inkscape:connector-curvature="0"
     style="fill:#0071b8;fill-rule:evenodd" />
  <path
     class="cls-4"
     d="m 31.59,25.56 v 0.12 c 0,1.48 0,3 -0.15,4.43 l -0.12,1.29 2.15,-0.08 2,-0.2 0.1,-1.21 c 0.07,-1.38 0.09,-2.78 0,-4.18 v -0.17 z"
     id="path4063"
     inkscape:connector-curvature="0"
     style="fill:#0071b8;fill-rule:evenodd" />
  <path
     class="cls-4"
     d="m 24.99,24.73 v -6.06 l 5.56,0.19 0.17,1.58 c 0.09,1.38 0.14,2.76 0.14,4.14 v 0.15 z"
     id="path4065"
     inkscape:connector-curvature="0"
     style="fill:#0071b8;fill-rule:evenodd" />
  <polygon
     class="cls-4"
     points="36.42,13.4 36.42,12.43 34.83,12.48 33.42,12.61 32.97,13.53 34.51,13.44 "
     id="polygon4067"
     style="fill:#0071b8;fill-rule:evenodd"
     transform="translate(-12.68,-6.95)" />
  <path
     class="cls-4"
     d="M 16.66,4.45 18.37,4.17 20.26,3.99 20.38,3.47 20.64,2.57 19.2,2.96 A 16.86,16.86 0 0 0 17.54,3.62 L 16.82,3.99 Z"
     id="path4069"
     inkscape:connector-curvature="0"
     style="fill:#0071b8;fill-rule:evenodd" />
  <polygon
     class="cls-4"
     points="36.42,15.85 36.42,14.02 35.14,14.07 32.73,14.29 32.3,16.12 34.09,15.93 "
     id="polygon4071"
     style="fill:#0071b8;fill-rule:evenodd"
     transform="translate(-12.68,-6.95)" />
  <polygon
     class="cls-4"
     points="29.86,14.11 31.62,13.92 32.07,12.09 30.87,12.2 28.12,12.61 27.7,13.95 27.55,14.52 "
     id="polygon4073"
     style="fill:#0071b8;fill-rule:evenodd"
     transform="translate(-12.68,-6.95)" />
  <polygon
     class="cls-4"
     points="24.46,12.82 25.72,12.56 26.74,12.4 27.22,11.1 26.43,11.2 25.79,11.31 25.04,11.8 24.66,12.1 "
     id="polygon4075"
     style="fill:#0071b8;fill-rule:evenodd"
     transform="translate(-12.68,-6.95)" />
  <polygon
     class="cls-4"
     points="34.09,19.74 36.7,19.65 36.7,17.26 35.28,17.31 32.39,17.62 32.09,18.87 31.91,19.95 "
     id="polygon4077"
     style="fill:#0071b8;fill-rule:evenodd"
     transform="translate(-12.68,-6.95)" />
  <polygon
     class="cls-4"
     points="26.24,18.33 29.03,17.87 30.41,17.73 30.76,15.7 30.85,15.33 30.17,15.4 26.75,16.02 26.61,16.58 "
     id="polygon4079"
     style="fill:#0071b8;fill-rule:evenodd"
     transform="translate(-12.68,-6.95)" />
  <polygon
     class="cls-4"
     points="24.93,16.08 25.79,15.95 26.34,13.6 26.04,13.66 23.25,14.32 22.99,15.4 22.81,16.55 "
     id="polygon4081"
     style="fill:#0071b8;fill-rule:evenodd"
     transform="translate(-12.68,-6.95)" />
  <polygon
     class="cls-4"
     points="20.86,16.65 20.85,16.43 20.82,16.25 20.57,16.82 20.36,17.3 21.36,17.3 22.24,14.03 21.83,14.1 20.82,16.25 20.86,15.78 20.82,16.25 20.86,16.68 "
     id="polygon4083"
     style="fill:#0071b8;fill-rule:evenodd"
     transform="translate(-12.68,-6.95)" />
  <polygon
     class="cls-4"
     points="33.96,20.83 33.7,20.85 31.33,21.07 30.97,23.19 30.8,24.86 30.97,24.85 32.06,24.8 32.32,24.79 32.6,24.78 36.22,24.72 36.28,24.72 36.28,20.75 "
     id="polygon4085"
     style="fill:#0071b8;fill-rule:evenodd"
     transform="translate(-12.68,-6.95)" />
  <polygon
     class="cls-4"
     points="28.46,19.04 28.03,19.11 24.98,19.64 24.73,21.28 24.46,23.64 25.35,23.56 26.49,23.45 27.01,23.42 27.61,23.37 28.84,23.31 29.08,20.7 29.36,18.95 "
     id="polygon4087"
     style="fill:#0071b8;fill-rule:evenodd"
     transform="translate(-12.68,-6.95)" />
  <polygon
     class="cls-4"
     points="22.38,17.79 20.46,18.24 20.31,19.27 20.15,21.33 20.29,21.31 21.16,21.2 21.83,21.13 22.57,21.05 22.59,20.77 23.03,17.66 22.83,17.7 "
     id="polygon4089"
     style="fill:#0071b8;fill-rule:evenodd"
     transform="translate(-12.68,-6.95)" />
  <polygon
     class="cls-4"
     points="21.28,22.33 21.11,23.91 21.02,25.7 21.28,25.66 22.37,25.46 22.68,25.42 22.85,23.31 23.03,21.8 21.93,22.11 21.46,22.26 "
     id="polygon4091"
     style="fill:#0071b8;fill-rule:evenodd"
     transform="translate(-12.68,-6.95)" />
  <polygon
     class="cls-4"
     points="19.24,26.84 19.85,26.72 19.89,25.74 20.13,23.37 19.91,23.46 19.29,25.3 18.91,26.91 "
     id="polygon4093"
     style="fill:#0071b8;fill-rule:evenodd"
     transform="translate(-12.68,-6.95)" />
  <path
     class="cls-4"
     d="m 24.01,25.05 v -5.4 l -5.16,0.17 -0.15,1.41 c -0.09,1.23 -0.13,2.47 -0.14,3.7 v 0.12 z"
     id="path4095"
     inkscape:connector-curvature="0"
     style="fill:#0071b8;fill-rule:evenodd" />
  <polygon
     class="cls-4"
     points="37.89,50.06 37.89,51.67 39.47,51.58 40.88,51.37 41.33,49.86 39.79,50.01 "
     id="polygon4097"
     style="fill:#0071b8;fill-rule:evenodd"
     transform="translate(-12.68,-6.95)" />
  <path
     class="cls-4"
     d="m 34.63,41.05 -1.84,0.28 -2,0.18 -0.12,0.52 -0.29,0.9 1.54,-0.39 a 18.21,18.21 0 0 0 1.79,-0.66 l 0.77,-0.37 z"
     id="path4099"
     inkscape:connector-curvature="0"
     style="fill:#0071b8;fill-rule:evenodd" />
  <polygon
     class="cls-4"
     points="37.89,47.46 37.89,49.27 39.16,49.23 41.57,49.01 42,47.19 40.21,47.38 "
     id="polygon4101"
     style="fill:#0071b8;fill-rule:evenodd"
     transform="translate(-12.68,-6.95)" />
  <polygon
     class="cls-4"
     points="40.28,44.25 37.67,44.33 37.67,46.73 39.08,46.68 41.98,46.37 42.27,45.12 42.46,44.04 "
     id="polygon4103"
     style="fill:#0071b8;fill-rule:evenodd"
     transform="translate(-12.68,-6.95)" />
  <polygon
     class="cls-4"
     points="39.98,43.08 40.25,43.06 42.61,42.83 42.97,40.72 43.14,39.05 42.98,39.05 41.88,39.11 41.63,39.12 41.35,39.13 37.73,39.18 37.67,39.19 37.67,43.16 "
     id="polygon4105"
     style="fill:#0071b8;fill-rule:evenodd"
     transform="translate(-12.68,-6.95)" />
  <path
     class="cls-4"
     d="m 24.99,25.61 v 5.44 l 5.56,-0.17 0.17,-1.41 c 0.09,-1.23 0.14,-2.47 0.14,-3.7 v -0.13 z"
     id="path4107"
     inkscape:connector-curvature="0"
     style="fill:#0071b8;fill-rule:evenodd" />
  <polygon
     class="cls-4"
     points="36.82,49.58 36.82,50.86 35.24,50.8 33.83,50.63 33.38,49.42 34.92,49.54 "
     id="polygon4109"
     style="fill:#0071b8;fill-rule:evenodd"
     transform="translate(-12.68,-6.95)" />
  <polygon
     class="cls-4"
     points="36.91,47.34 36.9,48.97 35.57,48.85 32.93,48.77 32.36,47.13 34.34,47.28 "
     id="polygon4111"
     style="fill:#0071b8;fill-rule:evenodd"
     transform="translate(-12.68,-6.95)" />
  <polygon
     class="cls-4"
     points="20.71,42.18 21.67,42.59 21.91,43.61 21.59,43.27 "
     id="polygon4113"
     style="fill:#0071b8;fill-rule:evenodd"
     transform="translate(-12.68,-6.95)" />
  <polygon
     class="cls-4"
     points="34.16,44.06 36.77,44.15 36.77,46.54 35.35,46.49 32.46,46.19 32.16,44.93 31.98,43.85 "
     id="polygon4115"
     style="fill:#0071b8;fill-rule:evenodd"
     transform="translate(-12.68,-6.95)" />
  <polygon
     class="cls-4"
     points="27.82,43.44 29.87,43.81 30.88,43.9 31.27,46.15 31.36,46.56 30.86,46.51 28.35,46 28.2,45.38 "
     id="polygon4117"
     style="fill:#0071b8;fill-rule:evenodd"
     transform="translate(-12.68,-6.95)" />
  <polygon
     class="cls-4"
     points="26.24,43.06 26.89,43.16 27.51,45.85 27.28,45.81 25.18,45.22 24.88,43.98 24.64,42.66 "
     id="polygon4119"
     style="fill:#0071b8;fill-rule:evenodd"
     transform="translate(-12.68,-6.95)" />
  <polygon
     class="cls-4"
     points="34.45,42.92 34.19,42.9 31.82,42.68 31.46,40.56 31.29,38.89 31.45,38.9 32.55,38.96 32.81,38.96 33.09,38.97 36.71,39.03 36.77,39.03 36.77,43 "
     id="polygon4121"
     style="fill:#0071b8;fill-rule:evenodd"
     transform="translate(-12.68,-6.95)" />
  <polygon
     class="cls-4"
     points="30.25,43.09 29.92,43.05 27.57,42.63 27.25,40.93 26.87,38.48 27.56,38.52 28.43,38.58 28.82,38.59 29.28,38.62 30.22,38.62 30.6,41.34 30.94,43.15 "
     id="polygon4123"
     style="fill:#0071b8;fill-rule:evenodd"
     transform="translate(-12.68,-6.95)" />
  <polygon
     class="cls-4"
     points="25.82,41.71 23.95,41.26 23.69,39.9 23.29,37.18 23.44,37.2 24.27,37.28 24.91,37.31 25.62,37.37 25.67,37.75 26.46,41.83 26.27,41.8 "
     id="polygon4125"
     style="fill:#0071b8;fill-rule:evenodd"
     transform="translate(-12.68,-6.95)" />
  <polygon
     class="cls-4"
     points="21.5,40.86 21.2,39.02 20.96,36.91 21.25,36.94 22.44,37.06 22.78,37.09 23.12,39.55 23.43,41.32 22.22,41.05 21.7,40.92 "
     id="polygon4127"
     style="fill:#0071b8;fill-rule:evenodd"
     transform="translate(-12.68,-6.95)" />
  <polygon
     class="cls-4"
     points="19.36,36.55 20.26,36.69 20.34,37.75 20.69,40.3 20.36,40.21 19.42,38.21 18.85,36.48 "
     id="polygon4129"
     style="fill:#0071b8;fill-rule:evenodd"
     transform="translate(-12.68,-6.95)" />
  <path
     class="cls-4"
     d="m 17.43,25.93 v 0.12 c 0,1.28 0,2.54 0.13,3.81 l 0.12,1.11 -1.93,-0.07 -1.81,-0.17 -0.09,-1 c -0.07,-1.18 -0.08,-2.37 0,-3.58 V 26 Z"
     id="path4131"
     inkscape:connector-curvature="0"
     style="fill:#0071b8;fill-rule:evenodd" />
  <path
     class="cls-4"
     d="m 24.22,25.82 v 5.35 L 18.66,31 18.5,29.61 c -0.1,-1.22 -0.15,-2.44 -0.15,-3.65 v -0.14 z"
     id="path4133"
     inkscape:connector-curvature="0"
     style="fill:#0071b8;fill-rule:evenodd" />
  <polygon
     class="cls-4"
     points="25.4,26 25.16,26.04 23.47,26.45 23.33,27.71 23.18,29.52 23.68,29.46 24.31,29.38 24.59,29.36 24.92,29.31 25.61,29.27 25.74,27.26 25.9,25.92 "
     id="polygon4135"
     style="fill:#0071b8;fill-rule:evenodd"
     transform="translate(-12.68,-6.95)" />
  <polygon
     class="cls-4"
     points="22.34,27.07 22.16,27.1 20.89,27.41 20.78,28.37 20.67,29.74 21.04,29.7 21.52,29.63 21.74,29.61 21.99,29.59 22.5,29.55 22.61,28.03 22.72,27.01 "
     id="polygon4137"
     style="fill:#0071b8;fill-rule:evenodd"
     transform="translate(-12.68,-6.95)" />
  <polygon
     class="cls-4"
     points="22.34,26.97 22.16,27 20.89,27.34 20.78,28.37 20.67,29.85 21.04,29.8 21.52,29.73 21.74,29.71 21.99,29.68 22.5,29.64 22.61,28 22.72,26.9 "
     id="polygon4139"
     style="fill:#0071b8;fill-rule:evenodd"
     transform="translate(-12.68,-6.95)" />
  <polygon
     class="cls-4"
     points="19.98,28.04 19.82,28.08 18.67,28.36 18.58,29.24 18.48,30.5 18.81,30.46 19.24,30.4 19.43,30.39 19.66,30.36 20.12,30.32 20.21,28.93 20.31,27.99 "
     id="polygon4141"
     style="fill:#0071b8;fill-rule:evenodd"
     transform="translate(-12.68,-6.95)" />
  <polygon
     class="cls-4"
     points="23.46,42.28 23.89,42.33 24.46,44.74 24.3,44.72 22.88,44.34 22.61,43.23 22.38,42.03 "
     id="polygon4143"
     style="fill:#0071b8;fill-rule:evenodd"
     transform="translate(-12.68,-6.95)" />
  <polygon
     class="cls-4"
     points="25.4,26.22 25.16,26.26 23.47,26.67 23.33,27.93 23.18,29.74 23.68,29.68 24.31,29.6 24.59,29.57 24.92,29.53 25.61,29.49 25.74,27.48 25.9,26.14 "
     id="polygon4145"
     style="fill:#0071b8;fill-rule:evenodd"
     transform="translate(-12.68,-6.95)" />
  <polygon
     class="cls-4"
     points="22.34,26.86 22.16,26.9 20.89,27.26 20.78,28.37 20.67,29.96 21.04,29.91 21.52,29.83 21.74,29.81 21.99,29.78 22.5,29.74 22.61,27.97 22.72,26.8 "
     id="polygon4147"
     style="fill:#0071b8;fill-rule:evenodd"
     transform="translate(-12.68,-6.95)" />
  <path
     class="cls-4"
     d="m 12.85,24.86 v 2.19 l 0.17,1.58 -2.52,-0.18 v -0.13 c -0.05,-0.73 -0.07,-1.46 -0.05,-2.21 l 0.08,-1.29 z"
     id="path4149"
     inkscape:connector-curvature="0"
     style="fill:#0071b8;fill-rule:evenodd" />
  <polygon
     class="cls-4"
     points="25.32,35.56 25.09,35.52 23.46,35.18 23.32,34.12 23.18,32.59 23.65,32.64 24.27,32.71 24.54,32.73 24.86,32.76 25.53,32.8 25.66,34.49 25.81,35.63 "
     id="polygon4151"
     style="fill:#0071b8;fill-rule:evenodd"
     transform="translate(-12.68,-6.95)" />
  <path
     class="cls-4"
     d="m 9.65,25.19 v 1.86 l 0.11,1.31 -1.7,-0.15 v -0.16 c 0,-0.6 0,-1.21 0,-1.83 l 0.06,-1.07 z"
     id="path4153"
     inkscape:connector-curvature="0"
     style="fill:#0071b8;fill-rule:evenodd" />
  <polygon
     class="cls-4"
     points="22.2,35.25 22.04,35.22 20.94,34.93 20.84,34.05 20.75,32.79 21.07,32.83 21.48,32.89 21.67,32.9 21.88,32.93 22.33,32.97 22.42,34.36 22.52,35.3 "
     id="polygon4155"
     style="fill:#0071b8;fill-rule:evenodd"
     transform="translate(-12.68,-6.95)" />
  <path
     class="cls-4"
     d="m 7.32,25.3 v 1.59 l 0.1,1.13 -1.49,-0.13 V 27.8 c 0,-0.52 0,-1.05 0,-1.58 L 5.98,25.3 Z"
     id="path4157"
     inkscape:connector-curvature="0"
     style="fill:#0071b8;fill-rule:evenodd" />
  <polygon
     class="cls-4"
     points="19.89,34.93 19.76,34.9 18.79,34.65 18.7,33.9 18.62,32.81 18.9,32.84 19.27,32.89 19.43,32.91 19.62,32.93 20.01,32.96 20.09,34.17 20.18,34.97 "
     id="polygon4159"
     style="fill:#0071b8;fill-rule:evenodd"
     transform="translate(-12.68,-6.95)" />
  <path
     class="cls-4"
     d="m 17.59,23.55 v -2.5 l 0.28,-1.76 -4.15,0.21 v 0.14 a 18.28,18.28 0 0 0 -0.08,2.46 l 0.14,1.44 z"
     id="path4161"
     inkscape:connector-curvature="0"
     style="fill:#0071b8;fill-rule:evenodd" />
  <polygon
     class="cls-4"
     points="29.93,26.31 29.55,26.36 26.84,26.74 26.62,27.93 26.38,29.63 27.17,29.57 28.18,29.49 28.64,29.47 29.17,29.43 30.26,29.39 30.48,27.51 30.73,26.25 "
     id="polygon4163"
     style="fill:#0071b8;fill-rule:evenodd"
     transform="translate(-12.68,-6.95)" />
  <polygon
     class="cls-4"
     points="28.41,46.71 30.47,47.09 31.49,47.17 31.88,49.4 31.96,49.8 31.47,49.76 28.99,49.26 28.83,48.65 "
     id="polygon4165"
     style="fill:#0071b8;fill-rule:evenodd"
     transform="translate(-12.68,-6.95)" />
  <polygon
     class="cls-4"
     points="26.82,46.32 27.47,46.43 28.16,49.11 27.93,49.07 25.82,48.5 25.49,47.26 25.19,45.92 "
     id="polygon4167"
     style="fill:#0071b8;fill-rule:evenodd"
     transform="translate(-12.68,-6.95)" />
  <polygon
     class="cls-4"
     points="23.97,45.53 24.41,45.58 25.09,48.02 24.94,48 23.5,47.62 23.17,46.5 22.87,45.28 "
     id="polygon4169"
     style="fill:#0071b8;fill-rule:evenodd"
     transform="translate(-12.68,-6.95)" />
  <path
     class="cls-5"
     d="m 48.16,45.56 v 14.65 c 0,0 -0.9,5.66 -6.53,5.66 h -9 c 0,0 -7.65,0.84 -7.65,11 a 1.22,1.22 0 0 1 -0.33,0 c 0,1.51 0,-15.51 0,-15.51 0,0 0.09,-9.55 8,-9.55 h 9 c 0,0 6.51,-0.76 6.51,-6.25 z"
     id="path4171"
     inkscape:connector-curvature="0"
     style="fill:#039749;fill-rule:evenodd" />
  <path
     class="cls-5"
     d="m 48.16,22.37 v 14.65 c 0,0 -0.9,5.66 -6.53,5.66 h -9 c 0,0 -8,0.38 -7.91,11 0,1.51 0,-15.58 0,-15.58 0,0 0,-9.54 7.91,-9.54 h 9 c 0,0 6.53,-0.68 6.53,-6.19 z"
     id="path4173"
     inkscape:connector-curvature="0"
     style="fill:#039749;fill-rule:evenodd" />
  <path
     class="cls-5"
     d="M 1.48,34.24 V 48.9 c 0,0 0.89,5.66 6.53,5.66 h 9 c 0,0 8,0.38 7.91,11 0,1.51 0,-15.58 0,-15.58 0,0 0,-9.54 -7.9,-9.54 h -9 c 0,0 -6.54,-0.68 -6.54,-6.2 z"
     id="path4175"
     inkscape:connector-curvature="0"
     style="fill:#039749;fill-rule:evenodd" />
  <path
     class="cls-3"
     d="M 24,50.92 C 11.13,50.48 0.88,40.92 0,29.02 v -0.57 l 2.39,2.35 2.15,-2.32 v 0.26 c 0.69,9.69 7.86,16.94 18,17.29 h 2 v 4.92 z"
     id="path4177"
     inkscape:connector-curvature="0"
     style="fill:#cc0000;fill-rule:evenodd" />
</svg>
