<?xml version="1.0" encoding="UTF-8" standalone="no"?>
<svg
   xmlns:dc="http://purl.org/dc/elements/1.1/"
   xmlns:cc="http://creativecommons.org/ns#"
   xmlns:rdf="http://www.w3.org/1999/02/22-rdf-syntax-ns#"
   xmlns:svg="http://www.w3.org/2000/svg"
   xmlns="http://www.w3.org/2000/svg"
   xmlns:sodipodi="http://sodipodi.sourceforge.net/DTD/sodipodi-0.dtd"
   xmlns:inkscape="http://www.inkscape.org/namespaces/inkscape"
   height="76.964844"
   width="236.6198"
   version="1.1"
   viewBox="0 0 236.61979 76.964842"
   data-name="Layer 1"
   id="Layer_1"
   sodipodi:docname="logo-es.svg"
   inkscape:version="0.92.2 5c3e80d, 2017-08-06">
  <sodipodi:namedview
     pagecolor="#ffffff"
     bordercolor="#666666"
     borderopacity="1"
     objecttolerance="10"
     gridtolerance="10"
     guidetolerance="10"
     inkscape:pageopacity="0"
     inkscape:pageshadow="2"
     inkscape:window-width="640"
     inkscape:window-height="480"
     id="namedview1364"
     showgrid="false"
     fit-margin-top="0"
     fit-margin-left="0"
     fit-margin-right="0"
     fit-margin-bottom="0"
     inkscape:zoom="1.1222828"
     inkscape:cx="118.30991"
     inkscape:cy="38.482423"
     inkscape:window-x="526"
     inkscape:window-y="99"
     inkscape:window-maximized="0"
     inkscape:current-layer="Layer_1" />
  <metadata
     id="metadata4182">
    <rdf:RDF>
      <cc:Work
         rdf:about="">
        <dc:format>image/svg+xml</dc:format>
        <dc:type
           rdf:resource="http://purl.org/dc/dcmitype/StillImage" />
        <dc:title>Artboard 2</dc:title>
      </cc:Work>
    </rdf:RDF>
  </metadata>
  <defs
     id="defs4011">
    @font-face {
      font-family: AlternateGotNo3DOT;
      src: url('alternategotno3dot-webfont.eot?#iefix') format('embedded-opentype'), /* IE6-IE8 */
         url('alternategotno3dot-webfont.woff2') format('woff2'), /* Modern Browsers */
         url('alternategotno3dot-webfont.woff') format('woff'), /* Modern Browsers */
         url('alternategotno3dot-webfont.ttf') format('truetype');
    }
    <style
   id="style4009">.cls-1{font-size:20px;}.cls-1,.cls-2,.cls-5{fill:#039749;}.cls-1,.cls-2{font-family:AlternateGotNo3DOT, AlternateGotNo3DOT;}.cls-2{font-size:14px;}.cls-3{fill:#c00;}.cls-3,.cls-4,.cls-5{fill-rule:evenodd;}.cls-4{fill:#0071b8;}</style>
</defs>
  <title
     id="title4013">Artboard 2</title>
  <g
     id="text4015"
     style="font-size:20px;font-family:AlternateGotNo3DOT, AlternateGotNo3DOT;fill:#039749"
     transform="translate(52.82,45.22)"
     aria-label="Mecanismo de Facilitación">
    <path
       id="path4588"
       style="font-size:20px;font-family:AlternateGotNo3DOT, AlternateGotNo3DOT;fill:#039749"
       d="m 1.015625,0 v -13.339844 h 3.0273437 l 1.8359375,8.3789065 1.8652344,-8.3789065 H 10.722656 V 0 H 8.7597656 V -9.8242188 L 6.4355469,0 H 5.2832031 L 2.9785156,-9.8242188 V 0 Z"
       inkscape:connector-curvature="0" />
    <path
       id="path4590"
       style="font-size:20px;font-family:AlternateGotNo3DOT, AlternateGotNo3DOT;fill:#039749"
       d="m 12.558594,-3.5351563 v -2.9687499 q 0,-1.1816407 0.166015,-1.7773438 0.175782,-0.6054688 0.634766,-1.0546875 0.830078,-0.8007815 2.255859,-0.8007815 1.542969,0 2.34375,0.917969 0.419922,0.4882812 0.585938,1.1230469 0.175781,0.6347656 0.175781,1.796875 v 1.640625 h -4.30664 v 0.8789062 q 0,1.2988281 0.263671,1.7871094 0.273438,0.4882813 0.996094,0.4882813 0.615234,0 0.908203,-0.4003907 Q 16.875,-2.3144531 16.875,-3.1835938 V -3.4375 h 1.865234 q -0.01953,1.0839844 -0.09766,1.5429688 -0.06836,0.4492187 -0.322266,0.8300781 -0.761718,1.2597656 -2.646484,1.2597656 -1.748047,0 -2.5,-1.03515625 Q 12.841793,-1.3085937 12.695309,-1.9238281 12.55859,-2.5390625 12.55859,-3.5351563 Z m 1.855469,-2.7636718 h 2.441406 v -0.5371094 q 0,-0.8789062 -0.292969,-1.2695313 -0.283203,-0.390625 -0.927734,-0.390625 -0.644532,0 -0.9375,0.390625 -0.283203,0.3906251 -0.283203,1.2695313 z"
       inkscape:connector-curvature="0" />
    <path
       id="path4592"
       style="font-size:20px;font-family:AlternateGotNo3DOT, AlternateGotNo3DOT;fill:#039749"
       d="m 20.332031,-3.515625 v -2.8808594 q 0,-1.0253906 0.136719,-1.6308594 0.136719,-0.6152343 0.478516,-1.0742187 0.751953,-1.0351565 2.5,-1.0351565 1.552734,0 2.363281,0.8984377 0.371094,0.4003907 0.537109,0.9570313 0.166016,0.5566406 0.166016,1.4257813 v 0.3515625 h -1.865235 v -0.2539063 q 0,-0.8691406 -0.292968,-1.2695313 Q 24.0625,-8.4375 23.447266,-8.4375 q -0.722657,0 -0.996094,0.4882813 -0.263672,0.4882812 -0.263672,1.7871093 v 2.4023438 q 0,1.2402343 0.244141,1.71875 0.273437,0.5371094 1.015625,0.5371094 0.615234,0 0.908203,-0.4199219 0.292968,-0.4199219 0.292968,-1.3183594 V -3.515625 h 1.865235 v 0.3710937 q 0,0.8886719 -0.166016,1.4550782 -0.166015,0.5664062 -0.537109,0.96679685 -0.830078,0.91796875 -2.363281,0.91796875 -1.748047,0 -2.5,-1.03515625 Q 20.605469,-1.2988281 20.46875,-1.8945312 20.332031,-2.4902344 20.332031,-3.515625 Z"
       inkscape:connector-curvature="0" />
    <path
       id="path4594"
       style="font-size:20px;font-family:AlternateGotNo3DOT, AlternateGotNo3DOT;fill:#039749"
       d="m 27.8125,-2.5 q 0,-0.9570313 0.390625,-1.6015625 0.400391,-0.6445312 1.328125,-1.2011719 0.488281,-0.3125 2.539062,-1.2011718 v -0.5175782 q 0,-0.7617187 -0.224609,-1.0839844 Q 31.621094,-8.4375 31.09375,-8.4375 q -0.527344,0 -0.791016,0.3320312 -0.253906,0.3320313 -0.3125,1.0839844 h -1.96289 q 0.117187,-1.4941406 0.966797,-2.2753906 0.849609,-0.78125 2.353515,-0.78125 1.367188,0 2.041016,0.7617187 0.3125,0.390625 0.419922,0.8398438 0.117187,0.4492187 0.117187,1.3574219 v 4.4238281 q 0,1.1035156 0.03906,1.6113281 Q 34.013672,-0.57617187 34.150391,0 h -1.923829 q -0.15625,-0.44921875 -0.15625,-1.1621094 -0.673828,0.7324219 -1.162109,1.01562503 -0.478516,0.28320312 -1.074219,0.28320312 -0.947265,0 -1.484375,-0.703125 Q 27.8125,-1.2695312 27.8125,-2.5 Z m 1.953125,-0.1171875 q 0,0.4882812 0.263672,0.8007813 0.273437,0.3125 0.683594,0.3125 0.791015,0 1.357421,-0.8984376 v -2.7148437 q -1.240234,0.6640625 -1.777343,1.2402344 -0.527344,0.5761718 -0.527344,1.2597656 z"
       inkscape:connector-curvature="0" />
    <path
       id="path4596"
       style="font-size:20px;font-family:AlternateGotNo3DOT, AlternateGotNo3DOT;fill:#039749"
       d="m 35.859375,0 v -9.9414063 h 1.865234 v 1.2792969 q 0.644532,-0.7519531 1.230469,-1.0839844 0.585938,-0.3320312 1.240234,-0.3320312 0.830079,0 1.220704,0.5664062 0.40039,0.5664063 0.40039,1.7480469 V 0 h -1.855469 v -7.2753906 q 0,-0.6542969 -0.166015,-0.9082032 Q 39.638672,-8.4375 39.238281,-8.4375 q -0.800781,0 -1.513672,0.9960938 V 0 Z"
       inkscape:connector-curvature="0" />
    <path
       id="path4598"
       style="font-size:20px;font-family:AlternateGotNo3DOT, AlternateGotNo3DOT;fill:#039749"
       d="m 43.554687,0 v -9.9414063 h 1.865235 V 0 Z m 0,-11.396484 v -1.94336 h 1.865235 v 1.94336 z"
       inkscape:connector-curvature="0" />
    <path
       id="path4600"
       style="font-size:20px;font-family:AlternateGotNo3DOT, AlternateGotNo3DOT;fill:#039749"
       d="m 46.689453,-2.5976563 1.738281,-0.6054687 q 0.302735,0.9082031 0.683594,1.3085938 0.390625,0.390625 0.976563,0.390625 0.458984,0 0.761718,-0.2832032 0.302735,-0.2832031 0.302735,-0.7128906 0,-0.4199219 -0.302735,-0.7421875 -0.302734,-0.3320313 -1.103515,-0.7617187 -1.025391,-0.5761719 -1.435547,-0.8496094 -0.410156,-0.2832031 -0.742188,-0.625 -0.722656,-0.7519531 -0.722656,-1.8847656 0,-1.2109376 0.820313,-1.9921876 0.820312,-0.7812502 2.080078,-0.7812502 1.191406,0 1.972656,0.5859377 0.791016,0.5761719 1.25,1.8066407 l -1.699219,0.7421875 Q 50.986328,-7.7734375 50.625,-8.1054688 50.273437,-8.4375 49.726562,-8.4375 q -0.429687,0 -0.703125,0.2441406 Q 48.75,-7.9492187 48.75,-7.5585937 q 0,0.4101562 0.322266,0.7128906 0.322265,0.3027344 1.357421,0.8691406 1.523438,0.8300781 2.021485,1.3574219 0.693359,0.7226562 0.693359,1.875 0,1.3183594 -0.839844,2.12890623 -0.839843,0.81054687 -2.216796,0.81054687 -1.269532,0 -2.089844,-0.67382813 -0.820313,-0.67382807 -1.308594,-2.11914067 z"
       inkscape:connector-curvature="0" />
    <path
       id="path4602"
       style="font-size:20px;font-family:AlternateGotNo3DOT, AlternateGotNo3DOT;fill:#039749"
       d="m 54.375,0 v -9.9414063 h 1.865234 v 1.2792969 q 0.644532,-0.7519531 1.230469,-1.0839844 0.585938,-0.3320312 1.240234,-0.3320312 1.298829,0 1.5625,1.4160156 0.654297,-0.7421875 1.25,-1.0742187 0.605469,-0.3417969 1.269532,-0.3417969 0.839843,0 1.240234,0.5664062 0.400391,0.5566407 0.400391,1.7480469 V 0 h -1.855469 v -7.2753906 q 0,-0.6542969 -0.166016,-0.9082032 -0.15625,-0.2539062 -0.55664,-0.2539062 -0.810547,0 -1.523438,0.9960938 V 0 h -1.855469 v -7.2753906 q 0,-0.6542969 -0.166015,-0.9082032 Q 58.154297,-8.4375 57.753906,-8.4375 q -0.800781,0 -1.513672,0.9960938 V 0 Z"
       inkscape:connector-curvature="0" />
    <path
       id="path4604"
       style="font-size:20px;font-family:AlternateGotNo3DOT, AlternateGotNo3DOT;fill:#039749"
       d="m 66.113281,-3.4375 v -3.0664062 q 0,-1.1621094 0.166016,-1.7675782 0.175781,-0.6152344 0.615234,-1.0644531 0.830078,-0.8007815 2.275391,-0.8007815 1.435547,0 2.265625,0.8007815 0.449219,0.4492187 0.615234,1.0546875 0.166016,0.6054688 0.166016,1.7773438 V -3.4375 q 0,1.171875 -0.166016,1.7871094 -0.166015,0.6054687 -0.615234,1.05468748 -0.820313,0.79101562 -2.265625,0.79101562 -1.455078,0 -2.275391,-0.79101562 Q 66.455078,-1.0449219 66.279297,-1.6601562 66.113281,-2.2753906 66.113281,-3.4375 Z m 1.855469,0.1171875 q 0,0.9472656 0.283203,1.3867188 0.283203,0.4296875 0.898438,0.4296875 0.625,0 0.908203,-0.4296875 0.292968,-0.4394532 0.292968,-1.3867188 v -3.3007812 q 0,-0.9570313 -0.283203,-1.3867188 Q 69.785156,-8.4375 69.150391,-8.4375 q -0.615235,0 -0.898438,0.4394531 -0.283203,0.4296875 -0.283203,1.3769532 z"
       inkscape:connector-curvature="0" />
    <path
       id="path4606"
       style="font-size:20px;font-family:AlternateGotNo3DOT, AlternateGotNo3DOT;fill:#039749"
       d="m 76.855469,-3.7792969 v -2.3828125 q 0,-1.1523437 0.08789,-1.7675781 0.08789,-0.6152344 0.3125,-1.1328125 0.488282,-1.015625 1.601563,-1.015625 0.537109,0 1.054687,0.2636719 0.527344,0.2636718 1.142578,0.8496093 v -4.3750002 h 1.855469 V 0 h -1.855469 v -0.9765625 q -0.615234,0.5859375 -1.142578,0.84960938 -0.517578,0.26367187 -1.054687,0.26367187 -1.113281,0 -1.601563,-1.015625 -0.224609,-0.51757815 -0.3125,-1.13281255 -0.08789,-0.625 -0.08789,-1.7675781 z m 1.855468,0.1171875 q 0,0.78125 0.0293,1.0839844 0.03906,0.3027344 0.15625,0.5566406 0.09766,0.234375 0.332032,0.3808594 0.234375,0.1367188 0.527343,0.1367188 0.615235,0 1.298828,-0.4980469 v -5.9375 Q 80.371094,-8.4375 79.755859,-8.4375 q -0.292968,0 -0.527343,0.1464844 -0.234375,0.1367187 -0.332032,0.3710937 -0.117187,0.2539063 -0.15625,0.5566407 -0.0293,0.3027343 -0.0293,1.0839843 z"
       inkscape:connector-curvature="0" />
    <path
       id="path4608"
       style="font-size:20px;font-family:AlternateGotNo3DOT, AlternateGotNo3DOT;fill:#039749"
       d="m 84.589844,-3.5351563 v -2.9687499 q 0,-1.1816407 0.166015,-1.7773438 0.175782,-0.6054688 0.634766,-1.0546875 0.830078,-0.8007815 2.255859,-0.8007815 1.542969,0 2.34375,0.917969 0.419922,0.4882812 0.585938,1.1230469 0.175781,0.6347656 0.175781,1.796875 v 1.640625 h -4.306641 v 0.8789062 q 0,1.2988281 0.263672,1.7871094 0.273438,0.4882813 0.996094,0.4882813 0.615234,0 0.908203,-0.4003907 0.292969,-0.4101562 0.292969,-1.2792969 V -3.4375 h 1.865234 q -0.01953,1.0839844 -0.09766,1.5429688 -0.06836,0.4492187 -0.322266,0.8300781 -0.761718,1.2597656 -2.646484,1.2597656 -1.748047,0 -2.5,-1.03515625 Q 84.873043,-1.3085937 84.726558,-1.9238281 84.58984,-2.5390625 84.58984,-3.5351563 Z m 1.855468,-2.7636718 h 2.441407 v -0.5371094 q 0,-0.8789062 -0.292969,-1.2695313 -0.283203,-0.390625 -0.927734,-0.390625 -0.644532,0 -0.9375,0.390625 -0.283204,0.3906251 -0.283204,1.2695313 z"
       inkscape:connector-curvature="0" />
    <path
       id="path4610"
       style="font-size:20px;font-family:AlternateGotNo3DOT, AlternateGotNo3DOT;fill:#039749"
       d="m 95.625,0 v -13.339844 h 6.10352 v 1.904297 h -4.042973 v 3.5937501 h 3.007813 V -5.9375 H 97.685547 V 0 Z"
       inkscape:connector-curvature="0" />
    <path
       id="path4612"
       style="font-size:20px;font-family:AlternateGotNo3DOT, AlternateGotNo3DOT;fill:#039749"
       d="m 102.69531,-2.5 q 0,-0.9570313 0.39063,-1.6015625 0.40039,-0.6445312 1.32812,-1.2011719 0.48828,-0.3125 2.53907,-1.2011718 v -0.5175782 q 0,-0.7617187 -0.22461,-1.0839844 -0.22461,-0.3320312 -0.75196,-0.3320312 -0.52734,0 -0.79101,0.3320312 -0.25391,0.3320313 -0.3125,1.0839844 h -1.96289 q 0.11718,-1.4941406 0.96679,-2.2753906 0.84961,-0.78125 2.35352,-0.78125 1.36719,0 2.04101,0.7617187 0.3125,0.390625 0.41993,0.8398438 0.11718,0.4492187 0.11718,1.3574219 v 4.4238281 q 0,1.1035156 0.0391,1.6113281 Q 108.89648,-0.57617187 109.0332,0 h -1.92382 q -0.15625,-0.44921875 -0.15625,-1.1621094 -0.67383,0.7324219 -1.16211,1.01562503 -0.47852,0.28320312 -1.07422,0.28320312 -0.94727,0 -1.48438,-0.703125 Q 102.69531,-1.2695312 102.69531,-2.5 Z m 1.95313,-0.1171875 q 0,0.4882812 0.26367,0.8007813 0.27344,0.3125 0.68359,0.3125 0.79102,0 1.35743,-0.8984376 v -2.7148437 q -1.24024,0.6640625 -1.77735,1.2402344 -0.52734,0.5761718 -0.52734,1.2597656 z"
       inkscape:connector-curvature="0" />
    <path
       id="path4614"
       style="font-size:20px;font-family:AlternateGotNo3DOT, AlternateGotNo3DOT;fill:#039749"
       d="m 110.68359,-3.515625 v -2.8808594 q 0,-1.0253906 0.13672,-1.6308594 0.13672,-0.6152343 0.47852,-1.0742187 0.75195,-1.0351565 2.5,-1.0351565 1.55273,0 2.36328,0.8984377 0.37109,0.4003907 0.53711,0.9570313 0.16601,0.5566406 0.16601,1.4257813 v 0.3515625 H 115 v -0.2539063 q 0,-0.8691406 -0.29297,-1.2695313 -0.29297,-0.4101562 -0.9082,-0.4101562 -0.72266,0 -0.9961,0.4882813 -0.26367,0.4882812 -0.26367,1.7871093 v 2.4023438 q 0,1.2402343 0.24414,1.71875 0.27344,0.5371094 1.01563,0.5371094 0.61523,0 0.9082,-0.4199219 Q 115,-2.34375 115,-3.2421875 V -3.515625 h 1.86523 v 0.3710937 q 0,0.8886719 -0.16601,1.4550782 -0.16602,0.5664062 -0.53711,0.96679685 -0.83008,0.91796875 -2.36328,0.91796875 -1.74805,0 -2.5,-1.03515625 -0.3418,-0.45898435 -0.47852,-1.05468745 -0.13672,-0.5957032 -0.13672,-1.6210938 z"
       inkscape:connector-curvature="0" />
    <path
       id="path4616"
       style="font-size:20px;font-family:AlternateGotNo3DOT, AlternateGotNo3DOT;fill:#039749"
       d="m 118.28125,0 v -9.9414063 h 1.86523 V 0 Z m 0,-11.396484 v -1.94336 h 1.86523 v 1.94336 z"
       inkscape:connector-curvature="0" />
    <path
       id="path4618"
       style="font-size:20px;font-family:AlternateGotNo3DOT, AlternateGotNo3DOT;fill:#039749"
       d="m 121.875,0 v -13.339844 h 1.86523 V 0 Z"
       inkscape:connector-curvature="0" />
    <path
       id="path4620"
       style="font-size:20px;font-family:AlternateGotNo3DOT, AlternateGotNo3DOT;fill:#039749"
       d="m 125.46875,0 v -9.9414063 h 1.86523 V 0 Z m 0,-11.396484 v -1.94336 h 1.86523 v 1.94336 z"
       inkscape:connector-curvature="0" />
    <path
       id="path4622"
       style="font-size:20px;font-family:AlternateGotNo3DOT, AlternateGotNo3DOT;fill:#039749"
       d="m 128.42773,-8.28125 v -1.6601563 h 1.43555 V -12.65625 h 1.85547 v 2.7148437 h 1.70898 V -8.28125 h -1.70898 v 5.3027344 q 0,0.7519531 0.27344,1.0839844 0.27343,0.3320312 0.88867,0.3320312 0.36133,0 0.72266,-0.1171875 V 0 q -0.72266,0.13671875 -1.25977,0.13671875 -1.43555,0 -2.02148,-0.73242187 -0.27344,-0.33203126 -0.3711,-0.78124998 -0.0879,-0.4589844 -0.0879,-1.40625 V -8.28125 Z"
       inkscape:connector-curvature="0" />
    <path
       id="path4624"
       style="font-size:20px;font-family:AlternateGotNo3DOT, AlternateGotNo3DOT;fill:#039749"
       d="m 134.41406,-2.5 q 0,-0.9570313 0.39063,-1.6015625 0.40039,-0.6445312 1.32812,-1.2011719 0.48828,-0.3125 2.53906,-1.2011718 v -0.5175782 q 0,-0.7617187 -0.2246,-1.0839844 -0.22461,-0.3320312 -0.75196,-0.3320312 -0.52734,0 -0.79101,0.3320312 -0.25391,0.3320313 -0.3125,1.0839844 h -1.96289 q 0.11718,-1.4941406 0.96679,-2.2753906 0.84961,-0.78125 2.35352,-0.78125 1.36719,0 2.04101,0.7617187 0.3125,0.390625 0.41993,0.8398438 0.11718,0.4492187 0.11718,1.3574219 v 4.4238281 q 0,1.1035156 0.0391,1.6113281 0.0488,0.50781253 0.18554,1.0839844 h -1.92383 q -0.15625,-0.44921875 -0.15625,-1.1621094 -0.67382,0.7324219 -1.1621,1.01562503 -0.47852,0.28320312 -1.07422,0.28320312 -0.94727,0 -1.48438,-0.703125 Q 134.41406,-1.2695312 134.41406,-2.5 Z m 1.95313,-0.1171875 q 0,0.4882812 0.26367,0.8007813 0.27344,0.3125 0.68359,0.3125 0.79102,0 1.35742,-0.8984376 v -2.7148437 q -1.24023,0.6640625 -1.77734,1.2402344 -0.52734,0.5761718 -0.52734,1.2597656 z"
       inkscape:connector-curvature="0" />
    <path
       id="path4626"
       style="font-size:20px;font-family:AlternateGotNo3DOT, AlternateGotNo3DOT;fill:#039749"
       d="m 142.40234,-3.515625 v -2.8808594 q 0,-1.0253906 0.13672,-1.6308594 0.13672,-0.6152343 0.47852,-1.0742187 0.75195,-1.0351565 2.5,-1.0351565 1.55273,0 2.36328,0.8984377 0.37109,0.4003907 0.53711,0.9570313 0.16601,0.5566406 0.16601,1.4257813 v 0.3515625 h -1.86523 v -0.2539063 q 0,-0.8691406 -0.29297,-1.2695313 -0.29297,-0.4101562 -0.9082,-0.4101562 -0.72266,0 -0.9961,0.4882813 -0.26367,0.4882812 -0.26367,1.7871093 v 2.4023438 q 0,1.2402343 0.24414,1.71875 0.27344,0.5371094 1.01563,0.5371094 0.61523,0 0.9082,-0.4199219 0.29297,-0.4199219 0.29297,-1.3183594 V -3.515625 h 1.86523 v 0.3710937 q 0,0.8886719 -0.16601,1.4550782 -0.16602,0.5664062 -0.53711,0.96679685 -0.83008,0.91796875 -2.36328,0.91796875 -1.74805,0 -2.5,-1.03515625 -0.3418,-0.45898435 -0.47852,-1.05468745 -0.13672,-0.5957032 -0.13672,-1.6210938 z"
       inkscape:connector-curvature="0" />
    <path
       id="path4628"
       style="font-size:20px;font-family:AlternateGotNo3DOT, AlternateGotNo3DOT;fill:#039749"
       d="m 150,0 v -9.9414063 h 1.86523 V 0 Z m 0,-11.396484 v -1.94336 h 1.86523 v 1.94336 z"
       inkscape:connector-curvature="0" />
    <path
       id="path4630"
       style="font-size:20px;font-family:AlternateGotNo3DOT, AlternateGotNo3DOT;fill:#039749"
       d="m 153.53516,-3.4375 v -3.0664062 q 0,-1.1621094 0.16601,-1.7675782 0.17578,-0.6152344 0.61524,-1.0644531 0.83007,-0.8007815 2.27539,-0.8007815 1.43554,0 2.26562,0.8007815 0.44922,0.4492187 0.61524,1.0546875 0.16601,0.6054688 0.16601,1.7773438 V -3.4375 q 0,1.171875 -0.16601,1.7871094 -0.16602,0.6054687 -0.61524,1.05468748 -0.82031,0.79101562 -2.26562,0.79101562 -1.45508,0 -2.27539,-0.79101562 -0.43946,-0.44921878 -0.61524,-1.06445308 -0.16601,-0.6152344 -0.16601,-1.7773438 z m 1.85546,0.1171875 q 0,0.9472656 0.28321,1.3867188 0.2832,0.4296875 0.89844,0.4296875 0.625,0 0.9082,-0.4296875 0.29297,-0.4394532 0.29297,-1.3867188 v -3.3007812 q 0,-0.9570313 -0.28321,-1.3867188 -0.2832,-0.4296875 -0.91796,-0.4296875 -0.61524,0 -0.89844,0.4394531 -0.28321,0.4296875 -0.28321,1.3769532 z m 0.625,-8.2421875 0.89844,-1.777344 h 1.94336 l -1.44531,1.777344 z"
       inkscape:connector-curvature="0" />
    <path
       id="path4632"
       style="font-size:20px;font-family:AlternateGotNo3DOT, AlternateGotNo3DOT;fill:#039749"
       d="m 161.28906,0 v -9.9414063 h 1.86524 v 1.2792969 q 0.64453,-0.7519531 1.23047,-1.0839844 0.58593,-0.3320312 1.24023,-0.3320312 0.83008,0 1.2207,0.5664062 0.40039,0.5664063 0.40039,1.7480469 V 0 h -1.85547 v -7.2753906 q 0,-0.6542969 -0.16601,-0.9082032 -0.15625,-0.2539062 -0.55664,-0.2539062 -0.80078,0 -1.51367,0.9960938 V 0 Z"
       inkscape:connector-curvature="0" />
  </g>
  <g
     id="text4017"
     style="font-size:14px;font-family:AlternateGotNo3DOT, AlternateGotNo3DOT;fill:#039749"
     transform="translate(53.82,65.22)"
     aria-label="Convenio sobre la Biodiversidad Biológica">
    <path
       id="path4635"
       style="font-size:14px;font-family:AlternateGotNo3DOT, AlternateGotNo3DOT;fill:#039749"
       d="m 0.61523437,-3.4042969 v -2.618164 q 0,-1.1074219 0.109375,-1.6269532 0.10937501,-0.5195312 0.43750003,-0.9638672 0.6220703,-0.8613281 1.9755859,-0.8613281 1.1962891,0 1.859375,0.7587891 0.6699219,0.7587891 0.6699219,2.1328125 v 0.2802734 H 4.2246094 v -0.1914062 q 0,-1.6269532 -1.0869141,-1.6269532 -0.6083984,0 -0.8544922,0.4648438 -0.1367187,0.2255859 -0.1845703,0.4990234 -0.041016,0.2666016 -0.041016,0.8408204 v 3.1103515 q 0,0.9433594 0.1572266,1.3876953 0.102539,0.2734375 0.3554687,0.4375 0.2529297,0.1640625 0.5673828,0.1640625 0.8271485,0 1.0322266,-0.9638672 0.075195,-0.2939453 0.088867,-1.09375 h 1.4560546 v 0.3212891 q 0,1.5244141 -0.649414,2.31054688 -0.6494141,0.77929687 -1.9140625,0.77929687 -0.7041016,0 -1.2441406,-0.26660156 Q 1.3671875,-0.39648438 1.0664062,-0.89550781 0.80664063,-1.3261719 0.7109375,-1.8457031 0.61523437,-2.3652344 0.61523437,-3.4042969 Z"
       inkscape:connector-curvature="0" />
    <path
       id="path4637"
       style="font-size:14px;font-family:AlternateGotNo3DOT, AlternateGotNo3DOT;fill:#039749"
       d="m 6.7675781,-2.40625 v -2.1464844 q 0,-0.8134765 0.116211,-1.2373047 0.1230468,-0.430664 0.430664,-0.7451171 0.5810547,-0.5605469 1.5927735,-0.5605469 1.0048828,0 1.5859374,0.5605469 0.314453,0.3144531 0.430664,0.7382812 0.116211,0.4238281 0.116211,1.2441406 V -2.40625 q 0,0.8203125 -0.116211,1.2509766 -0.116211,0.42382809 -0.430664,0.73828121 -0.5742187,0.55371094 -1.5859374,0.55371094 -1.0185547,0 -1.5927735,-0.55371094 Q 7.0068359,-0.73144531 6.8837891,-1.1621094 6.7675781,-1.5927734 6.7675781,-2.40625 Z m 1.2988282,0.082031 q 0,0.663086 0.1982421,0.9707032 0.1982422,0.3007812 0.6289063,0.3007812 0.4375,0 0.6357422,-0.3007812 Q 9.734375,-1.661133 9.734375,-2.324219 v -2.3105468 q 0,-0.6699219 -0.1982422,-0.9707031 Q 9.3378906,-5.90625 8.8935547,-5.90625 q -0.4306641,0 -0.6289063,0.3076172 -0.1982421,0.3007812 -0.1982421,0.9638672 z"
       inkscape:connector-curvature="0" />
    <path
       id="path4639"
       style="font-size:14px;font-family:AlternateGotNo3DOT, AlternateGotNo3DOT;fill:#039749"
       d="m 12.195313,0 v -6.9589844 h 1.305664 v 0.8955078 q 0.451171,-0.5263671 0.861328,-0.758789 0.410156,-0.2324219 0.868164,-0.2324219 0.581054,0 0.854492,0.3964844 0.280273,0.3964844 0.280273,1.2236328 V 0 h -1.298828 v -5.0927734 q 0,-0.4580078 -0.116211,-0.6357422 Q 14.84082,-5.90625 14.560547,-5.90625 14,-5.90625 13.500977,-5.2089844 V 0 Z"
       inkscape:connector-curvature="0" />
    <path
       id="path4641"
       style="font-size:14px;font-family:AlternateGotNo3DOT, AlternateGotNo3DOT;fill:#039749"
       d="m 17.117187,-6.9589844 h 1.387696 l 0.998047,4.4228516 0.881836,-4.4228516 h 1.367187 L 20.200195,0 h -1.374023 z"
       inkscape:connector-curvature="0" />
    <path
       id="path4643"
       style="font-size:14px;font-family:AlternateGotNo3DOT, AlternateGotNo3DOT;fill:#039749"
       d="m 22.462891,-2.4746094 v -2.078125 q 0,-0.8271484 0.116211,-1.2441406 0.123046,-0.4238281 0.444335,-0.7382812 0.581055,-0.5605469 1.579102,-0.5605469 1.080078,0 1.640625,0.6425781 0.293945,0.3417969 0.410156,0.7861328 0.123047,0.444336 0.123047,1.2578125 v 1.1484375 h -3.014648 v 0.6152344 q 0,0.9091797 0.18457,1.2509766 0.191406,0.3417968 0.697266,0.3417968 0.430664,0 0.635742,-0.2802734 0.205078,-0.2871094 0.205078,-0.8955078 V -2.40625 h 1.305664 q -0.01367,0.7587891 -0.06836,1.0800781 -0.04785,0.3144532 -0.225586,0.58105471 -0.533203,0.88183594 -1.852539,0.88183594 -1.223633,0 -1.75,-0.72460937 -0.232422,-0.32812501 -0.334961,-0.75878908 -0.0957,-0.430664 -0.0957,-1.1279297 z m 1.298828,-1.9345703 h 1.708984 v -0.3759765 q 0,-0.6152344 -0.205078,-0.8886719 -0.198242,-0.2734375 -0.649414,-0.2734375 -0.451172,0 -0.65625,0.2734375 -0.198242,0.2734375 -0.198242,0.8886719 z"
       inkscape:connector-curvature="0" />
    <path
       id="path4645"
       style="font-size:14px;font-family:AlternateGotNo3DOT, AlternateGotNo3DOT;fill:#039749"
       d="m 27.945312,0 v -6.9589844 h 1.305665 v 0.8955078 q 0.451171,-0.5263671 0.861328,-0.758789 0.410156,-0.2324219 0.868164,-0.2324219 0.581054,0 0.854492,0.3964844 0.280273,0.3964844 0.280273,1.2236328 V 0 h -1.298828 v -5.0927734 q 0,-0.4580078 -0.116211,-0.6357422 Q 30.59082,-5.90625 30.310547,-5.90625 q -0.560547,0 -1.05957,0.6972656 V 0 Z"
       inkscape:connector-curvature="0" />
    <path
       id="path4647"
       style="font-size:14px;font-family:AlternateGotNo3DOT, AlternateGotNo3DOT;fill:#039749"
       d="m 33.332031,0 v -6.9589844 h 1.305664 V 0 Z m 0,-7.9775391 v -1.3603515 h 1.305664 v 1.3603515 z"
       inkscape:connector-curvature="0" />
    <path
       id="path4649"
       style="font-size:14px;font-family:AlternateGotNo3DOT, AlternateGotNo3DOT;fill:#039749"
       d="m 35.806641,-2.40625 v -2.1464844 q 0,-0.8134765 0.116211,-1.2373047 0.123046,-0.430664 0.430664,-0.7451171 0.581054,-0.5605469 1.592773,-0.5605469 1.004883,0 1.585938,0.5605469 0.314453,0.3144531 0.430664,0.7382812 0.116211,0.4238281 0.116211,1.2441406 V -2.40625 q 0,0.8203125 -0.116211,1.2509766 -0.116211,0.42382809 -0.430664,0.73828121 -0.574219,0.55371094 -1.585938,0.55371094 -1.018555,0 -1.592773,-0.55371094 -0.307618,-0.31445312 -0.430664,-0.74511721 -0.116211,-0.430664 -0.116211,-1.2441406 z m 1.298828,0.082031 q 0,0.663086 0.198242,0.9707032 0.198242,0.3007812 0.628906,0.3007812 0.4375,0 0.635742,-0.3007812 0.205078,-0.3076172 0.205078,-0.9707032 v -2.3105468 q 0,-0.6699219 -0.198242,-0.9707031 -0.198242,-0.3007813 -0.642578,-0.3007813 -0.430664,0 -0.628906,0.3076172 -0.198242,0.3007812 -0.198242,0.9638672 z"
       inkscape:connector-curvature="0" />
    <path
       id="path4651"
       style="font-size:14px;font-family:AlternateGotNo3DOT, AlternateGotNo3DOT;fill:#039749"
       d="m 43.045898,-1.8183594 1.216797,-0.4238281 q 0.211914,0.6357422 0.478516,0.9160156 0.273437,0.2734375 0.683594,0.2734375 0.321289,0 0.533203,-0.1982422 0.211914,-0.1982421 0.211914,-0.4990234 0,-0.2939453 -0.211914,-0.5195313 -0.211914,-0.2324218 -0.772461,-0.5332031 -0.717774,-0.4033203 -1.004883,-0.5947265 -0.287109,-0.1982422 -0.519531,-0.4375 -0.50586,-0.5263672 -0.50586,-1.319336 0,-0.8476562 0.574219,-1.3945312 0.574219,-0.546875 1.456055,-0.546875 0.833984,0 1.380859,0.4101562 0.553711,0.4033203 0.875,1.2646485 l -1.189453,0.5195312 Q 46.053711,-5.4414062 45.800781,-5.6738281 45.554687,-5.90625 45.171875,-5.90625 q -0.300781,0 -0.492188,0.1708984 -0.191406,0.1708985 -0.191406,0.444336 0,0.2871094 0.225586,0.4990234 0.225586,0.2119141 0.950195,0.6083985 1.066407,0.5810546 1.41504,0.9501953 0.485351,0.5058593 0.485351,1.3125 0,0.92285152 -0.587891,1.49023434 -0.58789,0.56738281 -1.551757,0.56738281 -0.888672,0 -1.462891,-0.47167969 -0.574219,-0.47167969 -0.916016,-1.48339846 z"
       inkscape:connector-curvature="0" />
    <path
       id="path4653"
       style="font-size:14px;font-family:AlternateGotNo3DOT, AlternateGotNo3DOT;fill:#039749"
       d="m 48.384766,-2.40625 v -2.1464844 q 0,-0.8134765 0.116211,-1.2373047 0.123046,-0.430664 0.430664,-0.7451171 0.581054,-0.5605469 1.592773,-0.5605469 1.004883,0 1.585938,0.5605469 0.314453,0.3144531 0.430664,0.7382812 0.116211,0.4238281 0.116211,1.2441406 V -2.40625 q 0,0.8203125 -0.116211,1.2509766 -0.116211,0.42382809 -0.430664,0.73828121 -0.574219,0.55371094 -1.585938,0.55371094 -1.018555,0 -1.592773,-0.55371094 -0.307618,-0.31445312 -0.430664,-0.74511721 -0.116211,-0.430664 -0.116211,-1.2441406 z m 1.298828,0.082031 q 0,0.663086 0.198242,0.9707032 0.198242,0.3007812 0.628906,0.3007812 0.4375,0 0.635742,-0.3007812 0.205078,-0.3076172 0.205078,-0.9707032 v -2.3105468 q 0,-0.6699219 -0.198242,-0.9707031 -0.198242,-0.3007813 -0.642578,-0.3007813 -0.430664,0 -0.628906,0.3076172 -0.198242,0.3007812 -0.198242,0.9638672 z"
       inkscape:connector-curvature="0" />
    <path
       id="path4655"
       style="font-size:14px;font-family:AlternateGotNo3DOT, AlternateGotNo3DOT;fill:#039749"
       d="m 53.8125,0 v -9.3378906 h 1.305664 v 3.0625 q 0.430664,-0.4101563 0.792969,-0.5947266 0.36914,-0.1845703 0.745117,-0.1845703 0.779297,0 1.121094,0.7109375 0.157226,0.3623047 0.21875,0.7929688 0.06152,0.430664 0.06152,1.2373046 v 1.6679688 q 0,0.7998047 -0.06152,1.2373047 -0.06152,0.43066404 -0.21875,0.79296873 -0.341797,0.71093749 -1.121094,0.71093749 -0.375977,0 -0.745117,-0.18457031 -0.362305,-0.18457031 -0.792969,-0.59472656 V 0 Z m 1.305664,-1.4013672 q 0.478516,0.3486328 0.90918,0.3486328 0.205078,0 0.36914,-0.095703 0.164063,-0.1025391 0.232422,-0.2666016 0.08203,-0.1777343 0.102539,-0.3828125 0.02051,-0.211914 0.02051,-0.765625 v -1.8320312 q 0,-0.5537109 -0.02051,-0.7587891 -0.02051,-0.211914 -0.102539,-0.3896484 -0.06836,-0.1640625 -0.232422,-0.2597656 -0.164062,-0.1025391 -0.36914,-0.1025391 -0.430664,0 -0.90918,0.3486328 z"
       inkscape:connector-curvature="0" />
    <path
       id="path4657"
       style="font-size:14px;font-family:AlternateGotNo3DOT, AlternateGotNo3DOT;fill:#039749"
       d="m 59.226562,0 v -6.9589844 h 1.305665 v 1.203125 q 0.259765,-0.6904297 0.649414,-0.9912109 0.396484,-0.3076172 1.011718,-0.3076172 v 1.5107422 q -0.328125,-0.1230469 -0.628906,-0.1230469 -0.533203,0 -0.813476,0.3623047 -0.136719,0.1777344 -0.177735,0.3964844 -0.04102,0.21875 -0.04102,0.7246094 V 0 Z"
       inkscape:connector-curvature="0" />
    <path
       id="path4659"
       style="font-size:14px;font-family:AlternateGotNo3DOT, AlternateGotNo3DOT;fill:#039749"
       d="m 62.767578,-2.4746094 v -2.078125 q 0,-0.8271484 0.116211,-1.2441406 0.123047,-0.4238281 0.444336,-0.7382812 0.581055,-0.5605469 1.579102,-0.5605469 1.080078,0 1.640625,0.6425781 0.293945,0.3417969 0.410156,0.7861328 0.123047,0.444336 0.123047,1.2578125 v 1.1484375 h -3.014649 v 0.6152344 q 0,0.9091797 0.184571,1.2509766 0.191406,0.3417968 0.697265,0.3417968 0.430664,0 0.635742,-0.2802734 0.205078,-0.2871094 0.205078,-0.8955078 V -2.40625 h 1.305665 q -0.01367,0.7587891 -0.06836,1.0800781 -0.04785,0.3144532 -0.225586,0.58105471 -0.533203,0.88183594 -1.852539,0.88183594 -1.223633,0 -1.75,-0.72460937 -0.232422,-0.32812501 -0.334961,-0.75878908 -0.0957,-0.430664 -0.0957,-1.1279297 z m 1.298828,-1.9345703 h 1.708985 v -0.3759765 q 0,-0.6152344 -0.205079,-0.8886719 -0.198242,-0.2734375 -0.649414,-0.2734375 -0.451171,0 -0.65625,0.2734375 -0.198242,0.2734375 -0.198242,0.8886719 z"
       inkscape:connector-curvature="0" />
    <path
       id="path4661"
       style="font-size:14px;font-family:AlternateGotNo3DOT, AlternateGotNo3DOT;fill:#039749"
       d="m 70.382812,0 v -9.3378906 h 1.305665 V 0 Z"
       inkscape:connector-curvature="0" />
    <path
       id="path4663"
       style="font-size:14px;font-family:AlternateGotNo3DOT, AlternateGotNo3DOT;fill:#039749"
       d="m 72.816406,-1.75 q 0,-0.6699219 0.273438,-1.1210938 0.280273,-0.4511718 0.929687,-0.8408203 0.341797,-0.21875 1.777344,-0.8408203 v -0.3623047 q 0,-0.5332031 -0.157227,-0.758789 -0.157226,-0.2324219 -0.526367,-0.2324219 -0.36914,0 -0.553711,0.2324219 -0.177734,0.2324219 -0.21875,0.758789 h -1.374023 q 0.08203,-1.0458984 0.676758,-1.5927734 0.594726,-0.546875 1.647461,-0.546875 0.957031,0 1.428711,0.5332031 0.21875,0.2734375 0.293945,0.5878907 0.08203,0.3144531 0.08203,0.9501953 v 3.0966797 q 0,0.7724609 0.02734,1.12792964 Q 77.157227,-0.40332031 77.25293,0 h -1.34668 q -0.109375,-0.31445313 -0.109375,-0.81347656 -0.47168,0.51269531 -0.813477,0.7109375 -0.334961,0.19824218 -0.751953,0.19824218 -0.663086,0 -1.039062,-0.4921875 Q 72.816406,-0.88867188 72.816406,-1.75 Z m 1.367188,-0.082031 q 0,0.3417968 0.18457,0.5605468 0.191406,0.21875 0.478516,0.21875 0.553711,0 0.950195,-0.6289062 v -1.9003907 q -0.868164,0.4648438 -1.244141,0.8681641 -0.36914,0.4033203 -0.36914,0.881836 z"
       inkscape:connector-curvature="0" />
    <path
       id="path4665"
       style="font-size:14px;font-family:AlternateGotNo3DOT, AlternateGotNo3DOT;fill:#039749"
       d="m 80.691406,0 v -9.3378906 h 2.160156 q 1.3125,0 2.016602,0.6152343 0.710938,0.6152344 0.710938,1.7500001 0,0.8271484 -0.375977,1.3398437 -0.369141,0.5058594 -1.162109,0.7451172 0.943359,0.2734375 1.353515,0.7998047 0.410156,0.5195312 0.410156,1.4423828 0,1.2441406 -0.738281,1.94824218 Q 84.328125,0 83.029297,0 Z m 1.442383,-1.3330078 h 0.731445 q 0.69043,0 1.066407,-0.3417969 0.375976,-0.3417969 0.375976,-0.9707031 0,-0.7041016 -0.451172,-1.1279297 -0.451172,-0.4238281 -1.203125,-0.4238281 h -0.519531 z m 0,-4.1972656 h 0.519531 q 0.663086,0 1.059571,-0.3554688 0.396484,-0.3554687 0.396484,-0.9570312 0,-0.5400391 -0.348633,-0.8681641 -0.334961,-0.2939453 -1.080078,-0.2939453 h -0.546875 z"
       inkscape:connector-curvature="0" />
    <path
       id="path4667"
       style="font-size:14px;font-family:AlternateGotNo3DOT, AlternateGotNo3DOT;fill:#039749"
       d="m 86.953125,0 v -6.9589844 h 1.305664 V 0 Z m 0,-7.9775391 v -1.3603515 h 1.305664 v 1.3603515 z"
       inkscape:connector-curvature="0" />
    <path
       id="path4669"
       style="font-size:14px;font-family:AlternateGotNo3DOT, AlternateGotNo3DOT;fill:#039749"
       d="m 89.427734,-2.40625 v -2.1464844 q 0,-0.8134765 0.116211,-1.2373047 0.123047,-0.430664 0.430664,-0.7451171 0.581055,-0.5605469 1.592774,-0.5605469 1.004883,0 1.585937,0.5605469 0.314453,0.3144531 0.430664,0.7382812 0.116211,0.4238281 0.116211,1.2441406 V -2.40625 q 0,0.8203125 -0.116211,1.2509766 -0.116211,0.42382809 -0.430664,0.73828121 -0.574218,0.55371094 -1.585937,0.55371094 -1.018555,0 -1.592774,-0.55371094 -0.307617,-0.31445312 -0.430664,-0.74511721 -0.116211,-0.430664 -0.116211,-1.2441406 z m 1.298828,0.082031 q 0,0.663086 0.198243,0.9707032 0.198242,0.3007812 0.628906,0.3007812 0.4375,0 0.635742,-0.3007812 0.205078,-0.3076172 0.205078,-0.9707032 v -2.3105468 q 0,-0.6699219 -0.198242,-0.9707031 -0.198242,-0.3007813 -0.642578,-0.3007813 -0.430664,0 -0.628906,0.3076172 -0.198243,0.3007812 -0.198243,0.9638672 z"
       inkscape:connector-curvature="0" />
    <path
       id="path4671"
       style="font-size:14px;font-family:AlternateGotNo3DOT, AlternateGotNo3DOT;fill:#039749"
       d="m 94.814453,-2.6455078 v -1.6679688 q 0,-0.8066406 0.06152,-1.2373046 0.06152,-0.4306641 0.21875,-0.7929688 0.341796,-0.7109375 1.121093,-0.7109375 0.375977,0 0.738282,0.1845703 0.36914,0.1845703 0.799804,0.5947266 v -3.0625 H 99.05273 V 0 h -1.298828 v -0.68359375 q -0.430664,0.41015625 -0.799804,0.59472656 -0.362305,0.18457031 -0.738282,0.18457031 -0.779297,0 -1.121093,-0.71093749 -0.157227,-0.36230469 -0.21875,-0.79296873 -0.06152,-0.4375 -0.06152,-1.2373047 z m 1.298828,0.082031 q 0,0.546875 0.02051,0.7587891 0.02734,0.2119141 0.109375,0.3896484 0.06836,0.1640625 0.232422,0.2666016 0.164062,0.095703 0.369141,0.095703 0.430664,0 0.909179,-0.3486328 v -4.15625 Q 97.275391,-5.90625 96.844727,-5.90625 q -0.205079,0 -0.369141,0.1025391 -0.164063,0.095703 -0.232422,0.2597656 -0.08203,0.1777344 -0.109375,0.3896484 -0.02051,0.2119141 -0.02051,0.7587891 z"
       inkscape:connector-curvature="0" />
    <path
       id="path4673"
       style="font-size:14px;font-family:AlternateGotNo3DOT, AlternateGotNo3DOT;fill:#039749"
       d="m 100.26953,0 v -6.9589844 h 1.30567 V 0 Z m 0,-7.9775391 v -1.3603515 h 1.30567 v 1.3603515 z"
       inkscape:connector-curvature="0" />
    <path
       id="path4675"
       style="font-size:14px;font-family:AlternateGotNo3DOT, AlternateGotNo3DOT;fill:#039749"
       d="m 102.32031,-6.9589844 h 1.3877 l 0.99804,4.4228516 0.88184,-4.4228516 h 1.36719 L 105.40332,0 h -1.37402 z"
       inkscape:connector-curvature="0" />
    <path
       id="path4677"
       style="font-size:14px;font-family:AlternateGotNo3DOT, AlternateGotNo3DOT;fill:#039749"
       d="m 107.66602,-2.4746094 v -2.078125 q 0,-0.8271484 0.11621,-1.2441406 0.12304,-0.4238281 0.44433,-0.7382812 0.58106,-0.5605469 1.5791,-0.5605469 1.08008,0 1.64063,0.6425781 0.29394,0.3417969 0.41016,0.7861328 0.12304,0.444336 0.12304,1.2578125 v 1.1484375 h -3.01465 v 0.6152344 q 0,0.9091797 0.18457,1.2509766 0.19141,0.3417968 0.69727,0.3417968 0.43066,0 0.63574,-0.2802734 0.20508,-0.2871094 0.20508,-0.8955078 V -2.40625 h 1.30566 q -0.0137,0.7587891 -0.0684,1.0800781 -0.0479,0.3144532 -0.22558,0.58105471 -0.5332,0.88183594 -1.85254,0.88183594 -1.22363,0 -1.75,-0.72460937 -0.23242,-0.32812501 -0.33496,-0.75878908 -0.0957,-0.430664 -0.0957,-1.1279297 z m 1.29882,-1.9345703 h 1.70899 v -0.3759765 q 0,-0.6152344 -0.20508,-0.8886719 -0.19824,-0.2734375 -0.64941,-0.2734375 -0.45118,0 -0.65625,0.2734375 -0.19825,0.2734375 -0.19825,0.8886719 z"
       inkscape:connector-curvature="0" />
    <path
       id="path4679"
       style="font-size:14px;font-family:AlternateGotNo3DOT, AlternateGotNo3DOT;fill:#039749"
       d="m 113.14844,0 v -6.9589844 h 1.30566 v 1.203125 q 0.25977,-0.6904297 0.64942,-0.9912109 0.39648,-0.3076172 1.01171,-0.3076172 v 1.5107422 q -0.32812,-0.1230469 -0.6289,-0.1230469 -0.5332,0 -0.81348,0.3623047 -0.13672,0.1777344 -0.17773,0.3964844 -0.041,0.21875 -0.041,0.7246094 V 0 Z"
       inkscape:connector-curvature="0" />
    <path
       id="path4681"
       style="font-size:14px;font-family:AlternateGotNo3DOT, AlternateGotNo3DOT;fill:#039749"
       d="m 116.40918,-1.8183594 1.2168,-0.4238281 q 0.21191,0.6357422 0.47851,0.9160156 0.27344,0.2734375 0.6836,0.2734375 0.32129,0 0.5332,-0.1982422 0.21191,-0.1982421 0.21191,-0.4990234 0,-0.2939453 -0.21191,-0.5195313 -0.21191,-0.2324218 -0.77246,-0.5332031 -0.71778,-0.4033203 -1.00488,-0.5947265 -0.28711,-0.1982422 -0.51954,-0.4375 -0.50586,-0.5263672 -0.50586,-1.319336 0,-0.8476562 0.57422,-1.3945312 0.57422,-0.546875 1.45606,-0.546875 0.83398,0 1.38086,0.4101562 0.55371,0.4033203 0.875,1.2646485 l -1.18946,0.5195312 q -0.19824,-0.540039 -0.45117,-0.7724609 -0.24609,-0.2324219 -0.6289,-0.2324219 -0.30078,0 -0.49219,0.1708984 -0.19141,0.1708985 -0.19141,0.444336 0,0.2871094 0.22559,0.4990234 0.22558,0.2119141 0.95019,0.6083985 1.06641,0.5810546 1.41504,0.9501953 0.48535,0.5058593 0.48535,1.3125 0,0.92285152 -0.58789,1.49023434 -0.58789,0.56738281 -1.55175,0.56738281 -0.88868,0 -1.46289,-0.47167969 -0.57422,-0.47167969 -0.91602,-1.48339846 z"
       inkscape:connector-curvature="0" />
    <path
       id="path4683"
       style="font-size:14px;font-family:AlternateGotNo3DOT, AlternateGotNo3DOT;fill:#039749"
       d="m 121.78906,0 v -6.9589844 h 1.30567 V 0 Z m 0,-7.9775391 v -1.3603515 h 1.30567 v 1.3603515 z"
       inkscape:connector-curvature="0" />
    <path
       id="path4685"
       style="font-size:14px;font-family:AlternateGotNo3DOT, AlternateGotNo3DOT;fill:#039749"
       d="m 124.26367,-2.6455078 v -1.6679688 q 0,-0.8066406 0.0615,-1.2373046 0.0615,-0.4306641 0.21875,-0.7929688 0.34179,-0.7109375 1.12109,-0.7109375 0.37598,0 0.73828,0.1845703 0.36914,0.1845703 0.79981,0.5947266 v -3.0625 h 1.29882 V 0 h -1.29882 v -0.68359375 q -0.43067,0.41015625 -0.79981,0.59472656 -0.3623,0.18457031 -0.73828,0.18457031 -0.7793,0 -1.12109,-0.71093749 -0.15723,-0.36230469 -0.21875,-0.79296873 -0.0615,-0.4375 -0.0615,-1.2373047 z m 1.29883,0.082031 q 0,0.546875 0.0205,0.7587891 0.0273,0.2119141 0.10937,0.3896484 0.0684,0.1640625 0.23242,0.2666016 0.16407,0.095703 0.36915,0.095703 0.43066,0 0.90918,-0.3486328 v -4.15625 q -0.47852,-0.3486328 -0.90918,-0.3486328 -0.20508,0 -0.36915,0.1025391 -0.16406,0.095703 -0.23242,0.2597656 -0.082,0.1777344 -0.10937,0.3896484 -0.0205,0.2119141 -0.0205,0.7587891 z"
       inkscape:connector-curvature="0" />
    <path
       id="path4687"
       style="font-size:14px;font-family:AlternateGotNo3DOT, AlternateGotNo3DOT;fill:#039749"
       d="m 129.63672,-1.75 q 0,-0.6699219 0.27344,-1.1210938 0.28027,-0.4511718 0.92968,-0.8408203 0.3418,-0.21875 1.77735,-0.8408203 v -0.3623047 q 0,-0.5332031 -0.15723,-0.758789 -0.15723,-0.2324219 -0.52637,-0.2324219 -0.36914,0 -0.55371,0.2324219 -0.17773,0.2324219 -0.21875,0.758789 h -1.37402 q 0.082,-1.0458984 0.67676,-1.5927734 0.59472,-0.546875 1.64746,-0.546875 0.95703,0 1.42871,0.5332031 0.21875,0.2734375 0.29394,0.5878907 0.082,0.3144531 0.082,0.9501953 v 3.0966797 q 0,0.7724609 0.0273,1.12792964 Q 133.97754,-0.40332031 134.07324,0 h -1.34668 q -0.10937,-0.31445313 -0.10937,-0.81347656 -0.47168,0.51269531 -0.81348,0.7109375 -0.33496,0.19824218 -0.75195,0.19824218 -0.66309,0 -1.03906,-0.4921875 Q 129.63672,-0.88867188 129.63672,-1.75 Z m 1.36719,-0.082031 q 0,0.3417968 0.18457,0.5605468 0.1914,0.21875 0.47851,0.21875 0.55371,0 0.9502,-0.6289062 v -1.9003907 q -0.86817,0.4648438 -1.24414,0.8681641 -0.36914,0.4033203 -0.36914,0.881836 z"
       inkscape:connector-curvature="0" />
    <path
       id="path4689"
       style="font-size:14px;font-family:AlternateGotNo3DOT, AlternateGotNo3DOT;fill:#039749"
       d="m 135.22852,-2.6455078 v -1.6679688 q 0,-0.8066406 0.0615,-1.2373046 0.0615,-0.4306641 0.21875,-0.7929688 0.3418,-0.7109375 1.12109,-0.7109375 0.37598,0 0.73828,0.1845703 0.36914,0.1845703 0.79981,0.5947266 v -3.0625 h 1.29883 V 0 h -1.29883 v -0.68359375 q -0.43067,0.41015625 -0.79981,0.59472656 -0.3623,0.18457031 -0.73828,0.18457031 -0.77929,0 -1.12109,-0.71093749 -0.15723,-0.36230469 -0.21875,-0.79296873 -0.0615,-0.4375 -0.0615,-1.2373047 z m 1.29882,0.082031 q 0,0.546875 0.0205,0.7587891 0.0273,0.2119141 0.10938,0.3896484 0.0684,0.1640625 0.23242,0.2666016 0.16406,0.095703 0.36914,0.095703 0.43066,0 0.90918,-0.3486328 v -4.15625 q -0.47852,-0.3486328 -0.90918,-0.3486328 -0.20508,0 -0.36914,0.1025391 -0.16406,0.095703 -0.23242,0.2597656 -0.082,0.1777344 -0.10938,0.3896484 -0.0205,0.2119141 -0.0205,0.7587891 z"
       inkscape:connector-curvature="0" />
    <path
       id="path4691"
       style="font-size:14px;font-family:AlternateGotNo3DOT, AlternateGotNo3DOT;fill:#039749"
       d="m 142.92578,0 v -9.3378906 h 2.16016 q 1.3125,0 2.0166,0.6152343 0.71094,0.6152344 0.71094,1.7500001 0,0.8271484 -0.37598,1.3398437 -0.36914,0.5058594 -1.16211,0.7451172 0.94336,0.2734375 1.35352,0.7998047 0.41015,0.5195312 0.41015,1.4423828 0,1.2441406 -0.73828,1.94824218 Q 146.5625,0 145.26367,0 Z m 1.44238,-1.3330078 h 0.73145 q 0.69043,0 1.06641,-0.3417969 0.37597,-0.3417969 0.37597,-0.9707031 0,-0.7041016 -0.45117,-1.1279297 -0.45117,-0.4238281 -1.20312,-0.4238281 h -0.51954 z m 0,-4.1972656 h 0.51954 q 0.66308,0 1.05957,-0.3554688 0.39648,-0.3554687 0.39648,-0.9570312 0,-0.5400391 -0.34863,-0.8681641 -0.33496,-0.2939453 -1.08008,-0.2939453 h -0.54688 z"
       inkscape:connector-curvature="0" />
    <path
       id="path4693"
       style="font-size:14px;font-family:AlternateGotNo3DOT, AlternateGotNo3DOT;fill:#039749"
       d="m 149.1875,0 v -6.9589844 h 1.30566 V 0 Z m 0,-7.9775391 v -1.3603515 h 1.30566 v 1.3603515 z"
       inkscape:connector-curvature="0" />
    <path
       id="path4695"
       style="font-size:14px;font-family:AlternateGotNo3DOT, AlternateGotNo3DOT;fill:#039749"
       d="m 151.66211,-2.40625 v -2.1464844 q 0,-0.8134765 0.11621,-1.2373047 0.12305,-0.430664 0.43066,-0.7451171 0.58106,-0.5605469 1.59278,-0.5605469 1.00488,0 1.58594,0.5605469 0.31445,0.3144531 0.43066,0.7382812 0.11621,0.4238281 0.11621,1.2441406 V -2.40625 q 0,0.8203125 -0.11621,1.2509766 -0.11621,0.42382809 -0.43066,0.73828121 -0.57422,0.55371094 -1.58594,0.55371094 -1.01856,0 -1.59278,-0.55371094 -0.30761,-0.31445312 -0.43066,-0.74511721 -0.11621,-0.430664 -0.11621,-1.2441406 z m 1.29883,0.082031 q 0,0.663086 0.19824,0.9707032 0.19824,0.3007812 0.62891,0.3007812 0.4375,0 0.63574,-0.3007812 0.20508,-0.3076172 0.20508,-0.9707032 v -2.3105468 q 0,-0.6699219 -0.19825,-0.9707031 -0.19824,-0.3007813 -0.64257,-0.3007813 -0.43067,0 -0.62891,0.3076172 -0.19824,0.3007812 -0.19824,0.9638672 z"
       inkscape:connector-curvature="0" />
    <path
       id="path4697"
       style="font-size:14px;font-family:AlternateGotNo3DOT, AlternateGotNo3DOT;fill:#039749"
       d="m 157.08984,0 v -9.3378906 h 1.30567 V 0 Z"
       inkscape:connector-curvature="0" />
    <path
       id="path4699"
       style="font-size:14px;font-family:AlternateGotNo3DOT, AlternateGotNo3DOT;fill:#039749"
       d="m 159.56445,-2.40625 v -2.1464844 q 0,-0.8134765 0.11621,-1.2373047 0.12305,-0.430664 0.43067,-0.7451171 0.58105,-0.5605469 1.59277,-0.5605469 1.00488,0 1.58594,0.5605469 0.31445,0.3144531 0.43066,0.7382812 0.11621,0.4238281 0.11621,1.2441406 V -2.40625 q 0,0.8203125 -0.11621,1.2509766 -0.11621,0.42382809 -0.43066,0.73828121 -0.57422,0.55371094 -1.58594,0.55371094 -1.01855,0 -1.59277,-0.55371094 -0.30762,-0.31445312 -0.43067,-0.74511721 -0.11621,-0.430664 -0.11621,-1.2441406 z m 1.29883,0.082031 q 0,0.663086 0.19824,0.9707032 0.19825,0.3007812 0.62891,0.3007812 0.4375,0 0.63574,-0.3007812 0.20508,-0.3076172 0.20508,-0.9707032 v -2.3105468 q 0,-0.6699219 -0.19824,-0.9707031 -0.19824,-0.3007813 -0.64258,-0.3007813 -0.43066,0 -0.62891,0.3076172 -0.19824,0.3007812 -0.19824,0.9638672 z m 0.4375,-5.7695312 0.62891,-1.2441406 h 1.36035 l -1.01172,1.2441406 z"
       inkscape:connector-curvature="0" />
    <path
       id="path4701"
       style="font-size:14px;font-family:AlternateGotNo3DOT, AlternateGotNo3DOT;fill:#039749"
       d="m 164.71191,1.2167969 q 0,-0.41015627 0.25293,-0.68359378 0.25977,-0.26660156 0.84082,-0.46484375 -0.4375,-0.17773437 -0.6289,-0.3828125 -0.18457,-0.21191406 -0.18457,-0.52636718 0,-0.40332029 0.23926,-0.64257809 0.23925,-0.2392578 0.84082,-0.4375 -0.6084,-0.3212891 -0.88868,-0.9091797 -0.27343,-0.5878907 -0.27343,-1.5654297 0,-1.3056641 0.54004,-1.9824219 0.54687,-0.6767578 1.5996,-0.6767578 0.5879,0 0.97754,0.2050781 0.39649,0.2050782 0.71778,0.6767578 0.12988,-0.4716796 0.41699,-0.6767578 0.25293,-0.1777343 0.7041,-0.1777343 0.0479,0 0.0957,0 v 1.3876953 q -0.21191,-0.1845703 -0.44433,-0.1845703 -0.30762,0 -0.51953,0.2666015 0.13672,0.5400391 0.13672,1.1484375 0,1.3056641 -0.54004,1.9892578 -0.53321,0.6835938 -1.5586,0.6835938 -0.15722,0 -0.49218,-0.041016 -0.30762,0.1503906 -0.30762,0.4033203 0,0.2255859 0.30762,0.3076172 0.1914,0.041016 1.03906,0.0888671 0.67676,0.0410156 1.01855,0.12304687 0.3418,0.0751953 0.63574,0.25292969 0.31446,0.19824219 0.48536,0.55371094 0.17089,0.34863281 0.17089,0.79296875 0,0.88867195 -0.67675,1.30566415 -0.67676,0.4238281 -2.09864,0.4238281 -2.40625,0 -2.40625,-1.2578121 z m 1.64063,-0.99121096 q -0.30762,0.25976562 -0.30762,0.57421875 0,0.31445311 0.29395,0.44433591 0.29394,0.1298828 0.97754,0.1298828 1.333,0 1.333,-0.58789059 0,-0.39648437 -0.56054,-0.47851562 -0.14356,-0.0205078 -1.01172,-0.0546875 -0.35547,-0.0273437 -0.6836,-0.0683594 l -0.0137,0.0205078 q -0.0137,0.0136719 -0.0273,0.0205078 z m -0.11621,-4.23144534 q 0,1.1210938 0.78613,1.1210938 0.78613,0 0.78613,-1.1210938 v -0.765625 q 0,-1.1347656 -0.78613,-1.1347656 -0.78613,0 -0.78613,1.1347656 z"
       inkscape:connector-curvature="0" />
    <path
       id="path4703"
       style="font-size:14px;font-family:AlternateGotNo3DOT, AlternateGotNo3DOT;fill:#039749"
       d="m 170.65234,0 v -6.9589844 h 1.30567 V 0 Z m 0,-7.9775391 v -1.3603515 h 1.30567 v 1.3603515 z"
       inkscape:connector-curvature="0" />
    <path
       id="path4705"
       style="font-size:14px;font-family:AlternateGotNo3DOT, AlternateGotNo3DOT;fill:#039749"
       d="m 173.12695,-2.4609375 v -2.0166016 q 0,-0.7177734 0.0957,-1.1416015 0.0957,-0.4306641 0.33496,-0.7519531 0.52636,-0.7246094 1.75,-0.7246094 1.08691,0 1.65429,0.6289062 0.25977,0.2802735 0.37598,0.6699219 0.11621,0.3896484 0.11621,0.9980469 v 0.2460937 h -1.30566 v -0.1777343 q 0,-0.6083985 -0.20508,-0.8886719 -0.20508,-0.2871094 -0.63574,-0.2871094 -0.50586,0 -0.69727,0.3417969 -0.18457,0.3417969 -0.18457,1.2509765 v 1.6816407 q 0,0.868164 0.1709,1.203125 0.19141,0.3759765 0.71094,0.3759765 0.43066,0 0.63574,-0.2939453 0.20508,-0.2939453 0.20508,-0.9228516 v -0.1914062 h 1.30566 v 0.2597656 q 0,0.6220703 -0.11621,1.0185547 -0.11621,0.39648439 -0.37598,0.67675783 -0.58105,0.64257812 -1.65429,0.64257812 -1.22364,0 -1.75,-0.72460937 -0.23926,-0.32128907 -0.33496,-0.73828128 -0.0957,-0.4169922 -0.0957,-1.1347656 z"
       inkscape:connector-curvature="0" />
    <path
       id="path4707"
       style="font-size:14px;font-family:AlternateGotNo3DOT, AlternateGotNo3DOT;fill:#039749"
       d="m 178.36328,-1.75 q 0,-0.6699219 0.27344,-1.1210938 0.28027,-0.4511718 0.92969,-0.8408203 0.34179,-0.21875 1.77734,-0.8408203 v -0.3623047 q 0,-0.5332031 -0.15723,-0.758789 -0.15722,-0.2324219 -0.52636,-0.2324219 -0.36914,0 -0.55371,0.2324219 -0.17774,0.2324219 -0.21875,0.758789 h -1.37403 q 0.082,-1.0458984 0.67676,-1.5927734 0.59473,-0.546875 1.64746,-0.546875 0.95703,0 1.42871,0.5332031 0.21875,0.2734375 0.29395,0.5878907 0.082,0.3144531 0.082,0.9501953 v 3.0966797 q 0,0.7724609 0.0273,1.12792964 Q 182.7041,-0.40332031 182.7998,0 h -1.34668 q -0.10937,-0.31445313 -0.10937,-0.81347656 -0.47168,0.51269531 -0.81348,0.7109375 -0.33496,0.19824218 -0.75195,0.19824218 -0.66309,0 -1.03906,-0.4921875 Q 178.36328,-0.88867188 178.36328,-1.75 Z m 1.36719,-0.082031 q 0,0.3417968 0.18457,0.5605468 0.19141,0.21875 0.47851,0.21875 0.55372,0 0.9502,-0.6289062 v -1.9003907 q -0.86816,0.4648438 -1.24414,0.8681641 -0.36914,0.4033203 -0.36914,0.881836 z"
       inkscape:connector-curvature="0" />
  </g>
  <path
     style="fill:#cc0000;fill-rule:evenodd"
     id="path4019"
     d="M 24.7,50.97 V 46.2 A 20.57,20.57 0 0 0 45.08,25.42 20.57,20.57 0 0 0 24.74,4.64 20.44,20.44 0 0 0 5.05,20.23 l -0.07,0.28 -3,2.65 L 0.54,19.6 0.66,19.07 A 25,25 0 0 1 24.74,0 c 13.74,0 24.88,11.39 24.88,25.42 0,14.03 -11.19,25.55 -24.92,25.55 z"
     class="cls-3"
     inkscape:connector-curvature="0" />
  <polygon
     transform="translate(-12.68,-6.95)"
     style="fill:#0071b8;fill-rule:evenodd"
     id="polygon4021"
     points="41.11,14.38 39.57,14.24 37.67,14.18 37.67,12.58 39.25,12.66 40.67,12.88 "
     class="cls-4" />
  <path
     style="fill:#0071b8;fill-rule:evenodd"
     id="path4023"
     d="m 33.1,7.97 -1.84,-0.28 -2,-0.18 -0.13,-0.52 -0.31,-0.94 1.55,0.39 c 0.6,0.19 1.2,0.41 1.78,0.65 l 0.77,0.37 z"
     class="cls-4"
     inkscape:connector-curvature="0" />
  <polygon
     transform="translate(-12.68,-6.95)"
     style="fill:#0071b8;fill-rule:evenodd"
     id="polygon4025"
     points="41.78,17.06 39.99,16.87 37.67,16.79 37.67,14.98 38.94,15.02 41.35,15.24 "
     class="cls-4" />
  <polygon
     transform="translate(-12.68,-6.95)"
     style="fill:#0071b8;fill-rule:evenodd"
     id="polygon4027"
     points="46.5,17.17 46.65,17.74 44.34,17.33 42.58,17.14 42.13,15.31 43.34,15.42 46.08,15.83 "
     class="cls-4" />
  <polygon
     transform="translate(-12.68,-6.95)"
     style="fill:#0071b8;fill-rule:evenodd"
     id="polygon4029"
     points="49.63,16.99 50.11,17.43 50.37,18.49 48.76,18.1 47.43,17.87 46.82,15.94 47.83,16.1 48.66,16.26 "
     class="cls-4" />
  <polygon
     transform="translate(-12.68,-6.95)"
     style="fill:#0071b8;fill-rule:evenodd"
     id="polygon4031"
     points="42.27,19.13 42.46,20.21 40.28,20 37.67,19.91 37.67,17.51 39.08,17.57 41.98,17.87 "
     class="cls-4" />
  <polygon
     transform="translate(-12.68,-6.95)"
     style="fill:#0071b8;fill-rule:evenodd"
     id="polygon4033"
     points="46.89,18.63 47.04,19.17 47.41,20.86 44.61,20.42 43.23,20.29 42.88,18.32 42.79,17.96 43.47,18.03 "
     class="cls-4" />
  <polygon
     transform="translate(-12.68,-6.95)"
     style="fill:#0071b8;fill-rule:evenodd"
     id="polygon4035"
     points="50.84,20.47 51.01,21.56 49,21.12 48.19,20.99 47.67,18.76 47.95,18.81 50.6,19.44 "
     class="cls-4" />
  <polygon
     transform="translate(-12.68,-6.95)"
     style="fill:#0071b8;fill-rule:evenodd"
     id="polygon4037"
     points="53.38,21.11 53.49,21.29 53.61,22.15 53.45,22.1 51.66,21.7 51.6,21.33 51.19,19.58 52.47,19.89 "
     class="cls-4" />
  <polygon
     transform="translate(-12.68,-6.95)"
     style="fill:#0071b8;fill-rule:evenodd"
     id="polygon4039"
     points="37.67,24.79 37.67,20.82 39.98,20.9 40.25,20.92 42.61,21.14 42.97,23.26 43.14,24.93 42.98,24.92 41.88,24.87 41.63,24.86 41.35,24.85 37.73,24.79 "
     class="cls-4" />
  <polygon
     transform="translate(-12.68,-6.95)"
     style="fill:#0071b8;fill-rule:evenodd"
     id="polygon4041"
     points="43.66,22.72 43.39,21.22 44.26,21.3 44.67,21.36 47.58,21.81 47.83,23.22 48.08,25.25 47.23,25.18 46.14,25.09 45.65,25.06 45.08,25.02 43.9,24.96 "
     class="cls-4" />
  <polygon
     transform="translate(-12.68,-6.95)"
     style="fill:#0071b8;fill-rule:evenodd"
     id="polygon4043"
     points="48.39,21.93 48.6,21.97 49.09,22.06 51.16,22.5 51.32,23.54 51.5,25.59 51.34,25.57 50.41,25.46 49.68,25.4 48.89,25.31 48.87,25.03 "
     class="cls-4" />
  <polygon
     transform="translate(-12.68,-6.95)"
     style="fill:#0071b8;fill-rule:evenodd"
     id="polygon4045"
     points="53.03,22.91 53.54,23.03 53.75,23.09 53.93,24.41 54.04,25.9 53.75,25.87 52.54,25.7 52.2,25.67 52.02,23.91 51.82,22.65 "
     class="cls-4" />
  <polygon
     transform="translate(-12.68,-6.95)"
     style="fill:#0071b8;fill-rule:evenodd"
     id="polygon4047"
     points="55.36,24.84 55.78,26.14 55.4,26.09 54.73,25.99 54.67,25.19 54.4,23.27 54.65,23.33 "
     class="cls-4" />
  <path
     style="fill:#0071b8;fill-rule:evenodd"
     id="path4049"
     d="m 42.13,24.73 v -0.17 c 0.06,-1.42 0.06,-2.83 0,-4.23 v -0.47 l 1.29,0.21 v 0.08 a 20.67,20.67 0 0 1 0.46,2.37 l 0.14,2.21 z"
     class="cls-4"
     inkscape:connector-curvature="0" />
  <path
     style="fill:#0071b8;fill-rule:evenodd"
     id="path4051"
     d="m 42.13,25.57 v 0.17 c 0.06,1.42 0.06,2.83 0,4.23 v 0.48 l 1.29,-0.22 v -0.08 a 20.26,20.26 0 0 0 0.46,-2.37 l 0.14,-2.21 z"
     class="cls-4"
     inkscape:connector-curvature="0" />
  <path
     style="fill:#0071b8;fill-rule:evenodd"
     id="path4053"
     d="M 39.7,24.73 V 22.2 l -0.12,-2.61 1.79,0.19 0.05,1.86 c 0,0.71 0,1.42 -0.05,2.13 l -0.06,1 z"
     class="cls-4"
     inkscape:connector-curvature="0" />
  <path
     style="fill:#0071b8;fill-rule:evenodd"
     id="path4055"
     d="m 36.46,24.73 v -3.21 l -0.14,-2.27 2.61,0.27 v 0.18 c 0,1.05 0.07,2.11 0,3.17 l -0.09,1.86 z"
     class="cls-4"
     inkscape:connector-curvature="0" />
  <path
     style="fill:#0071b8;fill-rule:evenodd"
     id="path4057"
     d="m 31.59,24.73 v -0.12 c 0,-1.48 0,-2.95 -0.15,-4.43 l -0.12,-1.29 2.15,0.08 2,0.2 0.1,1.21 c 0.07,1.38 0.09,2.78 0,4.17 v 0.18 z"
     class="cls-4"
     inkscape:connector-curvature="0" />
  <path
     style="fill:#0071b8;fill-rule:evenodd"
     id="path4059"
     d="m 39.7,25.56 v 2.53 l -0.12,2.61 1.79,-0.19 0.05,-1.86 c 0,-0.71 0,-1.42 -0.05,-2.13 l -0.06,-1 z"
     class="cls-4"
     inkscape:connector-curvature="0" />
  <path
     style="fill:#0071b8;fill-rule:evenodd"
     id="path4061"
     d="m 36.46,25.56 v 3.21 l -0.14,2.28 2.61,-0.27 V 30.6 c 0,-1.05 0.07,-2.11 0,-3.17 l -0.09,-1.86 z"
     class="cls-4"
     inkscape:connector-curvature="0" />
  <path
     style="fill:#0071b8;fill-rule:evenodd"
     id="path4063"
     d="m 31.59,25.56 v 0.12 c 0,1.48 0,3 -0.15,4.43 l -0.12,1.29 2.15,-0.08 2,-0.2 0.1,-1.21 c 0.07,-1.38 0.09,-2.78 0,-4.18 v -0.17 z"
     class="cls-4"
     inkscape:connector-curvature="0" />
  <path
     style="fill:#0071b8;fill-rule:evenodd"
     id="path4065"
     d="m 24.99,24.73 v -6.06 l 5.56,0.19 0.17,1.58 c 0.09,1.38 0.14,2.76 0.14,4.14 v 0.15 z"
     class="cls-4"
     inkscape:connector-curvature="0" />
  <polygon
     transform="translate(-12.68,-6.95)"
     style="fill:#0071b8;fill-rule:evenodd"
     id="polygon4067"
     points="32.97,13.53 34.51,13.44 36.42,13.4 36.42,12.43 34.83,12.48 33.42,12.61 "
     class="cls-4" />
  <path
     style="fill:#0071b8;fill-rule:evenodd"
     id="path4069"
     d="M 16.66,4.45 18.37,4.17 20.26,3.99 20.38,3.47 20.64,2.57 19.2,2.96 A 16.86,16.86 0 0 0 17.54,3.62 L 16.82,3.99 Z"
     class="cls-4"
     inkscape:connector-curvature="0" />
  <polygon
     transform="translate(-12.68,-6.95)"
     style="fill:#0071b8;fill-rule:evenodd"
     id="polygon4071"
     points="32.3,16.12 34.09,15.93 36.42,15.85 36.42,14.02 35.14,14.07 32.73,14.29 "
     class="cls-4" />
  <polygon
     transform="translate(-12.68,-6.95)"
     style="fill:#0071b8;fill-rule:evenodd"
     id="polygon4073"
     points="27.7,13.95 27.55,14.52 29.86,14.11 31.62,13.92 32.07,12.09 30.87,12.2 28.12,12.61 "
     class="cls-4" />
  <polygon
     transform="translate(-12.68,-6.95)"
     style="fill:#0071b8;fill-rule:evenodd"
     id="polygon4075"
     points="25.04,11.8 24.66,12.1 24.46,12.82 25.72,12.56 26.74,12.4 27.22,11.1 26.43,11.2 25.79,11.31 "
     class="cls-4" />
  <polygon
     transform="translate(-12.68,-6.95)"
     style="fill:#0071b8;fill-rule:evenodd"
     id="polygon4077"
     points="32.09,18.87 31.91,19.95 34.09,19.74 36.7,19.65 36.7,17.26 35.28,17.31 32.39,17.62 "
     class="cls-4" />
  <polygon
     transform="translate(-12.68,-6.95)"
     style="fill:#0071b8;fill-rule:evenodd"
     id="polygon4079"
     points="26.75,16.02 26.61,16.58 26.24,18.33 29.03,17.87 30.41,17.73 30.76,15.7 30.85,15.33 30.17,15.4 "
     class="cls-4" />
  <polygon
     transform="translate(-12.68,-6.95)"
     style="fill:#0071b8;fill-rule:evenodd"
     id="polygon4081"
     points="22.99,15.4 22.81,16.55 24.93,16.08 25.79,15.95 26.34,13.6 26.04,13.66 23.25,14.32 "
     class="cls-4" />
  <polygon
     transform="translate(-12.68,-6.95)"
     style="fill:#0071b8;fill-rule:evenodd"
     id="polygon4083"
     points="20.82,16.25 20.86,16.68 20.86,16.65 20.85,16.43 20.82,16.25 20.57,16.82 20.36,17.3 21.36,17.3 22.24,14.03 21.83,14.1 20.82,16.25 20.86,15.78 "
     class="cls-4" />
  <polygon
     transform="translate(-12.68,-6.95)"
     style="fill:#0071b8;fill-rule:evenodd"
     id="polygon4085"
     points="36.28,24.72 36.28,20.75 33.96,20.83 33.7,20.85 31.33,21.07 30.97,23.19 30.8,24.86 30.97,24.85 32.06,24.8 32.32,24.79 32.6,24.78 36.22,24.72 "
     class="cls-4" />
  <polygon
     transform="translate(-12.68,-6.95)"
     style="fill:#0071b8;fill-rule:evenodd"
     id="polygon4087"
     points="29.08,20.7 29.36,18.95 28.46,19.04 28.03,19.11 24.98,19.64 24.73,21.28 24.46,23.64 25.35,23.56 26.49,23.45 27.01,23.42 27.61,23.37 28.84,23.31 "
     class="cls-4" />
  <polygon
     transform="translate(-12.68,-6.95)"
     style="fill:#0071b8;fill-rule:evenodd"
     id="polygon4089"
     points="23.03,17.66 22.83,17.7 22.38,17.79 20.46,18.24 20.31,19.27 20.15,21.33 20.29,21.31 21.16,21.2 21.83,21.13 22.57,21.05 22.59,20.77 "
     class="cls-4" />
  <polygon
     transform="translate(-12.68,-6.95)"
     style="fill:#0071b8;fill-rule:evenodd"
     id="polygon4091"
     points="21.93,22.11 21.46,22.26 21.28,22.33 21.11,23.91 21.02,25.7 21.28,25.66 22.37,25.46 22.68,25.42 22.85,23.31 23.03,21.8 "
     class="cls-4" />
  <polygon
     transform="translate(-12.68,-6.95)"
     style="fill:#0071b8;fill-rule:evenodd"
     id="polygon4093"
     points="19.29,25.3 18.91,26.91 19.24,26.84 19.85,26.72 19.89,25.74 20.13,23.37 19.91,23.46 "
     class="cls-4" />
  <path
     style="fill:#0071b8;fill-rule:evenodd"
     id="path4095"
     d="m 24.01,25.05 v -5.4 l -5.16,0.17 -0.15,1.41 c -0.09,1.23 -0.13,2.47 -0.14,3.7 v 0.12 z"
     class="cls-4"
     inkscape:connector-curvature="0" />
  <polygon
     transform="translate(-12.68,-6.95)"
     style="fill:#0071b8;fill-rule:evenodd"
     id="polygon4097"
     points="41.33,49.86 39.79,50.01 37.89,50.06 37.89,51.67 39.47,51.58 40.88,51.37 "
     class="cls-4" />
  <path
     style="fill:#0071b8;fill-rule:evenodd"
     id="path4099"
     d="m 34.63,41.05 -1.84,0.28 -2,0.18 -0.12,0.52 -0.29,0.9 1.54,-0.39 a 18.21,18.21 0 0 0 1.79,-0.66 l 0.77,-0.37 z"
     class="cls-4"
     inkscape:connector-curvature="0" />
  <polygon
     transform="translate(-12.68,-6.95)"
     style="fill:#0071b8;fill-rule:evenodd"
     id="polygon4101"
     points="42,47.19 40.21,47.38 37.89,47.46 37.89,49.27 39.16,49.23 41.57,49.01 "
     class="cls-4" />
  <polygon
     transform="translate(-12.68,-6.95)"
     style="fill:#0071b8;fill-rule:evenodd"
     id="polygon4103"
     points="42.27,45.12 42.46,44.04 40.28,44.25 37.67,44.33 37.67,46.73 39.08,46.68 41.98,46.37 "
     class="cls-4" />
  <polygon
     transform="translate(-12.68,-6.95)"
     style="fill:#0071b8;fill-rule:evenodd"
     id="polygon4105"
     points="37.67,39.19 37.67,43.16 39.98,43.08 40.25,43.06 42.61,42.83 42.97,40.72 43.14,39.05 42.98,39.05 41.88,39.11 41.63,39.12 41.35,39.13 37.73,39.18 "
     class="cls-4" />
  <path
     style="fill:#0071b8;fill-rule:evenodd"
     id="path4107"
     d="m 24.99,25.61 v 5.44 l 5.56,-0.17 0.17,-1.41 c 0.09,-1.23 0.14,-2.47 0.14,-3.7 v -0.13 z"
     class="cls-4"
     inkscape:connector-curvature="0" />
  <polygon
     transform="translate(-12.68,-6.95)"
     style="fill:#0071b8;fill-rule:evenodd"
     id="polygon4109"
     points="33.38,49.42 34.92,49.54 36.82,49.58 36.82,50.86 35.24,50.8 33.83,50.63 "
     class="cls-4" />
  <polygon
     transform="translate(-12.68,-6.95)"
     style="fill:#0071b8;fill-rule:evenodd"
     id="polygon4111"
     points="32.36,47.13 34.34,47.28 36.91,47.34 36.9,48.97 35.57,48.85 32.93,48.77 "
     class="cls-4" />
  <polygon
     transform="translate(-12.68,-6.95)"
     style="fill:#0071b8;fill-rule:evenodd"
     id="polygon4113"
     points="21.91,43.61 21.59,43.27 20.71,42.18 21.67,42.59 "
     class="cls-4" />
  <polygon
     transform="translate(-12.68,-6.95)"
     style="fill:#0071b8;fill-rule:evenodd"
     id="polygon4115"
     points="32.16,44.93 31.98,43.85 34.16,44.06 36.77,44.15 36.77,46.54 35.35,46.49 32.46,46.19 "
     class="cls-4" />
  <polygon
     transform="translate(-12.68,-6.95)"
     style="fill:#0071b8;fill-rule:evenodd"
     id="polygon4117"
     points="28.35,46 28.2,45.38 27.82,43.44 29.87,43.81 30.88,43.9 31.27,46.15 31.36,46.56 30.86,46.51 "
     class="cls-4" />
  <polygon
     transform="translate(-12.68,-6.95)"
     style="fill:#0071b8;fill-rule:evenodd"
     id="polygon4119"
     points="24.88,43.98 24.64,42.66 26.24,43.06 26.89,43.16 27.51,45.85 27.28,45.81 25.18,45.22 "
     class="cls-4" />
  <polygon
     transform="translate(-12.68,-6.95)"
     style="fill:#0071b8;fill-rule:evenodd"
     id="polygon4121"
     points="36.77,39.03 36.77,43 34.45,42.92 34.19,42.9 31.82,42.68 31.46,40.56 31.29,38.89 31.45,38.9 32.55,38.96 32.81,38.96 33.09,38.97 36.71,39.03 "
     class="cls-4" />
  <polygon
     transform="translate(-12.68,-6.95)"
     style="fill:#0071b8;fill-rule:evenodd"
     id="polygon4123"
     points="30.6,41.34 30.94,43.15 30.25,43.09 29.92,43.05 27.57,42.63 27.25,40.93 26.87,38.48 27.56,38.52 28.43,38.58 28.82,38.59 29.28,38.62 30.22,38.62 "
     class="cls-4" />
  <polygon
     transform="translate(-12.68,-6.95)"
     style="fill:#0071b8;fill-rule:evenodd"
     id="polygon4125"
     points="26.46,41.83 26.27,41.8 25.82,41.71 23.95,41.26 23.69,39.9 23.29,37.18 23.44,37.2 24.27,37.28 24.91,37.31 25.62,37.37 25.67,37.75 "
     class="cls-4" />
  <polygon
     transform="translate(-12.68,-6.95)"
     style="fill:#0071b8;fill-rule:evenodd"
     id="polygon4127"
     points="22.22,41.05 21.7,40.92 21.5,40.86 21.2,39.02 20.96,36.91 21.25,36.94 22.44,37.06 22.78,37.09 23.12,39.55 23.43,41.32 "
     class="cls-4" />
  <polygon
     transform="translate(-12.68,-6.95)"
     style="fill:#0071b8;fill-rule:evenodd"
     id="polygon4129"
     points="19.42,38.21 18.85,36.48 19.36,36.55 20.26,36.69 20.34,37.75 20.69,40.3 20.36,40.21 "
     class="cls-4" />
  <path
     style="fill:#0071b8;fill-rule:evenodd"
     id="path4131"
     d="m 17.43,25.93 v 0.12 c 0,1.28 0,2.54 0.13,3.81 l 0.12,1.11 -1.93,-0.07 -1.81,-0.17 -0.09,-1 c -0.07,-1.18 -0.08,-2.37 0,-3.58 V 26 Z"
     class="cls-4"
     inkscape:connector-curvature="0" />
  <path
     style="fill:#0071b8;fill-rule:evenodd"
     id="path4133"
     d="m 24.22,25.82 v 5.35 L 18.66,31 18.5,29.61 c -0.1,-1.22 -0.15,-2.44 -0.15,-3.65 v -0.14 z"
     class="cls-4"
     inkscape:connector-curvature="0" />
  <polygon
     transform="translate(-12.68,-6.95)"
     style="fill:#0071b8;fill-rule:evenodd"
     id="polygon4135"
     points="25.74,27.26 25.9,25.92 25.4,26 25.16,26.04 23.47,26.45 23.33,27.71 23.18,29.52 23.68,29.46 24.31,29.38 24.59,29.36 24.92,29.31 25.61,29.27 "
     class="cls-4" />
  <polygon
     transform="translate(-12.68,-6.95)"
     style="fill:#0071b8;fill-rule:evenodd"
     id="polygon4137"
     points="22.61,28.03 22.72,27.01 22.34,27.07 22.16,27.1 20.89,27.41 20.78,28.37 20.67,29.74 21.04,29.7 21.52,29.63 21.74,29.61 21.99,29.59 22.5,29.55 "
     class="cls-4" />
  <polygon
     transform="translate(-12.68,-6.95)"
     style="fill:#0071b8;fill-rule:evenodd"
     id="polygon4139"
     points="22.61,28 22.72,26.9 22.34,26.97 22.16,27 20.89,27.34 20.78,28.37 20.67,29.85 21.04,29.8 21.52,29.73 21.74,29.71 21.99,29.68 22.5,29.64 "
     class="cls-4" />
  <polygon
     transform="translate(-12.68,-6.95)"
     style="fill:#0071b8;fill-rule:evenodd"
     id="polygon4141"
     points="20.21,28.93 20.31,27.99 19.98,28.04 19.82,28.08 18.67,28.36 18.58,29.24 18.48,30.5 18.81,30.46 19.24,30.4 19.43,30.39 19.66,30.36 20.12,30.32 "
     class="cls-4" />
  <polygon
     transform="translate(-12.68,-6.95)"
     style="fill:#0071b8;fill-rule:evenodd"
     id="polygon4143"
     points="22.61,43.23 22.38,42.03 23.46,42.28 23.89,42.33 24.46,44.74 24.3,44.72 22.88,44.34 "
     class="cls-4" />
  <polygon
     transform="translate(-12.68,-6.95)"
     style="fill:#0071b8;fill-rule:evenodd"
     id="polygon4145"
     points="25.74,27.48 25.9,26.14 25.4,26.22 25.16,26.26 23.47,26.67 23.33,27.93 23.18,29.74 23.68,29.68 24.31,29.6 24.59,29.57 24.92,29.53 25.61,29.49 "
     class="cls-4" />
  <polygon
     transform="translate(-12.68,-6.95)"
     style="fill:#0071b8;fill-rule:evenodd"
     id="polygon4147"
     points="22.61,27.97 22.72,26.8 22.34,26.86 22.16,26.9 20.89,27.26 20.78,28.37 20.67,29.96 21.04,29.91 21.52,29.83 21.74,29.81 21.99,29.78 22.5,29.74 "
     class="cls-4" />
  <path
     style="fill:#0071b8;fill-rule:evenodd"
     id="path4149"
     d="m 12.85,24.86 v 2.19 l 0.17,1.58 -2.52,-0.18 v -0.13 c -0.05,-0.73 -0.07,-1.46 -0.05,-2.21 l 0.08,-1.29 z"
     class="cls-4"
     inkscape:connector-curvature="0" />
  <polygon
     transform="translate(-12.68,-6.95)"
     style="fill:#0071b8;fill-rule:evenodd"
     id="polygon4151"
     points="25.66,34.49 25.81,35.63 25.32,35.56 25.09,35.52 23.46,35.18 23.32,34.12 23.18,32.59 23.65,32.64 24.27,32.71 24.54,32.73 24.86,32.76 25.53,32.8 "
     class="cls-4" />
  <path
     style="fill:#0071b8;fill-rule:evenodd"
     id="path4153"
     d="m 9.65,25.19 v 1.86 l 0.11,1.31 -1.7,-0.15 v -0.16 c 0,-0.6 0,-1.21 0,-1.83 l 0.06,-1.07 z"
     class="cls-4"
     inkscape:connector-curvature="0" />
  <polygon
     transform="translate(-12.68,-6.95)"
     style="fill:#0071b8;fill-rule:evenodd"
     id="polygon4155"
     points="22.42,34.36 22.52,35.3 22.2,35.25 22.04,35.22 20.94,34.93 20.84,34.05 20.75,32.79 21.07,32.83 21.48,32.89 21.67,32.9 21.88,32.93 22.33,32.97 "
     class="cls-4" />
  <path
     style="fill:#0071b8;fill-rule:evenodd"
     id="path4157"
     d="m 7.32,25.3 v 1.59 l 0.1,1.13 -1.49,-0.13 V 27.8 c 0,-0.52 0,-1.05 0,-1.58 L 5.98,25.3 Z"
     class="cls-4"
     inkscape:connector-curvature="0" />
  <polygon
     transform="translate(-12.68,-6.95)"
     style="fill:#0071b8;fill-rule:evenodd"
     id="polygon4159"
     points="20.09,34.17 20.18,34.97 19.89,34.93 19.76,34.9 18.79,34.65 18.7,33.9 18.62,32.81 18.9,32.84 19.27,32.89 19.43,32.91 19.62,32.93 20.01,32.96 "
     class="cls-4" />
  <path
     style="fill:#0071b8;fill-rule:evenodd"
     id="path4161"
     d="m 17.59,23.55 v -2.5 l 0.28,-1.76 -4.15,0.21 v 0.14 a 18.28,18.28 0 0 0 -0.08,2.46 l 0.14,1.44 z"
     class="cls-4"
     inkscape:connector-curvature="0" />
  <polygon
     transform="translate(-12.68,-6.95)"
     style="fill:#0071b8;fill-rule:evenodd"
     id="polygon4163"
     points="30.48,27.51 30.73,26.25 29.93,26.31 29.55,26.36 26.84,26.74 26.62,27.93 26.38,29.63 27.17,29.57 28.18,29.49 28.64,29.47 29.17,29.43 30.26,29.39 "
     class="cls-4" />
  <polygon
     transform="translate(-12.68,-6.95)"
     style="fill:#0071b8;fill-rule:evenodd"
     id="polygon4165"
     points="28.99,49.26 28.83,48.65 28.41,46.71 30.47,47.09 31.49,47.17 31.88,49.4 31.96,49.8 31.47,49.76 "
     class="cls-4" />
  <polygon
     transform="translate(-12.68,-6.95)"
     style="fill:#0071b8;fill-rule:evenodd"
     id="polygon4167"
     points="25.49,47.26 25.19,45.92 26.82,46.32 27.47,46.43 28.16,49.11 27.93,49.07 25.82,48.5 "
     class="cls-4" />
  <polygon
     transform="translate(-12.68,-6.95)"
     style="fill:#0071b8;fill-rule:evenodd"
     id="polygon4169"
     points="23.17,46.5 22.87,45.28 23.97,45.53 24.41,45.58 25.09,48.02 24.94,48 23.5,47.62 "
     class="cls-4" />
  <path
     style="fill:#039749;fill-rule:evenodd"
     id="path4171"
     d="m 48.16,45.56 v 14.65 c 0,0 -0.9,5.66 -6.53,5.66 h -9 c 0,0 -7.65,0.84 -7.65,11 a 1.22,1.22 0 0 1 -0.33,0 c 0,1.51 0,-15.51 0,-15.51 0,0 0.09,-9.55 8,-9.55 h 9 c 0,0 6.51,-0.76 6.51,-6.25 z"
     class="cls-5"
     inkscape:connector-curvature="0" />
  <path
     style="fill:#039749;fill-rule:evenodd"
     id="path4173"
     d="m 48.16,22.37 v 14.65 c 0,0 -0.9,5.66 -6.53,5.66 h -9 c 0,0 -8,0.38 -7.91,11 0,1.51 0,-15.58 0,-15.58 0,0 0,-9.54 7.91,-9.54 h 9 c 0,0 6.53,-0.68 6.53,-6.19 z"
     class="cls-5"
     inkscape:connector-curvature="0" />
  <path
     style="fill:#039749;fill-rule:evenodd"
     id="path4175"
     d="M 1.48,34.24 V 48.9 c 0,0 0.89,5.66 6.53,5.66 h 9 c 0,0 8,0.38 7.91,11 0,1.51 0,-15.58 0,-15.58 0,0 0,-9.54 -7.9,-9.54 h -9 c 0,0 -6.54,-0.68 -6.54,-6.2 z"
     class="cls-5"
     inkscape:connector-curvature="0" />
  <path
     style="fill:#cc0000;fill-rule:evenodd"
     id="path4177"
     d="M 24,50.92 C 11.13,50.48 0.88,40.92 0,29.02 v -0.57 l 2.39,2.35 2.15,-2.32 v 0.26 c 0.69,9.69 7.86,16.94 18,17.29 h 2 v 4.92 z"
     class="cls-3"
     inkscape:connector-curvature="0" />
</svg>
